<svg width="1058" height="168" viewBox="0 0 1058 168" fill="none" xmlns="http://www.w3.org/2000/svg">
<path d="M55.2367 156.816C32.2755 156.816 16.6793 144.686 10.1809 133.855C9.31442 131.689 9.74765 130.172 11.6972 128.656L27.0768 116.959C29.2429 115.443 31.1925 116.092 32.4922 117.825C37.2577 124.324 44.4059 129.306 54.8034 129.306C70.8329 129.306 81.0138 117.609 81.0138 103.529C81.0138 88.7991 70.1831 78.185 55.4533 78.185C47.8718 78.185 40.9401 81.2176 36.1746 86.4163C34.8749 87.9326 33.142 88.7991 30.7592 87.9326L14.5132 81.4342C12.5636 80.5677 11.9138 79.4847 12.347 77.5351L28.5931 5.18592C29.0263 3.45301 30.1094 2.36993 32.0589 2.36993H97.0432C98.9928 2.36993 100.292 3.66963 100.292 5.61915V24.4646C100.292 26.4141 98.9928 27.7138 97.0432 27.7138H50.6878L44.1893 56.5235C48.5216 55.0072 54.8034 53.0577 62.6016 53.0577C90.1116 53.0577 110.04 75.1524 110.04 104.179C110.04 136.238 85.7793 156.816 55.2367 156.816ZM182.821 156.816C150.979 156.816 121.952 133.205 121.952 78.8348C121.952 24.4646 150.979 0.637029 182.821 0.637029C214.663 0.637029 243.689 24.4646 243.689 78.8348C243.689 133.205 214.663 156.816 182.821 156.816ZM150.979 78.8348C150.979 108.078 160.51 129.089 182.821 129.089C204.915 129.089 214.663 108.078 214.663 78.8348C214.663 49.5919 204.915 28.3637 182.821 28.3637C160.51 28.3637 150.979 49.5919 150.979 78.8348ZM288.82 60.206C272.14 60.206 259.144 47.4257 259.144 30.7464C259.144 14.0671 272.14 1.28686 288.82 1.28686C305.499 1.28686 318.496 14.0671 318.496 30.7464C318.496 47.4257 305.499 60.206 288.82 60.206ZM273.657 140.137L363.985 4.96931C365.068 3.23639 366.584 2.80317 368.317 4.10285L379.581 11.6844C381.531 12.984 381.747 14.5003 380.664 16.2333L290.336 151.401C289.253 153.134 287.737 153.567 286.004 152.267L274.74 144.686C272.79 143.386 272.574 141.87 273.657 140.137ZM278.855 30.7464C278.855 36.595 283.188 40.9273 288.82 40.9273C294.452 40.9273 298.784 36.595 298.784 30.7464C298.784 24.8978 294.452 20.5655 288.82 20.5655C283.188 20.5655 278.855 24.8978 278.855 30.7464ZM335.825 125.624C335.825 108.944 348.822 96.164 365.501 96.164C382.181 96.164 395.177 108.944 395.177 125.624C395.177 142.303 382.181 155.083 365.501 155.083C348.822 155.083 335.825 142.303 335.825 125.624ZM355.537 125.624C355.537 131.472 359.869 135.804 365.501 135.804C371.133 135.804 375.465 131.472 375.465 125.624C375.465 119.775 371.133 115.443 365.501 115.443C359.869 115.443 355.537 119.775 355.537 125.624Z" fill="url(#paint0_linear_1613_2145)"/>
<path d="M473.968 40.576C466.864 40.576 461.632 35.2 461.632 28.24C461.632 21.28 466.864 15.904 473.968 15.904C481.024 15.904 486.256 21.28 486.256 28.24C486.256 35.2 481.024 40.576 473.968 40.576ZM468.016 28.24C468.016 32.08 470.608 34.48 473.968 34.48C477.28 34.48 479.872 32.08 479.872 28.24C479.872 24.4 477.28 22 473.968 22C470.608 22 468.016 24.4 468.016 28.24ZM493.038 40C492.606 40 492.318 39.712 492.318 39.28V21.616H489.534C489.102 21.616 488.814 21.328 488.814 20.896V17.2C488.814 16.768 489.102 16.48 489.534 16.48H492.318V12.832C492.318 7.36 495.342 4.912 500.382 4.912C501.726 4.912 502.734 5.008 503.982 5.632C504.27 5.776 504.414 6.064 504.414 6.352V10.72C504.414 11.056 504.126 11.104 503.79 11.056C503.022 10.912 502.398 10.816 501.87 10.816C499.518 10.816 498.99 12.016 498.99 13.744V16.48H503.694C504.126 16.48 504.414 16.768 504.414 17.2V20.896C504.414 21.328 504.126 21.616 503.694 21.616H498.99V39.28C498.99 39.712 498.702 40 498.27 40H493.038ZM528.035 40.576C521.411 40.576 516.851 35.248 516.851 28.24C516.851 21.28 521.411 15.904 528.035 15.904C531.587 15.904 534.131 17.344 535.715 19.792L535.811 17.2C535.811 16.768 536.099 16.48 536.531 16.48H541.235C541.667 16.48 541.955 16.768 541.955 17.2V39.28C541.955 39.712 541.619 40 541.187 40H536.531C536.099 40 535.811 39.712 535.811 39.28L535.715 36.688C534.083 39.088 531.539 40.576 528.035 40.576ZM523.331 28.24C523.331 32.032 525.923 34.528 529.427 34.528C532.931 34.528 535.379 32.032 535.379 28.24C535.379 24.448 532.931 21.952 529.427 21.952C525.923 21.952 523.331 24.496 523.331 28.24ZM548.396 40C547.964 40 547.676 39.712 547.676 39.28V6.4C547.676 5.968 547.964 5.68 548.396 5.68H553.628C554.06 5.68 554.348 5.968 554.348 6.4V39.28C554.348 39.712 554.06 40 553.628 40H548.396ZM560.771 40C560.339 40 560.051 39.712 560.051 39.28V6.4C560.051 5.968 560.339 5.68 560.771 5.68H566.003C566.435 5.68 566.723 5.968 566.723 6.4V39.28C566.723 39.712 566.435 40 566.003 40H560.771ZM582.521 49.12C582.089 49.12 581.801 48.832 581.801 48.4V17.2C581.801 16.768 582.089 16.48 582.521 16.48H587.273C587.705 16.48 587.993 16.768 587.993 17.2L588.089 19.792C589.673 17.344 592.169 15.904 595.769 15.904C602.345 15.904 606.905 21.28 606.905 28.24C606.905 35.248 602.345 40.576 595.769 40.576C592.553 40.576 590.105 39.328 588.473 37.216V48.4C588.473 48.832 588.185 49.12 587.753 49.12H582.521ZM588.377 28.24C588.377 32.032 590.825 34.528 594.377 34.528C597.833 34.528 600.425 32.032 600.425 28.24C600.425 24.496 597.833 21.952 594.377 21.952C590.825 21.952 588.377 24.448 588.377 28.24ZM612.146 40C611.714 40 611.426 39.712 611.426 39.28V17.2C611.426 16.768 611.714 16.48 612.146 16.48H617.138C617.57 16.48 617.81 16.672 617.858 17.248L618.05 20.272C618.866 17.776 620.354 15.904 623.138 15.904C624.242 15.904 624.914 16.192 625.298 16.48C625.634 16.72 625.73 17.008 625.73 17.44V21.664C625.73 22.24 625.394 22.384 624.77 22.24C624.242 22.096 623.714 22 623.042 22C619.778 22 618.05 24.16 618.05 27.52V39.28C618.05 39.712 617.762 40 617.33 40H612.146ZM640.468 40.576C633.364 40.576 628.132 35.2 628.132 28.24C628.132 21.28 633.364 15.904 640.468 15.904C647.524 15.904 652.756 21.28 652.756 28.24C652.756 35.2 647.524 40.576 640.468 40.576ZM634.516 28.24C634.516 32.08 637.108 34.48 640.468 34.48C643.78 34.48 646.372 32.08 646.372 28.24C646.372 24.4 643.78 22 640.468 22C637.108 22 634.516 24.4 634.516 28.24ZM659.538 40C659.106 40 658.818 39.712 658.818 39.28V21.616H656.034C655.602 21.616 655.314 21.328 655.314 20.896V17.2C655.314 16.768 655.602 16.48 656.034 16.48H658.818V12.832C658.818 7.36 661.842 4.912 666.882 4.912C668.226 4.912 669.234 5.008 670.482 5.632C670.77 5.776 670.914 6.064 670.914 6.352V10.72C670.914 11.056 670.626 11.104 670.29 11.056C669.522 10.912 668.898 10.816 668.37 10.816C666.018 10.816 665.49 12.016 665.49 13.744V16.48H670.194C670.626 16.48 670.914 16.768 670.914 17.2V20.896C670.914 21.328 670.626 21.616 670.194 21.616H665.49V39.28C665.49 39.712 665.202 40 664.77 40H659.538ZM678.584 12.304C676.472 12.304 674.888 10.672 674.888 8.608C674.888 6.592 676.472 4.96 678.584 4.96C680.696 4.96 682.232 6.592 682.232 8.608C682.232 10.672 680.696 12.304 678.584 12.304ZM675.224 39.28V17.2C675.224 16.768 675.512 16.48 675.944 16.48H681.176C681.608 16.48 681.896 16.768 681.896 17.2V39.28C681.896 39.712 681.608 40 681.176 40H675.944C675.512 40 675.224 39.712 675.224 39.28ZM696.536 40.288C692.792 40.288 689.432 38.56 689.432 33.424V21.616H686.456C686.024 21.616 685.736 21.328 685.736 20.896V17.2C685.736 16.768 686.024 16.48 686.456 16.48H689.432V10.96C689.432 10.528 689.72 10.24 690.152 10.24H695.384C695.816 10.24 696.104 10.528 696.104 10.96V16.48H699.8C700.232 16.48 700.52 16.768 700.52 17.2V20.896C700.52 21.328 700.232 21.616 699.8 21.616H696.104V32.704C696.104 34.096 696.92 34.768 698.168 34.768C698.6 34.768 699.08 34.768 699.656 34.72C700.184 34.672 700.52 34.912 700.52 35.392V38.896C700.52 40 698.12 40.288 696.536 40.288ZM712.817 40.576C708.881 40.576 705.905 38.896 704.033 36.688C703.745 36.352 703.793 35.824 704.129 35.296L705.809 32.944C706.193 32.368 706.625 32.464 707.009 32.752C708.977 34.24 710.609 35.056 712.433 35.056C714.017 35.056 715.073 34.432 715.073 33.088C715.073 31.936 714.353 31.408 712.625 30.688L709.649 29.488C706.625 28.288 704.513 26.272 704.513 23.008C704.513 18.496 708.353 15.904 712.721 15.904C715.793 15.904 718.625 17.152 720.593 19.504C720.881 19.84 720.785 20.224 720.545 20.512L718.433 23.056C718.097 23.44 717.761 23.392 717.329 23.056C715.793 21.76 714.449 21.088 713.057 21.088C711.521 21.088 710.801 21.952 710.801 22.96C710.801 24.112 711.761 24.736 713.057 25.216L716.369 26.512C719.345 27.712 721.697 29.776 721.649 33.376C721.601 38.128 717.521 40.576 712.817 40.576ZM746.874 40.576C739.77 40.576 734.538 35.2 734.538 28.24C734.538 21.28 739.77 15.904 746.874 15.904C753.93 15.904 759.162 21.28 759.162 28.24C759.162 35.2 753.93 40.576 746.874 40.576ZM740.922 28.24C740.922 32.08 743.514 34.48 746.874 34.48C750.186 34.48 752.778 32.08 752.778 28.24C752.778 24.4 750.186 22 746.874 22C743.514 22 740.922 24.4 740.922 28.24ZM764.349 40C763.917 40 763.629 39.712 763.629 39.28V17.2C763.629 16.768 763.917 16.48 764.349 16.48H769.341C769.773 16.48 770.061 16.672 770.061 17.248L770.253 20.032C771.597 17.632 773.853 15.904 777.357 15.904C782.253 15.904 785.853 19.456 785.853 25.6V39.28C785.853 39.712 785.517 40 785.085 40H779.949C779.517 40 779.229 39.712 779.229 39.28V27.088C779.229 23.776 777.693 22 774.861 22C772.077 22 770.253 23.776 770.253 27.088V39.28C770.253 39.712 769.965 40 769.533 40H764.349ZM812.031 40.576C804.927 40.576 799.695 35.2 799.695 28.24C799.695 21.28 804.927 15.904 812.031 15.904C819.087 15.904 824.319 21.28 824.319 28.24C824.319 35.2 819.087 40.576 812.031 40.576ZM806.079 28.24C806.079 32.08 808.671 34.48 812.031 34.48C815.343 34.48 817.935 32.08 817.935 28.24C817.935 24.4 815.343 22 812.031 22C808.671 22 806.079 24.4 806.079 28.24ZM837.047 40.576C832.103 40.576 828.551 37.024 828.551 30.88V17.2C828.551 16.768 828.839 16.48 829.271 16.48H834.455C834.887 16.48 835.175 16.768 835.175 17.2V29.392C835.175 32.704 836.711 34.48 839.543 34.48C842.327 34.48 844.151 32.704 844.151 29.392V17.2C844.151 16.768 844.439 16.48 844.871 16.48H850.007C850.439 16.48 850.775 16.768 850.775 17.2V39.28C850.775 39.712 850.439 40 850.007 40H845.063C844.631 40 844.391 39.808 844.343 39.232L844.151 36.448C842.807 38.848 840.551 40.576 837.047 40.576ZM857.161 40C856.729 40 856.441 39.712 856.441 39.28V17.2C856.441 16.768 856.729 16.48 857.161 16.48H862.153C862.585 16.48 862.825 16.672 862.873 17.248L863.065 20.272C863.881 17.776 865.369 15.904 868.153 15.904C869.257 15.904 869.929 16.192 870.313 16.48C870.649 16.72 870.745 17.008 870.745 17.44V21.664C870.745 22.24 870.409 22.384 869.785 22.24C869.257 22.096 868.729 22 868.057 22C864.793 22 863.065 24.16 863.065 27.52V39.28C863.065 39.712 862.777 40 862.345 40H857.161ZM891.926 40.576C887.99 40.576 885.014 38.896 883.142 36.688C882.854 36.352 882.902 35.824 883.238 35.296L884.918 32.944C885.302 32.368 885.734 32.464 886.118 32.752C888.086 34.24 889.718 35.056 891.542 35.056C893.126 35.056 894.182 34.432 894.182 33.088C894.182 31.936 893.462 31.408 891.734 30.688L888.758 29.488C885.734 28.288 883.622 26.272 883.622 23.008C883.622 18.496 887.462 15.904 891.83 15.904C894.902 15.904 897.734 17.152 899.702 19.504C899.99 19.84 899.894 20.224 899.654 20.512L897.542 23.056C897.206 23.44 896.87 23.392 896.438 23.056C894.902 21.76 893.558 21.088 892.166 21.088C890.63 21.088 889.91 21.952 889.91 22.96C889.91 24.112 890.87 24.736 892.166 25.216L895.478 26.512C898.454 27.712 900.806 29.776 900.758 33.376C900.71 38.128 896.63 40.576 891.926 40.576ZM908.881 12.304C906.769 12.304 905.185 10.672 905.185 8.608C905.185 6.592 906.769 4.96 908.881 4.96C910.993 4.96 912.529 6.592 912.529 8.608C912.529 10.672 910.993 12.304 908.881 12.304ZM905.521 39.28V17.2C905.521 16.768 905.809 16.48 906.241 16.48H911.473C911.905 16.48 912.193 16.768 912.193 17.2V39.28C912.193 39.712 911.905 40 911.473 40H906.241C905.809 40 905.521 39.712 905.521 39.28ZM927.925 40.576C921.301 40.576 916.741 35.248 916.741 28.24C916.741 21.28 921.301 15.904 927.925 15.904C931.189 15.904 933.589 17.104 935.173 19.216V6.4C935.173 5.968 935.461 5.68 935.893 5.68H941.125C941.557 5.68 941.845 5.968 941.845 6.4V39.28C941.845 39.712 941.509 40 941.077 40H936.421C935.989 40 935.701 39.712 935.701 39.28L935.605 36.688C933.973 39.088 931.429 40.576 927.925 40.576ZM923.221 28.24C923.221 32.032 925.813 34.528 929.317 34.528C932.821 34.528 935.269 32.032 935.269 28.24C935.269 24.448 932.821 21.952 929.317 21.952C925.813 21.952 923.221 24.496 923.221 28.24ZM959.278 40.576C951.55 40.576 946.366 35.248 946.366 28.144C946.366 21.232 951.214 15.904 958.462 15.904C965.614 15.904 969.742 21.184 969.742 27.136C969.742 29.44 969.214 30.736 967.15 30.736H952.846C953.566 33.712 956.014 35.344 959.806 35.344C961.63 35.344 963.358 35.008 965.278 33.904C965.614 33.712 965.854 33.76 966.094 34.096L967.87 36.544C968.11 36.88 968.062 37.216 967.63 37.6C965.614 39.616 962.59 40.576 959.278 40.576ZM952.75 26.08H963.838C963.454 22.96 961.342 21.376 958.51 21.376C955.582 21.376 953.326 22.96 952.75 26.08ZM469.696 88C469.312 88 468.976 87.808 468.832 87.424L461.44 65.296C461.248 64.768 461.488 64.48 462.016 64.48H467.056C467.44 64.48 467.776 64.672 467.92 65.056L472.624 80.32L477.76 65.056C477.904 64.672 478.24 64.48 478.624 64.48H483.664C484.048 64.48 484.384 64.672 484.528 65.056L489.616 80.32L494.32 65.056C494.464 64.672 494.848 64.48 495.232 64.48H500.224C500.752 64.48 500.992 64.768 500.8 65.296L493.456 87.424C493.312 87.808 492.976 88 492.592 88H487.264C486.88 88 486.544 87.808 486.4 87.424L481.12 72.16L475.888 87.424C475.744 87.808 475.408 88 475.024 88H469.696ZM508.521 60.304C506.409 60.304 504.825 58.672 504.825 56.608C504.825 54.592 506.409 52.96 508.521 52.96C510.633 52.96 512.169 54.592 512.169 56.608C512.169 58.672 510.633 60.304 508.521 60.304ZM505.161 87.28V65.2C505.161 64.768 505.449 64.48 505.881 64.48H511.113C511.545 64.48 511.833 64.768 511.833 65.2V87.28C511.833 87.712 511.545 88 511.113 88H505.881C505.449 88 505.161 87.712 505.161 87.28ZM518.302 88C517.87 88 517.582 87.712 517.582 87.28V54.4C517.582 53.968 517.87 53.68 518.302 53.68H523.534C523.966 53.68 524.254 53.968 524.254 54.4V87.28C524.254 87.712 523.966 88 523.534 88H518.302ZM530.677 88C530.245 88 529.957 87.712 529.957 87.28V54.4C529.957 53.968 530.245 53.68 530.677 53.68H535.909C536.341 53.68 536.629 53.968 536.629 54.4V87.28C536.629 87.712 536.341 88 535.909 88H530.677ZM565.675 88.576C562.123 88.576 559.627 87.088 557.995 84.688L557.899 87.28C557.899 87.712 557.611 88 557.179 88H552.475C552.043 88 551.707 87.712 551.707 87.28V54.4C551.707 53.968 551.995 53.68 552.427 53.68H557.659C558.091 53.68 558.379 53.968 558.379 54.4V67.216C559.963 65.104 562.411 63.904 565.675 63.904C572.251 63.904 576.811 69.28 576.811 76.24C576.811 83.248 572.251 88.576 565.675 88.576ZM558.283 76.24C558.283 80.032 560.731 82.528 564.283 82.528C567.739 82.528 570.331 80.032 570.331 76.24C570.331 72.496 567.739 69.952 564.283 69.952C560.731 69.952 558.283 72.448 558.283 76.24ZM593.044 88.576C585.316 88.576 580.132 83.248 580.132 76.144C580.132 69.232 584.98 63.904 592.228 63.904C599.38 63.904 603.508 69.184 603.508 75.136C603.508 77.44 602.98 78.736 600.916 78.736H586.612C587.332 81.712 589.78 83.344 593.572 83.344C595.396 83.344 597.124 83.008 599.044 81.904C599.38 81.712 599.62 81.76 599.86 82.096L601.636 84.544C601.876 84.88 601.828 85.216 601.396 85.6C599.38 87.616 596.356 88.576 593.044 88.576ZM586.516 74.08H597.604C597.22 70.96 595.108 69.376 592.276 69.376C589.348 69.376 587.092 70.96 586.516 74.08ZM627.316 88.576C620.692 88.576 616.132 83.248 616.132 76.24C616.132 69.28 620.692 63.904 627.316 63.904C630.58 63.904 632.98 65.104 634.564 67.216V54.4C634.564 53.968 634.852 53.68 635.284 53.68H640.516C640.948 53.68 641.236 53.968 641.236 54.4V87.28C641.236 87.712 640.9 88 640.468 88H635.812C635.38 88 635.092 87.712 635.092 87.28L634.996 84.688C633.364 87.088 630.82 88.576 627.316 88.576ZM622.612 76.24C622.612 80.032 625.204 82.528 628.708 82.528C632.212 82.528 634.66 80.032 634.66 76.24C634.66 72.448 632.212 69.952 628.708 69.952C625.204 69.952 622.612 72.496 622.612 76.24ZM658.093 88.576C650.989 88.576 645.757 83.2 645.757 76.24C645.757 69.28 650.989 63.904 658.093 63.904C665.149 63.904 670.381 69.28 670.381 76.24C670.381 83.2 665.149 88.576 658.093 88.576ZM652.141 76.24C652.141 80.08 654.733 82.48 658.093 82.48C661.405 82.48 663.997 80.08 663.997 76.24C663.997 72.4 661.405 70 658.093 70C654.733 70 652.141 72.4 652.141 76.24ZM675.568 88C675.136 88 674.848 87.712 674.848 87.28V65.2C674.848 64.768 675.136 64.48 675.568 64.48H680.56C680.992 64.48 681.28 64.672 681.28 65.248L681.472 68.032C682.816 65.632 685.072 63.904 688.576 63.904C693.472 63.904 697.072 67.456 697.072 73.6V87.28C697.072 87.712 696.736 88 696.304 88H691.168C690.736 88 690.448 87.712 690.448 87.28V75.088C690.448 71.776 688.912 70 686.08 70C683.296 70 681.472 71.776 681.472 75.088V87.28C681.472 87.712 681.184 88 680.752 88H675.568ZM712.722 88.576C706.098 88.576 701.538 83.248 701.538 76.24C701.538 69.28 706.098 63.904 712.722 63.904C716.274 63.904 718.818 65.344 720.402 67.792L720.498 65.2C720.498 64.768 720.786 64.48 721.218 64.48H725.922C726.354 64.48 726.642 64.768 726.642 65.2V87.28C726.642 87.712 726.306 88 725.874 88H721.218C720.786 88 720.498 87.712 720.498 87.28L720.402 84.688C718.77 87.088 716.226 88.576 712.722 88.576ZM708.018 76.24C708.018 80.032 710.61 82.528 714.114 82.528C717.618 82.528 720.066 80.032 720.066 76.24C720.066 72.448 717.618 69.952 714.114 69.952C710.61 69.952 708.018 72.496 708.018 76.24ZM741.723 88.288C737.979 88.288 734.619 86.56 734.619 81.424V69.616H731.643C731.211 69.616 730.923 69.328 730.923 68.896V65.2C730.923 64.768 731.211 64.48 731.643 64.48H734.619V58.96C734.619 58.528 734.907 58.24 735.339 58.24H740.571C741.003 58.24 741.291 58.528 741.291 58.96V64.48H744.987C745.419 64.48 745.707 64.768 745.707 65.2V68.896C745.707 69.328 745.419 69.616 744.987 69.616H741.291V80.704C741.291 82.096 742.107 82.768 743.355 82.768C743.787 82.768 744.267 82.768 744.843 82.72C745.371 82.672 745.707 82.912 745.707 83.392V86.896C745.707 88 743.307 88.288 741.723 88.288ZM761.419 88.576C753.691 88.576 748.507 83.248 748.507 76.144C748.507 69.232 753.355 63.904 760.603 63.904C767.755 63.904 771.883 69.184 771.883 75.136C771.883 77.44 771.355 78.736 769.291 78.736H754.987C755.707 81.712 758.155 83.344 761.947 83.344C763.771 83.344 765.499 83.008 767.419 81.904C767.755 81.712 767.995 81.76 768.235 82.096L770.011 84.544C770.251 84.88 770.203 85.216 769.771 85.6C767.755 87.616 764.731 88.576 761.419 88.576ZM754.891 74.08H765.979C765.595 70.96 763.483 69.376 760.651 69.376C757.723 69.376 755.467 70.96 754.891 74.08ZM786.316 88.576C779.692 88.576 775.132 83.248 775.132 76.24C775.132 69.28 779.692 63.904 786.316 63.904C789.58 63.904 791.98 65.104 793.564 67.216V54.4C793.564 53.968 793.852 53.68 794.284 53.68H799.516C799.948 53.68 800.236 53.968 800.236 54.4V87.28C800.236 87.712 799.9 88 799.468 88H794.812C794.38 88 794.092 87.712 794.092 87.28L793.996 84.688C792.364 87.088 789.82 88.576 786.316 88.576ZM781.612 76.24C781.612 80.032 784.204 82.528 787.708 82.528C791.212 82.528 793.66 80.032 793.66 76.24C793.66 72.448 791.212 69.952 787.708 69.952C784.204 69.952 781.612 72.496 781.612 76.24ZM824.692 88.288C820.948 88.288 817.588 86.56 817.588 81.424V69.616H814.612C814.18 69.616 813.892 69.328 813.892 68.896V65.2C813.892 64.768 814.18 64.48 814.612 64.48H817.588V58.96C817.588 58.528 817.876 58.24 818.308 58.24H823.54C823.972 58.24 824.26 58.528 824.26 58.96V64.48H827.956C828.388 64.48 828.676 64.768 828.676 65.2V68.896C828.676 69.328 828.388 69.616 827.956 69.616H824.26V80.704C824.26 82.096 825.076 82.768 826.324 82.768C826.756 82.768 827.236 82.768 827.812 82.72C828.34 82.672 828.676 82.912 828.676 83.392V86.896C828.676 88 826.276 88.288 824.692 88.288ZM843.812 88.576C836.708 88.576 831.476 83.2 831.476 76.24C831.476 69.28 836.708 63.904 843.812 63.904C850.868 63.904 856.1 69.28 856.1 76.24C856.1 83.2 850.868 88.576 843.812 88.576ZM837.86 76.24C837.86 80.08 840.452 82.48 843.812 82.48C847.124 82.48 849.716 80.08 849.716 76.24C849.716 72.4 847.124 70 843.812 70C840.452 70 837.86 72.4 837.86 76.24ZM878.197 88C877.813 88 877.477 87.808 877.333 87.424L868.549 65.296C868.357 64.768 868.597 64.48 869.125 64.48H874.405C874.789 64.48 875.125 64.672 875.269 65.056L880.837 80.368L886.357 65.056C886.501 64.672 886.837 64.48 887.221 64.48H892.501C893.029 64.48 893.269 64.768 893.077 65.296L884.293 87.424C884.149 87.808 883.813 88 883.429 88H878.197ZM905.66 88.576C899.036 88.576 894.476 83.248 894.476 76.24C894.476 69.28 899.036 63.904 905.66 63.904C909.212 63.904 911.756 65.344 913.34 67.792L913.436 65.2C913.436 64.768 913.724 64.48 914.156 64.48H918.86C919.292 64.48 919.58 64.768 919.58 65.2V87.28C919.58 87.712 919.244 88 918.812 88H914.156C913.724 88 913.436 87.712 913.436 87.28L913.34 84.688C911.708 87.088 909.164 88.576 905.66 88.576ZM900.956 76.24C900.956 80.032 903.548 82.528 907.052 82.528C910.556 82.528 913.004 80.032 913.004 76.24C913.004 72.448 910.556 69.952 907.052 69.952C903.548 69.952 900.956 72.496 900.956 76.24ZM926.021 88C925.589 88 925.301 87.712 925.301 87.28V65.2C925.301 64.768 925.589 64.48 926.021 64.48H931.013C931.445 64.48 931.685 64.672 931.733 65.248L931.925 68.272C932.741 65.776 934.229 63.904 937.013 63.904C938.117 63.904 938.789 64.192 939.173 64.48C939.509 64.72 939.605 65.008 939.605 65.44V69.664C939.605 70.24 939.269 70.384 938.645 70.24C938.117 70.096 937.589 70 936.917 70C933.653 70 931.925 72.16 931.925 75.52V87.28C931.925 87.712 931.637 88 931.205 88H926.021ZM947.271 60.304C945.159 60.304 943.575 58.672 943.575 56.608C943.575 54.592 945.159 52.96 947.271 52.96C949.383 52.96 950.919 54.592 950.919 56.608C950.919 58.672 949.383 60.304 947.271 60.304ZM943.911 87.28V65.2C943.911 64.768 944.199 64.48 944.631 64.48H949.863C950.295 64.48 950.583 64.768 950.583 65.2V87.28C950.583 87.712 950.295 88 949.863 88H944.631C944.199 88 943.911 87.712 943.911 87.28ZM967.468 88.576C960.364 88.576 955.132 83.2 955.132 76.24C955.132 69.28 960.364 63.904 967.468 63.904C974.524 63.904 979.756 69.28 979.756 76.24C979.756 83.2 974.524 88.576 967.468 88.576ZM961.516 76.24C961.516 80.08 964.108 82.48 967.468 82.48C970.78 82.48 973.372 80.08 973.372 76.24C973.372 72.4 970.78 70 967.468 70C964.108 70 961.516 72.4 961.516 76.24ZM992.484 88.576C987.54 88.576 983.988 85.024 983.988 78.88V65.2C983.988 64.768 984.276 64.48 984.708 64.48H989.892C990.324 64.48 990.612 64.768 990.612 65.2V77.392C990.612 80.704 992.148 82.48 994.98 82.48C997.764 82.48 999.588 80.704 999.588 77.392V65.2C999.588 64.768 999.876 64.48 1000.31 64.48H1005.44C1005.88 64.48 1006.21 64.768 1006.21 65.2V87.28C1006.21 87.712 1005.88 88 1005.44 88H1000.5C1000.07 88 999.828 87.808 999.78 87.232L999.588 84.448C998.244 86.848 995.988 88.576 992.484 88.576ZM1019.89 88.576C1015.96 88.576 1012.98 86.896 1011.11 84.688C1010.82 84.352 1010.87 83.824 1011.21 83.296L1012.89 80.944C1013.27 80.368 1013.7 80.464 1014.09 80.752C1016.05 82.24 1017.69 83.056 1019.51 83.056C1021.09 83.056 1022.15 82.432 1022.15 81.088C1022.15 79.936 1021.43 79.408 1019.7 78.688L1016.73 77.488C1013.7 76.288 1011.59 74.272 1011.59 71.008C1011.59 66.496 1015.43 63.904 1019.8 63.904C1022.87 63.904 1025.7 65.152 1027.67 67.504C1027.96 67.84 1027.86 68.224 1027.62 68.512L1025.51 71.056C1025.17 71.44 1024.84 71.392 1024.41 71.056C1022.87 69.76 1021.53 69.088 1020.13 69.088C1018.6 69.088 1017.88 69.952 1017.88 70.96C1017.88 72.112 1018.84 72.736 1020.13 73.216L1023.45 74.512C1026.42 75.712 1028.77 77.776 1028.73 81.376C1028.68 86.128 1024.6 88.576 1019.89 88.576ZM474.544 136.576C466.816 136.576 461.632 131.248 461.632 124.144C461.632 117.232 466.48 111.904 473.728 111.904C480.88 111.904 485.008 117.184 485.008 123.136C485.008 125.44 484.48 126.736 482.416 126.736H468.112C468.832 129.712 471.28 131.344 475.072 131.344C476.896 131.344 478.624 131.008 480.544 129.904C480.88 129.712 481.12 129.76 481.36 130.096L483.136 132.544C483.376 132.88 483.328 133.216 482.896 133.6C480.88 135.616 477.856 136.576 474.544 136.576ZM468.016 122.08H479.104C478.72 118.96 476.608 117.376 473.776 117.376C470.848 117.376 468.592 118.96 468.016 122.08ZM490.177 136C489.745 136 489.457 135.712 489.457 135.28V113.2C489.457 112.768 489.745 112.48 490.177 112.48H495.169C495.601 112.48 495.889 112.672 495.889 113.248L496.081 116.032C497.425 113.632 499.681 111.904 503.185 111.904C508.081 111.904 511.681 115.456 511.681 121.6V135.28C511.681 135.712 511.345 136 510.913 136H505.777C505.345 136 505.057 135.712 505.057 135.28V123.088C505.057 119.776 503.521 118 500.689 118C497.905 118 496.081 119.776 496.081 123.088V135.28C496.081 135.712 495.793 136 495.361 136H490.177ZM523.682 136C523.298 136 522.962 135.808 522.818 135.424L514.034 113.296C513.842 112.768 514.082 112.48 514.61 112.48H519.89C520.274 112.48 520.61 112.672 520.754 113.056L526.322 128.368L531.842 113.056C531.986 112.672 532.322 112.48 532.706 112.48H537.986C538.514 112.48 538.754 112.768 538.562 113.296L529.778 135.424C529.634 135.808 529.298 136 528.914 136H523.682ZM546.256 108.304C544.144 108.304 542.56 106.672 542.56 104.608C542.56 102.592 544.144 100.96 546.256 100.96C548.368 100.96 549.904 102.592 549.904 104.608C549.904 106.672 548.368 108.304 546.256 108.304ZM542.896 135.28V113.2C542.896 112.768 543.184 112.48 543.616 112.48H548.848C549.28 112.48 549.568 112.768 549.568 113.2V135.28C549.568 135.712 549.28 136 548.848 136H543.616C543.184 136 542.896 135.712 542.896 135.28ZM556.036 136C555.604 136 555.316 135.712 555.316 135.28V113.2C555.316 112.768 555.604 112.48 556.036 112.48H561.028C561.46 112.48 561.7 112.672 561.748 113.248L561.94 116.272C562.756 113.776 564.244 111.904 567.028 111.904C568.132 111.904 568.804 112.192 569.188 112.48C569.524 112.72 569.62 113.008 569.62 113.44V117.664C569.62 118.24 569.284 118.384 568.66 118.24C568.132 118.096 567.604 118 566.932 118C563.668 118 561.94 120.16 561.94 123.52V135.28C561.94 135.712 561.652 136 561.22 136H556.036ZM584.359 136.576C577.255 136.576 572.023 131.2 572.023 124.24C572.023 117.28 577.255 111.904 584.359 111.904C591.415 111.904 596.647 117.28 596.647 124.24C596.647 131.2 591.415 136.576 584.359 136.576ZM578.407 124.24C578.407 128.08 580.999 130.48 584.359 130.48C587.671 130.48 590.263 128.08 590.263 124.24C590.263 120.4 587.671 118 584.359 118C580.999 118 578.407 120.4 578.407 124.24ZM601.833 136C601.401 136 601.113 135.712 601.113 135.28V113.2C601.113 112.768 601.401 112.48 601.833 112.48H606.825C607.257 112.48 607.545 112.672 607.545 113.248L607.737 116.032C609.081 113.632 611.337 111.904 614.841 111.904C619.737 111.904 623.337 115.456 623.337 121.6V135.28C623.337 135.712 623.001 136 622.569 136H617.433C617.001 136 616.713 135.712 616.713 135.28V123.088C616.713 119.776 615.177 118 612.345 118C609.561 118 607.737 119.776 607.737 123.088V135.28C607.737 135.712 607.449 136 607.017 136H601.833ZM629.724 136C629.292 136 629.004 135.712 629.004 135.28V113.2C629.004 112.768 629.292 112.48 629.724 112.48H634.716C635.148 112.48 635.436 112.672 635.436 113.248L635.58 115.744C636.876 113.536 638.988 111.904 642.204 111.904C645.228 111.904 647.58 113.344 648.876 116.08C650.172 113.68 652.476 111.904 656.124 111.904C661.164 111.904 664.236 115.36 664.236 121.504V135.28C664.236 135.712 663.948 136 663.516 136H658.332C657.9 136 657.612 135.712 657.612 135.28V122.944C657.612 119.728 656.46 118 653.868 118C651.372 118 649.932 119.728 649.932 122.944V135.28C649.932 135.712 649.644 136 649.212 136H644.076C643.596 136 643.308 135.712 643.308 135.28V122.944C643.308 119.728 642.108 118 639.564 118C637.068 118 635.628 119.728 635.628 122.944V135.28C635.628 135.712 635.34 136 634.908 136H629.724ZM681.591 136.576C673.863 136.576 668.679 131.248 668.679 124.144C668.679 117.232 673.527 111.904 680.775 111.904C687.927 111.904 692.055 117.184 692.055 123.136C692.055 125.44 691.527 126.736 689.463 126.736H675.159C675.879 129.712 678.327 131.344 682.119 131.344C683.943 131.344 685.671 131.008 687.591 129.904C687.927 129.712 688.167 129.76 688.407 130.096L690.183 132.544C690.423 132.88 690.375 133.216 689.943 133.6C687.927 135.616 684.903 136.576 681.591 136.576ZM675.063 122.08H686.151C685.767 118.96 683.655 117.376 680.823 117.376C677.895 117.376 675.639 118.96 675.063 122.08ZM697.224 136C696.792 136 696.504 135.712 696.504 135.28V113.2C696.504 112.768 696.792 112.48 697.224 112.48H702.216C702.648 112.48 702.936 112.672 702.936 113.248L703.128 116.032C704.472 113.632 706.728 111.904 710.232 111.904C715.128 111.904 718.728 115.456 718.728 121.6V135.28C718.728 135.712 718.392 136 717.96 136H712.824C712.392 136 712.104 135.712 712.104 135.28V123.088C712.104 119.776 710.568 118 707.736 118C704.952 118 703.128 119.776 703.128 123.088V135.28C703.128 135.712 702.84 136 702.408 136H697.224ZM732.817 136.288C729.073 136.288 725.713 134.56 725.713 129.424V117.616H722.737C722.305 117.616 722.017 117.328 722.017 116.896V113.2C722.017 112.768 722.305 112.48 722.737 112.48H725.713V106.96C725.713 106.528 726.001 106.24 726.433 106.24H731.665C732.097 106.24 732.385 106.528 732.385 106.96V112.48H736.081C736.513 112.48 736.801 112.768 736.801 113.2V116.896C736.801 117.328 736.513 117.616 736.081 117.616H732.385V128.704C732.385 130.096 733.201 130.768 734.449 130.768C734.881 130.768 735.361 130.768 735.937 130.72C736.465 130.672 736.801 130.912 736.801 131.392V134.896C736.801 136 734.401 136.288 732.817 136.288ZM750.785 136.576C744.161 136.576 739.601 131.248 739.601 124.24C739.601 117.28 744.161 111.904 750.785 111.904C754.337 111.904 756.881 113.344 758.465 115.792L758.561 113.2C758.561 112.768 758.849 112.48 759.281 112.48H763.985C764.417 112.48 764.705 112.768 764.705 113.2V135.28C764.705 135.712 764.369 136 763.937 136H759.281C758.849 136 758.561 135.712 758.561 135.28L758.465 132.688C756.833 135.088 754.289 136.576 750.785 136.576ZM746.081 124.24C746.081 128.032 748.673 130.528 752.177 130.528C755.681 130.528 758.129 128.032 758.129 124.24C758.129 120.448 755.681 117.952 752.177 117.952C748.673 117.952 746.081 120.496 746.081 124.24ZM771.146 136C770.714 136 770.426 135.712 770.426 135.28V102.4C770.426 101.968 770.714 101.68 771.146 101.68H776.378C776.81 101.68 777.098 101.968 777.098 102.4V135.28C777.098 135.712 776.81 136 776.378 136H771.146ZM803.408 136.576C796.256 136.576 790.976 131.2 790.976 124.144C790.976 117.184 796.208 111.904 803.264 111.904C807.152 111.904 810.368 113.536 812.384 116.128C812.672 116.464 812.576 116.848 812.288 117.136L809.408 119.968C809.024 120.352 808.496 120.304 808.16 119.968C806.864 118.672 805.472 118 803.552 118C799.808 118 797.36 120.688 797.36 124.144C797.36 127.6 799.808 130.48 803.696 130.48C805.52 130.48 806.912 129.808 808.208 128.512C808.544 128.176 809.072 128.128 809.456 128.512L812.336 131.344C812.624 131.632 812.72 132.016 812.432 132.352C810.416 134.944 807.2 136.576 803.408 136.576ZM817.786 136C817.354 136 817.066 135.712 817.066 135.28V102.4C817.066 101.968 817.354 101.68 817.786 101.68H822.97C823.402 101.68 823.69 101.968 823.69 102.4V116.032C825.034 113.632 827.29 111.904 830.794 111.904C835.69 111.904 839.29 115.456 839.29 121.6V135.28C839.29 135.712 838.954 136 838.522 136H833.386C832.954 136 832.666 135.712 832.666 135.28V123.088C832.666 119.776 831.13 118 828.298 118C825.514 118 823.69 119.776 823.69 123.088V135.28C823.69 135.712 823.402 136 822.97 136H817.786ZM854.941 136.576C848.317 136.576 843.757 131.248 843.757 124.24C843.757 117.28 848.317 111.904 854.941 111.904C858.493 111.904 861.037 113.344 862.621 115.792L862.717 113.2C862.717 112.768 863.005 112.48 863.437 112.48H868.141C868.573 112.48 868.861 112.768 868.861 113.2V135.28C868.861 135.712 868.525 136 868.093 136H863.437C863.005 136 862.717 135.712 862.717 135.28L862.621 132.688C860.989 135.088 858.445 136.576 854.941 136.576ZM850.237 124.24C850.237 128.032 852.829 130.528 856.333 130.528C859.837 130.528 862.285 128.032 862.285 124.24C862.285 120.448 859.837 117.952 856.333 117.952C852.829 117.952 850.237 120.496 850.237 124.24ZM875.302 136C874.87 136 874.582 135.712 874.582 135.28V113.2C874.582 112.768 874.87 112.48 875.302 112.48H880.294C880.726 112.48 880.966 112.672 881.014 113.248L881.206 116.272C882.022 113.776 883.51 111.904 886.294 111.904C887.398 111.904 888.07 112.192 888.454 112.48C888.79 112.72 888.886 113.008 888.886 113.44V117.664C888.886 118.24 888.55 118.384 887.926 118.24C887.398 118.096 886.87 118 886.198 118C882.934 118 881.206 120.16 881.206 123.52V135.28C881.206 135.712 880.918 136 880.486 136H875.302ZM896.553 108.304C894.441 108.304 892.857 106.672 892.857 104.608C892.857 102.592 894.441 100.96 896.553 100.96C898.665 100.96 900.201 102.592 900.201 104.608C900.201 106.672 898.665 108.304 896.553 108.304ZM893.193 135.28V113.2C893.193 112.768 893.48 112.48 893.913 112.48H899.145C899.577 112.48 899.865 112.768 899.865 113.2V135.28C899.865 135.712 899.577 136 899.145 136H893.913C893.48 136 893.193 135.712 893.193 135.28ZM914.505 136.288C910.761 136.288 907.401 134.56 907.401 129.424V117.616H904.425C903.993 117.616 903.705 117.328 903.705 116.896V113.2C903.705 112.768 903.993 112.48 904.425 112.48H907.401V106.96C907.401 106.528 907.689 106.24 908.121 106.24H913.353C913.785 106.24 914.073 106.528 914.073 106.96V112.48H917.769C918.201 112.48 918.489 112.768 918.489 113.2V116.896C918.489 117.328 918.201 117.616 917.769 117.616H914.073V128.704C914.073 130.096 914.889 130.768 916.137 130.768C916.569 130.768 917.049 130.768 917.625 130.72C918.153 130.672 918.489 130.912 918.489 131.392V134.896C918.489 136 916.089 136.288 914.505 136.288ZM926.131 108.304C924.019 108.304 922.435 106.672 922.435 104.608C922.435 102.592 924.019 100.96 926.131 100.96C928.243 100.96 929.779 102.592 929.779 104.608C929.779 106.672 928.243 108.304 926.131 108.304ZM922.771 135.28V113.2C922.771 112.768 923.059 112.48 923.491 112.48H928.723C929.155 112.48 929.443 112.768 929.443 113.2V135.28C929.443 135.712 929.155 136 928.723 136H923.491C923.059 136 922.771 135.712 922.771 135.28ZM946.903 136.576C939.175 136.576 933.991 131.248 933.991 124.144C933.991 117.232 938.839 111.904 946.087 111.904C953.239 111.904 957.367 117.184 957.367 123.136C957.367 125.44 956.839 126.736 954.775 126.736H940.471C941.191 129.712 943.639 131.344 947.431 131.344C949.255 131.344 950.983 131.008 952.903 129.904C953.239 129.712 953.479 129.76 953.719 130.096L955.495 132.544C955.735 132.88 955.687 133.216 955.255 133.6C953.239 135.616 950.215 136.576 946.903 136.576ZM940.375 122.08H951.463C951.079 118.96 948.967 117.376 946.135 117.376C943.207 117.376 940.951 118.96 940.375 122.08ZM969.364 136.576C965.428 136.576 962.452 134.896 960.58 132.688C960.292 132.352 960.34 131.824 960.676 131.296L962.356 128.944C962.74 128.368 963.172 128.464 963.556 128.752C965.524 130.24 967.156 131.056 968.98 131.056C970.564 131.056 971.62 130.432 971.62 129.088C971.62 127.936 970.9 127.408 969.172 126.688L966.196 125.488C963.172 124.288 961.06 122.272 961.06 119.008C961.06 114.496 964.9 111.904 969.268 111.904C972.34 111.904 975.172 113.152 977.14 115.504C977.428 115.84 977.332 116.224 977.092 116.512L974.98 119.056C974.644 119.44 974.308 119.392 973.876 119.056C972.34 117.76 970.996 117.088 969.604 117.088C968.068 117.088 967.348 117.952 967.348 118.96C967.348 120.112 968.308 120.736 969.604 121.216L972.916 122.512C975.892 123.712 978.244 125.776 978.196 129.376C978.148 134.128 974.068 136.576 969.364 136.576Z" fill="white"/>
<defs>
<linearGradient id="paint0_linear_1613_2145" x1="122.583" y1="-9.87903" x2="151.006" y2="182.205" gradientUnits="userSpaceOnUse">
<stop stop-color="#E4C2FF"/>
<stop offset="1" stop-color="#510091"/>
</linearGradient>
</defs>
</svg>
