<svg width="1058" height="582" viewBox="0 0 1058 582" fill="none" xmlns="http://www.w3.org/2000/svg">
<path d="M314.751 300.075C281.521 300.075 258.95 282.52 249.545 266.845C248.291 263.71 248.918 261.516 251.74 259.322L273.997 242.393C277.132 240.199 279.954 241.139 281.835 243.647C288.732 253.052 299.077 260.262 314.124 260.262C337.323 260.262 352.057 243.333 352.057 222.957C352.057 201.639 336.382 186.278 315.065 186.278C304.093 186.278 294.061 190.667 287.164 198.191C285.283 200.385 282.775 201.639 279.327 200.385L255.815 190.98C252.994 189.726 252.053 188.159 252.68 185.338L276.192 80.6314C276.819 78.1235 278.386 76.556 281.208 76.556H375.255C378.077 76.556 379.958 78.437 379.958 81.2584V108.532C379.958 111.354 378.077 113.235 375.255 113.235H308.168L298.763 154.929C305.033 152.734 314.124 149.913 325.41 149.913C365.223 149.913 394.065 181.889 394.065 223.897C394.065 270.294 358.954 300.075 314.751 300.075ZM499.395 300.075C453.312 300.075 411.304 265.905 411.304 187.218C411.304 108.532 453.312 74.0481 499.395 74.0481C545.479 74.0481 587.486 108.532 587.486 187.218C587.486 265.905 545.479 300.075 499.395 300.075ZM453.312 187.218C453.312 229.54 467.106 259.948 499.395 259.948C531.371 259.948 545.479 229.54 545.479 187.218C545.479 144.897 531.371 114.175 499.395 114.175C467.106 114.175 453.312 144.897 453.312 187.218ZM652.8 160.258C628.662 160.258 609.852 141.762 609.852 117.623C609.852 93.4846 628.662 74.9886 652.8 74.9886C676.939 74.9886 695.749 93.4846 695.749 117.623C695.749 141.762 676.939 160.258 652.8 160.258ZM630.856 275.937L761.582 80.3179C763.149 77.81 765.344 77.183 767.852 79.0639L784.153 90.0362C786.975 91.9171 787.288 94.1115 785.721 96.6195L654.995 292.238C653.427 294.746 651.233 295.373 648.725 293.492L632.423 282.52C629.602 280.639 629.289 278.444 630.856 275.937ZM638.38 117.623C638.38 126.088 644.65 132.357 652.8 132.357C660.951 132.357 667.221 126.088 667.221 117.623C667.221 109.159 660.951 102.889 652.8 102.889C644.65 102.889 638.38 109.159 638.38 117.623ZM720.828 254.933C720.828 230.794 739.638 212.298 763.776 212.298C787.915 212.298 806.725 230.794 806.725 254.933C806.725 279.071 787.915 297.567 763.776 297.567C739.638 297.567 720.828 279.071 720.828 254.933ZM749.356 254.933C749.356 263.397 755.626 269.667 763.776 269.667C771.927 269.667 778.197 263.397 778.197 254.933C778.197 246.468 771.927 240.199 763.776 240.199C755.626 240.199 749.356 246.468 749.356 254.933Z" fill="url(#paint0_linear_1613_2374)"/>
<path d="M287.288 407.576C280.184 407.576 274.952 402.2 274.952 395.24C274.952 388.28 280.184 382.904 287.288 382.904C294.344 382.904 299.576 388.28 299.576 395.24C299.576 402.2 294.344 407.576 287.288 407.576ZM281.336 395.24C281.336 399.08 283.928 401.48 287.288 401.48C290.6 401.48 293.192 399.08 293.192 395.24C293.192 391.4 290.6 389 287.288 389C283.928 389 281.336 391.4 281.336 395.24ZM306.358 407C305.926 407 305.638 406.712 305.638 406.28V388.616H302.854C302.422 388.616 302.134 388.328 302.134 387.896V384.2C302.134 383.768 302.422 383.48 302.854 383.48H305.638V379.832C305.638 374.36 308.662 371.912 313.702 371.912C315.046 371.912 316.054 372.008 317.302 372.632C317.59 372.776 317.734 373.064 317.734 373.352V377.72C317.734 378.056 317.446 378.104 317.11 378.056C316.342 377.912 315.718 377.816 315.19 377.816C312.838 377.816 312.31 379.016 312.31 380.744V383.48H317.014C317.446 383.48 317.734 383.768 317.734 384.2V387.896C317.734 388.328 317.446 388.616 317.014 388.616H312.31V406.28C312.31 406.712 312.022 407 311.59 407H306.358ZM341.355 407.576C334.731 407.576 330.171 402.248 330.171 395.24C330.171 388.28 334.731 382.904 341.355 382.904C344.907 382.904 347.451 384.344 349.035 386.792L349.131 384.2C349.131 383.768 349.419 383.48 349.851 383.48H354.555C354.987 383.48 355.275 383.768 355.275 384.2V406.28C355.275 406.712 354.939 407 354.507 407H349.851C349.419 407 349.131 406.712 349.131 406.28L349.035 403.688C347.403 406.088 344.859 407.576 341.355 407.576ZM336.651 395.24C336.651 399.032 339.243 401.528 342.747 401.528C346.251 401.528 348.699 399.032 348.699 395.24C348.699 391.448 346.251 388.952 342.747 388.952C339.243 388.952 336.651 391.496 336.651 395.24ZM361.716 407C361.284 407 360.996 406.712 360.996 406.28V373.4C360.996 372.968 361.284 372.68 361.716 372.68H366.948C367.38 372.68 367.668 372.968 367.668 373.4V406.28C367.668 406.712 367.38 407 366.948 407H361.716ZM374.091 407C373.659 407 373.371 406.712 373.371 406.28V373.4C373.371 372.968 373.659 372.68 374.091 372.68H379.323C379.755 372.68 380.043 372.968 380.043 373.4V406.28C380.043 406.712 379.755 407 379.323 407H374.091ZM395.841 416.12C395.409 416.12 395.121 415.832 395.121 415.4V384.2C395.121 383.768 395.409 383.48 395.841 383.48H400.593C401.025 383.48 401.313 383.768 401.313 384.2L401.409 386.792C402.993 384.344 405.489 382.904 409.089 382.904C415.665 382.904 420.225 388.28 420.225 395.24C420.225 402.248 415.665 407.576 409.089 407.576C405.873 407.576 403.425 406.328 401.793 404.216V415.4C401.793 415.832 401.505 416.12 401.073 416.12H395.841ZM401.697 395.24C401.697 399.032 404.145 401.528 407.697 401.528C411.153 401.528 413.745 399.032 413.745 395.24C413.745 391.496 411.153 388.952 407.697 388.952C404.145 388.952 401.697 391.448 401.697 395.24ZM425.466 407C425.034 407 424.746 406.712 424.746 406.28V384.2C424.746 383.768 425.034 383.48 425.466 383.48H430.458C430.89 383.48 431.13 383.672 431.178 384.248L431.37 387.272C432.186 384.776 433.674 382.904 436.458 382.904C437.562 382.904 438.234 383.192 438.618 383.48C438.954 383.72 439.05 384.008 439.05 384.44V388.664C439.05 389.24 438.714 389.384 438.09 389.24C437.562 389.096 437.034 389 436.362 389C433.098 389 431.37 391.16 431.37 394.52V406.28C431.37 406.712 431.082 407 430.65 407H425.466ZM453.788 407.576C446.684 407.576 441.452 402.2 441.452 395.24C441.452 388.28 446.684 382.904 453.788 382.904C460.844 382.904 466.076 388.28 466.076 395.24C466.076 402.2 460.844 407.576 453.788 407.576ZM447.836 395.24C447.836 399.08 450.428 401.48 453.788 401.48C457.1 401.48 459.692 399.08 459.692 395.24C459.692 391.4 457.1 389 453.788 389C450.428 389 447.836 391.4 447.836 395.24ZM472.858 407C472.426 407 472.138 406.712 472.138 406.28V388.616H469.354C468.922 388.616 468.634 388.328 468.634 387.896V384.2C468.634 383.768 468.922 383.48 469.354 383.48H472.138V379.832C472.138 374.36 475.162 371.912 480.202 371.912C481.546 371.912 482.554 372.008 483.802 372.632C484.09 372.776 484.234 373.064 484.234 373.352V377.72C484.234 378.056 483.946 378.104 483.61 378.056C482.842 377.912 482.218 377.816 481.69 377.816C479.338 377.816 478.81 379.016 478.81 380.744V383.48H483.514C483.946 383.48 484.234 383.768 484.234 384.2V387.896C484.234 388.328 483.946 388.616 483.514 388.616H478.81V406.28C478.81 406.712 478.522 407 478.09 407H472.858ZM491.904 379.304C489.792 379.304 488.208 377.672 488.208 375.608C488.208 373.592 489.792 371.96 491.904 371.96C494.016 371.96 495.552 373.592 495.552 375.608C495.552 377.672 494.016 379.304 491.904 379.304ZM488.544 406.28V384.2C488.544 383.768 488.832 383.48 489.264 383.48H494.496C494.928 383.48 495.216 383.768 495.216 384.2V406.28C495.216 406.712 494.928 407 494.496 407H489.264C488.832 407 488.544 406.712 488.544 406.28ZM509.856 407.288C506.112 407.288 502.752 405.56 502.752 400.424V388.616H499.776C499.344 388.616 499.056 388.328 499.056 387.896V384.2C499.056 383.768 499.344 383.48 499.776 383.48H502.752V377.96C502.752 377.528 503.04 377.24 503.472 377.24H508.704C509.136 377.24 509.424 377.528 509.424 377.96V383.48H513.12C513.552 383.48 513.84 383.768 513.84 384.2V387.896C513.84 388.328 513.552 388.616 513.12 388.616H509.424V399.704C509.424 401.096 510.24 401.768 511.488 401.768C511.92 401.768 512.4 401.768 512.976 401.72C513.504 401.672 513.84 401.912 513.84 402.392V405.896C513.84 407 511.44 407.288 509.856 407.288ZM526.137 407.576C522.201 407.576 519.225 405.896 517.353 403.688C517.065 403.352 517.113 402.824 517.449 402.296L519.129 399.944C519.513 399.368 519.945 399.464 520.329 399.752C522.297 401.24 523.929 402.056 525.753 402.056C527.337 402.056 528.393 401.432 528.393 400.088C528.393 398.936 527.673 398.408 525.945 397.688L522.969 396.488C519.945 395.288 517.833 393.272 517.833 390.008C517.833 385.496 521.673 382.904 526.041 382.904C529.113 382.904 531.945 384.152 533.913 386.504C534.201 386.84 534.105 387.224 533.865 387.512L531.753 390.056C531.417 390.44 531.081 390.392 530.649 390.056C529.113 388.76 527.769 388.088 526.377 388.088C524.841 388.088 524.121 388.952 524.121 389.96C524.121 391.112 525.081 391.736 526.377 392.216L529.689 393.512C532.665 394.712 535.017 396.776 534.969 400.376C534.921 405.128 530.841 407.576 526.137 407.576ZM560.195 407.576C553.091 407.576 547.859 402.2 547.859 395.24C547.859 388.28 553.091 382.904 560.195 382.904C567.251 382.904 572.483 388.28 572.483 395.24C572.483 402.2 567.251 407.576 560.195 407.576ZM554.243 395.24C554.243 399.08 556.835 401.48 560.195 401.48C563.507 401.48 566.099 399.08 566.099 395.24C566.099 391.4 563.507 389 560.195 389C556.835 389 554.243 391.4 554.243 395.24ZM577.669 407C577.237 407 576.949 406.712 576.949 406.28V384.2C576.949 383.768 577.237 383.48 577.669 383.48H582.661C583.093 383.48 583.381 383.672 583.381 384.248L583.573 387.032C584.917 384.632 587.173 382.904 590.677 382.904C595.573 382.904 599.173 386.456 599.173 392.6V406.28C599.173 406.712 598.837 407 598.405 407H593.269C592.837 407 592.549 406.712 592.549 406.28V394.088C592.549 390.776 591.013 389 588.181 389C585.397 389 583.573 390.776 583.573 394.088V406.28C583.573 406.712 583.285 407 582.853 407H577.669ZM625.351 407.576C618.247 407.576 613.015 402.2 613.015 395.24C613.015 388.28 618.247 382.904 625.351 382.904C632.407 382.904 637.639 388.28 637.639 395.24C637.639 402.2 632.407 407.576 625.351 407.576ZM619.399 395.24C619.399 399.08 621.991 401.48 625.351 401.48C628.663 401.48 631.255 399.08 631.255 395.24C631.255 391.4 628.663 389 625.351 389C621.991 389 619.399 391.4 619.399 395.24ZM650.367 407.576C645.423 407.576 641.871 404.024 641.871 397.88V384.2C641.871 383.768 642.159 383.48 642.591 383.48H647.775C648.207 383.48 648.495 383.768 648.495 384.2V396.392C648.495 399.704 650.031 401.48 652.863 401.48C655.647 401.48 657.471 399.704 657.471 396.392V384.2C657.471 383.768 657.759 383.48 658.191 383.48H663.327C663.759 383.48 664.095 383.768 664.095 384.2V406.28C664.095 406.712 663.759 407 663.327 407H658.383C657.951 407 657.711 406.808 657.663 406.232L657.471 403.448C656.127 405.848 653.871 407.576 650.367 407.576ZM670.482 407C670.05 407 669.762 406.712 669.762 406.28V384.2C669.762 383.768 670.05 383.48 670.482 383.48H675.474C675.906 383.48 676.146 383.672 676.194 384.248L676.386 387.272C677.202 384.776 678.69 382.904 681.474 382.904C682.578 382.904 683.25 383.192 683.634 383.48C683.97 383.72 684.066 384.008 684.066 384.44V388.664C684.066 389.24 683.73 389.384 683.106 389.24C682.578 389.096 682.05 389 681.378 389C678.114 389 676.386 391.16 676.386 394.52V406.28C676.386 406.712 676.098 407 675.666 407H670.482ZM705.246 407.576C701.31 407.576 698.334 405.896 696.462 403.688C696.174 403.352 696.222 402.824 696.558 402.296L698.238 399.944C698.622 399.368 699.054 399.464 699.438 399.752C701.406 401.24 703.038 402.056 704.862 402.056C706.446 402.056 707.502 401.432 707.502 400.088C707.502 398.936 706.782 398.408 705.054 397.688L702.078 396.488C699.054 395.288 696.942 393.272 696.942 390.008C696.942 385.496 700.782 382.904 705.15 382.904C708.222 382.904 711.054 384.152 713.022 386.504C713.31 386.84 713.214 387.224 712.974 387.512L710.862 390.056C710.526 390.44 710.19 390.392 709.758 390.056C708.222 388.76 706.878 388.088 705.486 388.088C703.95 388.088 703.23 388.952 703.23 389.96C703.23 391.112 704.19 391.736 705.486 392.216L708.798 393.512C711.774 394.712 714.126 396.776 714.078 400.376C714.03 405.128 709.95 407.576 705.246 407.576ZM722.201 379.304C720.089 379.304 718.505 377.672 718.505 375.608C718.505 373.592 720.089 371.96 722.201 371.96C724.313 371.96 725.849 373.592 725.849 375.608C725.849 377.672 724.313 379.304 722.201 379.304ZM718.841 406.28V384.2C718.841 383.768 719.129 383.48 719.561 383.48H724.793C725.225 383.48 725.513 383.768 725.513 384.2V406.28C725.513 406.712 725.225 407 724.793 407H719.561C719.129 407 718.841 406.712 718.841 406.28ZM741.246 407.576C734.622 407.576 730.062 402.248 730.062 395.24C730.062 388.28 734.622 382.904 741.246 382.904C744.51 382.904 746.91 384.104 748.494 386.216V373.4C748.494 372.968 748.782 372.68 749.214 372.68H754.446C754.878 372.68 755.166 372.968 755.166 373.4V406.28C755.166 406.712 754.83 407 754.398 407H749.742C749.31 407 749.022 406.712 749.022 406.28L748.926 403.688C747.294 406.088 744.75 407.576 741.246 407.576ZM736.542 395.24C736.542 399.032 739.134 401.528 742.638 401.528C746.142 401.528 748.59 399.032 748.59 395.24C748.59 391.448 746.142 388.952 742.638 388.952C739.134 388.952 736.542 391.496 736.542 395.24ZM772.599 407.576C764.871 407.576 759.687 402.248 759.687 395.144C759.687 388.232 764.535 382.904 771.783 382.904C778.935 382.904 783.063 388.184 783.063 394.136C783.063 396.44 782.535 397.736 780.471 397.736H766.167C766.887 400.712 769.335 402.344 773.127 402.344C774.951 402.344 776.679 402.008 778.599 400.904C778.935 400.712 779.175 400.76 779.415 401.096L781.191 403.544C781.431 403.88 781.383 404.216 780.951 404.6C778.935 406.616 775.911 407.576 772.599 407.576ZM766.071 393.08H777.159C776.775 389.96 774.663 388.376 771.831 388.376C768.903 388.376 766.647 389.96 766.071 393.08ZM253.391 455C253.007 455 252.671 454.808 252.527 454.424L245.135 432.296C244.943 431.768 245.183 431.48 245.711 431.48H250.751C251.135 431.48 251.471 431.672 251.615 432.056L256.319 447.32L261.455 432.056C261.599 431.672 261.935 431.48 262.319 431.48H267.359C267.743 431.48 268.079 431.672 268.223 432.056L273.311 447.32L278.015 432.056C278.159 431.672 278.543 431.48 278.927 431.48H283.919C284.447 431.48 284.687 431.768 284.495 432.296L277.151 454.424C277.007 454.808 276.671 455 276.287 455H270.959C270.575 455 270.239 454.808 270.095 454.424L264.815 439.16L259.583 454.424C259.439 454.808 259.103 455 258.719 455H253.391ZM292.217 427.304C290.105 427.304 288.521 425.672 288.521 423.608C288.521 421.592 290.105 419.96 292.217 419.96C294.329 419.96 295.865 421.592 295.865 423.608C295.865 425.672 294.329 427.304 292.217 427.304ZM288.857 454.28V432.2C288.857 431.768 289.145 431.48 289.577 431.48H294.809C295.241 431.48 295.529 431.768 295.529 432.2V454.28C295.529 454.712 295.241 455 294.809 455H289.577C289.145 455 288.857 454.712 288.857 454.28ZM301.997 455C301.565 455 301.277 454.712 301.277 454.28V421.4C301.277 420.968 301.565 420.68 301.997 420.68H307.229C307.661 420.68 307.949 420.968 307.949 421.4V454.28C307.949 454.712 307.661 455 307.229 455H301.997ZM314.372 455C313.94 455 313.652 454.712 313.652 454.28V421.4C313.652 420.968 313.94 420.68 314.372 420.68H319.604C320.036 420.68 320.324 420.968 320.324 421.4V454.28C320.324 454.712 320.036 455 319.604 455H314.372ZM349.37 455.576C345.818 455.576 343.322 454.088 341.69 451.688L341.594 454.28C341.594 454.712 341.306 455 340.874 455H336.17C335.738 455 335.402 454.712 335.402 454.28V421.4C335.402 420.968 335.69 420.68 336.122 420.68H341.354C341.786 420.68 342.074 420.968 342.074 421.4V434.216C343.658 432.104 346.106 430.904 349.37 430.904C355.946 430.904 360.506 436.28 360.506 443.24C360.506 450.248 355.946 455.576 349.37 455.576ZM341.978 443.24C341.978 447.032 344.426 449.528 347.978 449.528C351.434 449.528 354.026 447.032 354.026 443.24C354.026 439.496 351.434 436.952 347.978 436.952C344.426 436.952 341.978 439.448 341.978 443.24ZM376.739 455.576C369.011 455.576 363.827 450.248 363.827 443.144C363.827 436.232 368.675 430.904 375.923 430.904C383.075 430.904 387.203 436.184 387.203 442.136C387.203 444.44 386.675 445.736 384.611 445.736H370.307C371.027 448.712 373.475 450.344 377.267 450.344C379.091 450.344 380.819 450.008 382.739 448.904C383.075 448.712 383.315 448.76 383.555 449.096L385.331 451.544C385.571 451.88 385.523 452.216 385.091 452.6C383.075 454.616 380.051 455.576 376.739 455.576ZM370.211 441.08H381.299C380.915 437.96 378.803 436.376 375.971 436.376C373.043 436.376 370.787 437.96 370.211 441.08ZM411.011 455.576C404.387 455.576 399.827 450.248 399.827 443.24C399.827 436.28 404.387 430.904 411.011 430.904C414.275 430.904 416.675 432.104 418.259 434.216V421.4C418.259 420.968 418.547 420.68 418.979 420.68H424.211C424.643 420.68 424.931 420.968 424.931 421.4V454.28C424.931 454.712 424.595 455 424.163 455H419.507C419.075 455 418.787 454.712 418.787 454.28L418.691 451.688C417.059 454.088 414.515 455.576 411.011 455.576ZM406.307 443.24C406.307 447.032 408.899 449.528 412.403 449.528C415.907 449.528 418.355 447.032 418.355 443.24C418.355 439.448 415.907 436.952 412.403 436.952C408.899 436.952 406.307 439.496 406.307 443.24ZM441.788 455.576C434.684 455.576 429.452 450.2 429.452 443.24C429.452 436.28 434.684 430.904 441.788 430.904C448.844 430.904 454.076 436.28 454.076 443.24C454.076 450.2 448.844 455.576 441.788 455.576ZM435.836 443.24C435.836 447.08 438.428 449.48 441.788 449.48C445.1 449.48 447.692 447.08 447.692 443.24C447.692 439.4 445.1 437 441.788 437C438.428 437 435.836 439.4 435.836 443.24ZM459.263 455C458.831 455 458.543 454.712 458.543 454.28V432.2C458.543 431.768 458.831 431.48 459.263 431.48H464.255C464.687 431.48 464.975 431.672 464.975 432.248L465.167 435.032C466.511 432.632 468.767 430.904 472.271 430.904C477.167 430.904 480.767 434.456 480.767 440.6V454.28C480.767 454.712 480.431 455 479.999 455H474.863C474.431 455 474.143 454.712 474.143 454.28V442.088C474.143 438.776 472.607 437 469.775 437C466.991 437 465.167 438.776 465.167 442.088V454.28C465.167 454.712 464.879 455 464.447 455H459.263ZM496.418 455.576C489.794 455.576 485.234 450.248 485.234 443.24C485.234 436.28 489.794 430.904 496.418 430.904C499.97 430.904 502.514 432.344 504.098 434.792L504.194 432.2C504.194 431.768 504.482 431.48 504.914 431.48H509.618C510.05 431.48 510.338 431.768 510.338 432.2V454.28C510.338 454.712 510.002 455 509.57 455H504.914C504.482 455 504.194 454.712 504.194 454.28L504.098 451.688C502.466 454.088 499.922 455.576 496.418 455.576ZM491.714 443.24C491.714 447.032 494.306 449.528 497.81 449.528C501.314 449.528 503.762 447.032 503.762 443.24C503.762 439.448 501.314 436.952 497.81 436.952C494.306 436.952 491.714 439.496 491.714 443.24ZM525.419 455.288C521.675 455.288 518.315 453.56 518.315 448.424V436.616H515.339C514.907 436.616 514.619 436.328 514.619 435.896V432.2C514.619 431.768 514.907 431.48 515.339 431.48H518.315V425.96C518.315 425.528 518.603 425.24 519.035 425.24H524.267C524.699 425.24 524.987 425.528 524.987 425.96V431.48H528.683C529.115 431.48 529.403 431.768 529.403 432.2V435.896C529.403 436.328 529.115 436.616 528.683 436.616H524.987V447.704C524.987 449.096 525.803 449.768 527.051 449.768C527.483 449.768 527.963 449.768 528.539 449.72C529.067 449.672 529.403 449.912 529.403 450.392V453.896C529.403 455 527.003 455.288 525.419 455.288ZM545.114 455.576C537.386 455.576 532.202 450.248 532.202 443.144C532.202 436.232 537.05 430.904 544.298 430.904C551.45 430.904 555.578 436.184 555.578 442.136C555.578 444.44 555.05 445.736 552.986 445.736H538.682C539.402 448.712 541.85 450.344 545.642 450.344C547.466 450.344 549.194 450.008 551.114 448.904C551.45 448.712 551.69 448.76 551.93 449.096L553.706 451.544C553.946 451.88 553.898 452.216 553.466 452.6C551.45 454.616 548.426 455.576 545.114 455.576ZM538.586 441.08H549.674C549.29 437.96 547.178 436.376 544.346 436.376C541.418 436.376 539.162 437.96 538.586 441.08ZM570.011 455.576C563.387 455.576 558.827 450.248 558.827 443.24C558.827 436.28 563.387 430.904 570.011 430.904C573.275 430.904 575.675 432.104 577.259 434.216V421.4C577.259 420.968 577.547 420.68 577.979 420.68H583.211C583.643 420.68 583.931 420.968 583.931 421.4V454.28C583.931 454.712 583.595 455 583.163 455H578.507C578.075 455 577.787 454.712 577.787 454.28L577.691 451.688C576.059 454.088 573.515 455.576 570.011 455.576ZM565.307 443.24C565.307 447.032 567.899 449.528 571.403 449.528C574.907 449.528 577.355 447.032 577.355 443.24C577.355 439.448 574.907 436.952 571.403 436.952C567.899 436.952 565.307 439.496 565.307 443.24ZM608.387 455.288C604.643 455.288 601.283 453.56 601.283 448.424V436.616H598.307C597.875 436.616 597.587 436.328 597.587 435.896V432.2C597.587 431.768 597.875 431.48 598.307 431.48H601.283V425.96C601.283 425.528 601.571 425.24 602.003 425.24H607.235C607.667 425.24 607.955 425.528 607.955 425.96V431.48H611.651C612.083 431.48 612.371 431.768 612.371 432.2V435.896C612.371 436.328 612.083 436.616 611.651 436.616H607.955V447.704C607.955 449.096 608.771 449.768 610.019 449.768C610.451 449.768 610.931 449.768 611.507 449.72C612.035 449.672 612.371 449.912 612.371 450.392V453.896C612.371 455 609.971 455.288 608.387 455.288ZM627.507 455.576C620.403 455.576 615.171 450.2 615.171 443.24C615.171 436.28 620.403 430.904 627.507 430.904C634.563 430.904 639.795 436.28 639.795 443.24C639.795 450.2 634.563 455.576 627.507 455.576ZM621.555 443.24C621.555 447.08 624.147 449.48 627.507 449.48C630.819 449.48 633.411 447.08 633.411 443.24C633.411 439.4 630.819 437 627.507 437C624.147 437 621.555 439.4 621.555 443.24ZM661.893 455C661.509 455 661.173 454.808 661.029 454.424L652.245 432.296C652.053 431.768 652.293 431.48 652.821 431.48H658.101C658.485 431.48 658.821 431.672 658.965 432.056L664.533 447.368L670.053 432.056C670.197 431.672 670.533 431.48 670.917 431.48H676.197C676.725 431.48 676.965 431.768 676.773 432.296L667.989 454.424C667.845 454.808 667.509 455 667.125 455H661.893ZM689.355 455.576C682.731 455.576 678.171 450.248 678.171 443.24C678.171 436.28 682.731 430.904 689.355 430.904C692.907 430.904 695.451 432.344 697.035 434.792L697.131 432.2C697.131 431.768 697.419 431.48 697.851 431.48H702.555C702.987 431.48 703.275 431.768 703.275 432.2V454.28C703.275 454.712 702.939 455 702.507 455H697.851C697.419 455 697.131 454.712 697.131 454.28L697.035 451.688C695.403 454.088 692.859 455.576 689.355 455.576ZM684.651 443.24C684.651 447.032 687.243 449.528 690.747 449.528C694.251 449.528 696.699 447.032 696.699 443.24C696.699 439.448 694.251 436.952 690.747 436.952C687.243 436.952 684.651 439.496 684.651 443.24ZM709.716 455C709.284 455 708.996 454.712 708.996 454.28V432.2C708.996 431.768 709.284 431.48 709.716 431.48H714.708C715.14 431.48 715.38 431.672 715.428 432.248L715.62 435.272C716.436 432.776 717.924 430.904 720.708 430.904C721.812 430.904 722.484 431.192 722.868 431.48C723.204 431.72 723.3 432.008 723.3 432.44V436.664C723.3 437.24 722.964 437.384 722.34 437.24C721.812 437.096 721.284 437 720.612 437C717.348 437 715.62 439.16 715.62 442.52V454.28C715.62 454.712 715.332 455 714.9 455H709.716ZM730.967 427.304C728.855 427.304 727.271 425.672 727.271 423.608C727.271 421.592 728.855 419.96 730.967 419.96C733.079 419.96 734.615 421.592 734.615 423.608C734.615 425.672 733.079 427.304 730.967 427.304ZM727.607 454.28V432.2C727.607 431.768 727.895 431.48 728.327 431.48H733.559C733.991 431.48 734.279 431.768 734.279 432.2V454.28C734.279 454.712 733.991 455 733.559 455H728.327C727.895 455 727.607 454.712 727.607 454.28ZM751.163 455.576C744.059 455.576 738.827 450.2 738.827 443.24C738.827 436.28 744.059 430.904 751.163 430.904C758.219 430.904 763.451 436.28 763.451 443.24C763.451 450.2 758.219 455.576 751.163 455.576ZM745.211 443.24C745.211 447.08 747.803 449.48 751.163 449.48C754.475 449.48 757.067 447.08 757.067 443.24C757.067 439.4 754.475 437 751.163 437C747.803 437 745.211 439.4 745.211 443.24ZM776.18 455.576C771.236 455.576 767.684 452.024 767.684 445.88V432.2C767.684 431.768 767.972 431.48 768.404 431.48H773.588C774.02 431.48 774.308 431.768 774.308 432.2V444.392C774.308 447.704 775.844 449.48 778.676 449.48C781.46 449.48 783.284 447.704 783.284 444.392V432.2C783.284 431.768 783.572 431.48 784.004 431.48H789.14C789.572 431.48 789.908 431.768 789.908 432.2V454.28C789.908 454.712 789.572 455 789.14 455H784.196C783.764 455 783.524 454.808 783.476 454.232L783.284 451.448C781.94 453.848 779.684 455.576 776.18 455.576ZM803.59 455.576C799.654 455.576 796.678 453.896 794.806 451.688C794.518 451.352 794.566 450.824 794.902 450.296L796.582 447.944C796.966 447.368 797.398 447.464 797.782 447.752C799.75 449.24 801.382 450.056 803.206 450.056C804.79 450.056 805.846 449.432 805.846 448.088C805.846 446.936 805.126 446.408 803.398 445.688L800.422 444.488C797.398 443.288 795.286 441.272 795.286 438.008C795.286 433.496 799.126 430.904 803.494 430.904C806.566 430.904 809.398 432.152 811.366 434.504C811.654 434.84 811.558 435.224 811.318 435.512L809.206 438.056C808.87 438.44 808.534 438.392 808.102 438.056C806.566 436.76 805.222 436.088 803.83 436.088C802.294 436.088 801.574 436.952 801.574 437.96C801.574 439.112 802.534 439.736 803.83 440.216L807.142 441.512C810.118 442.712 812.47 444.776 812.422 448.376C812.374 453.128 808.294 455.576 803.59 455.576ZM283.505 503.576C275.777 503.576 270.593 498.248 270.593 491.144C270.593 484.232 275.441 478.904 282.689 478.904C289.841 478.904 293.969 484.184 293.969 490.136C293.969 492.44 293.441 493.736 291.377 493.736H277.073C277.793 496.712 280.241 498.344 284.033 498.344C285.857 498.344 287.585 498.008 289.505 496.904C289.841 496.712 290.081 496.76 290.321 497.096L292.097 499.544C292.337 499.88 292.289 500.216 291.857 500.6C289.841 502.616 286.817 503.576 283.505 503.576ZM276.977 489.08H288.065C287.681 485.96 285.569 484.376 282.737 484.376C279.809 484.376 277.553 485.96 276.977 489.08ZM299.138 503C298.706 503 298.418 502.712 298.418 502.28V480.2C298.418 479.768 298.706 479.48 299.138 479.48H304.13C304.562 479.48 304.85 479.672 304.85 480.248L305.042 483.032C306.386 480.632 308.642 478.904 312.146 478.904C317.042 478.904 320.642 482.456 320.642 488.6V502.28C320.642 502.712 320.306 503 319.874 503H314.738C314.306 503 314.018 502.712 314.018 502.28V490.088C314.018 486.776 312.482 485 309.65 485C306.866 485 305.042 486.776 305.042 490.088V502.28C305.042 502.712 304.754 503 304.322 503H299.138ZM332.643 503C332.259 503 331.923 502.808 331.779 502.424L322.995 480.296C322.803 479.768 323.043 479.48 323.571 479.48H328.851C329.235 479.48 329.571 479.672 329.715 480.056L335.283 495.368L340.803 480.056C340.947 479.672 341.283 479.48 341.667 479.48H346.947C347.475 479.48 347.715 479.768 347.523 480.296L338.739 502.424C338.595 502.808 338.259 503 337.875 503H332.643ZM355.217 475.304C353.105 475.304 351.521 473.672 351.521 471.608C351.521 469.592 353.105 467.96 355.217 467.96C357.329 467.96 358.865 469.592 358.865 471.608C358.865 473.672 357.329 475.304 355.217 475.304ZM351.857 502.28V480.2C351.857 479.768 352.145 479.48 352.577 479.48H357.809C358.241 479.48 358.529 479.768 358.529 480.2V502.28C358.529 502.712 358.241 503 357.809 503H352.577C352.145 503 351.857 502.712 351.857 502.28ZM364.997 503C364.565 503 364.277 502.712 364.277 502.28V480.2C364.277 479.768 364.565 479.48 364.997 479.48H369.989C370.421 479.48 370.661 479.672 370.709 480.248L370.901 483.272C371.717 480.776 373.205 478.904 375.989 478.904C377.093 478.904 377.765 479.192 378.149 479.48C378.485 479.72 378.581 480.008 378.581 480.44V484.664C378.581 485.24 378.245 485.384 377.621 485.24C377.093 485.096 376.565 485 375.893 485C372.629 485 370.901 487.16 370.901 490.52V502.28C370.901 502.712 370.613 503 370.181 503H364.997ZM393.32 503.576C386.216 503.576 380.984 498.2 380.984 491.24C380.984 484.28 386.216 478.904 393.32 478.904C400.376 478.904 405.608 484.28 405.608 491.24C405.608 498.2 400.376 503.576 393.32 503.576ZM387.368 491.24C387.368 495.08 389.96 497.48 393.32 497.48C396.632 497.48 399.224 495.08 399.224 491.24C399.224 487.4 396.632 485 393.32 485C389.96 485 387.368 487.4 387.368 491.24ZM410.794 503C410.362 503 410.074 502.712 410.074 502.28V480.2C410.074 479.768 410.362 479.48 410.794 479.48H415.786C416.218 479.48 416.506 479.672 416.506 480.248L416.698 483.032C418.042 480.632 420.298 478.904 423.802 478.904C428.698 478.904 432.298 482.456 432.298 488.6V502.28C432.298 502.712 431.962 503 431.53 503H426.394C425.962 503 425.674 502.712 425.674 502.28V490.088C425.674 486.776 424.138 485 421.306 485C418.522 485 416.698 486.776 416.698 490.088V502.28C416.698 502.712 416.41 503 415.978 503H410.794ZM438.685 503C438.253 503 437.965 502.712 437.965 502.28V480.2C437.965 479.768 438.253 479.48 438.685 479.48H443.677C444.109 479.48 444.397 479.672 444.397 480.248L444.541 482.744C445.837 480.536 447.949 478.904 451.165 478.904C454.189 478.904 456.541 480.344 457.837 483.08C459.133 480.68 461.437 478.904 465.085 478.904C470.125 478.904 473.197 482.36 473.197 488.504V502.28C473.197 502.712 472.909 503 472.477 503H467.293C466.861 503 466.573 502.712 466.573 502.28V489.944C466.573 486.728 465.421 485 462.829 485C460.333 485 458.893 486.728 458.893 489.944V502.28C458.893 502.712 458.605 503 458.173 503H453.037C452.557 503 452.269 502.712 452.269 502.28V489.944C452.269 486.728 451.069 485 448.525 485C446.029 485 444.589 486.728 444.589 489.944V502.28C444.589 502.712 444.301 503 443.869 503H438.685ZM490.552 503.576C482.824 503.576 477.64 498.248 477.64 491.144C477.64 484.232 482.488 478.904 489.736 478.904C496.888 478.904 501.016 484.184 501.016 490.136C501.016 492.44 500.488 493.736 498.424 493.736H484.12C484.84 496.712 487.288 498.344 491.08 498.344C492.904 498.344 494.632 498.008 496.552 496.904C496.888 496.712 497.128 496.76 497.368 497.096L499.144 499.544C499.384 499.88 499.336 500.216 498.904 500.6C496.888 502.616 493.864 503.576 490.552 503.576ZM484.024 489.08H495.112C494.728 485.96 492.616 484.376 489.784 484.376C486.856 484.376 484.6 485.96 484.024 489.08ZM506.185 503C505.753 503 505.465 502.712 505.465 502.28V480.2C505.465 479.768 505.753 479.48 506.185 479.48H511.177C511.609 479.48 511.897 479.672 511.897 480.248L512.089 483.032C513.433 480.632 515.689 478.904 519.193 478.904C524.089 478.904 527.689 482.456 527.689 488.6V502.28C527.689 502.712 527.353 503 526.921 503H521.785C521.353 503 521.065 502.712 521.065 502.28V490.088C521.065 486.776 519.529 485 516.697 485C513.913 485 512.089 486.776 512.089 490.088V502.28C512.089 502.712 511.801 503 511.369 503H506.185ZM541.778 503.288C538.034 503.288 534.674 501.56 534.674 496.424V484.616H531.698C531.266 484.616 530.978 484.328 530.978 483.896V480.2C530.978 479.768 531.266 479.48 531.698 479.48H534.674V473.96C534.674 473.528 534.962 473.24 535.394 473.24H540.626C541.058 473.24 541.346 473.528 541.346 473.96V479.48H545.042C545.474 479.48 545.762 479.768 545.762 480.2V483.896C545.762 484.328 545.474 484.616 545.042 484.616H541.346V495.704C541.346 497.096 542.162 497.768 543.41 497.768C543.842 497.768 544.322 497.768 544.898 497.72C545.426 497.672 545.762 497.912 545.762 498.392V501.896C545.762 503 543.362 503.288 541.778 503.288ZM559.746 503.576C553.122 503.576 548.562 498.248 548.562 491.24C548.562 484.28 553.122 478.904 559.746 478.904C563.298 478.904 565.842 480.344 567.426 482.792L567.522 480.2C567.522 479.768 567.81 479.48 568.242 479.48H572.946C573.378 479.48 573.666 479.768 573.666 480.2V502.28C573.666 502.712 573.33 503 572.898 503H568.242C567.81 503 567.522 502.712 567.522 502.28L567.426 499.688C565.794 502.088 563.25 503.576 559.746 503.576ZM555.042 491.24C555.042 495.032 557.634 497.528 561.138 497.528C564.642 497.528 567.09 495.032 567.09 491.24C567.09 487.448 564.642 484.952 561.138 484.952C557.634 484.952 555.042 487.496 555.042 491.24ZM580.107 503C579.675 503 579.387 502.712 579.387 502.28V469.4C579.387 468.968 579.675 468.68 580.107 468.68H585.339C585.771 468.68 586.059 468.968 586.059 469.4V502.28C586.059 502.712 585.771 503 585.339 503H580.107ZM612.369 503.576C605.217 503.576 599.937 498.2 599.937 491.144C599.937 484.184 605.169 478.904 612.225 478.904C616.113 478.904 619.329 480.536 621.345 483.128C621.633 483.464 621.537 483.848 621.249 484.136L618.369 486.968C617.985 487.352 617.457 487.304 617.121 486.968C615.825 485.672 614.433 485 612.513 485C608.769 485 606.321 487.688 606.321 491.144C606.321 494.6 608.769 497.48 612.657 497.48C614.481 497.48 615.873 496.808 617.169 495.512C617.505 495.176 618.033 495.128 618.417 495.512L621.297 498.344C621.585 498.632 621.681 499.016 621.393 499.352C619.377 501.944 616.161 503.576 612.369 503.576ZM626.747 503C626.315 503 626.027 502.712 626.027 502.28V469.4C626.027 468.968 626.315 468.68 626.747 468.68H631.931C632.363 468.68 632.651 468.968 632.651 469.4V483.032C633.995 480.632 636.251 478.904 639.755 478.904C644.651 478.904 648.251 482.456 648.251 488.6V502.28C648.251 502.712 647.915 503 647.483 503H642.347C641.915 503 641.627 502.712 641.627 502.28V490.088C641.627 486.776 640.091 485 637.259 485C634.475 485 632.651 486.776 632.651 490.088V502.28C632.651 502.712 632.363 503 631.931 503H626.747ZM663.902 503.576C657.278 503.576 652.718 498.248 652.718 491.24C652.718 484.28 657.278 478.904 663.902 478.904C667.454 478.904 669.998 480.344 671.582 482.792L671.678 480.2C671.678 479.768 671.966 479.48 672.398 479.48H677.102C677.534 479.48 677.822 479.768 677.822 480.2V502.28C677.822 502.712 677.486 503 677.054 503H672.398C671.966 503 671.678 502.712 671.678 502.28L671.582 499.688C669.95 502.088 667.406 503.576 663.902 503.576ZM659.198 491.24C659.198 495.032 661.79 497.528 665.294 497.528C668.798 497.528 671.246 495.032 671.246 491.24C671.246 487.448 668.798 484.952 665.294 484.952C661.79 484.952 659.198 487.496 659.198 491.24ZM684.263 503C683.831 503 683.543 502.712 683.543 502.28V480.2C683.543 479.768 683.831 479.48 684.263 479.48H689.255C689.687 479.48 689.927 479.672 689.975 480.248L690.167 483.272C690.983 480.776 692.471 478.904 695.255 478.904C696.359 478.904 697.031 479.192 697.415 479.48C697.751 479.72 697.847 480.008 697.847 480.44V484.664C697.847 485.24 697.511 485.384 696.887 485.24C696.359 485.096 695.831 485 695.159 485C691.895 485 690.167 487.16 690.167 490.52V502.28C690.167 502.712 689.879 503 689.447 503H684.263ZM705.513 475.304C703.401 475.304 701.817 473.672 701.817 471.608C701.817 469.592 703.401 467.96 705.513 467.96C707.625 467.96 709.161 469.592 709.161 471.608C709.161 473.672 707.625 475.304 705.513 475.304ZM702.153 502.28V480.2C702.153 479.768 702.441 479.48 702.873 479.48H708.105C708.537 479.48 708.825 479.768 708.825 480.2V502.28C708.825 502.712 708.537 503 708.105 503H702.873C702.441 503 702.153 502.712 702.153 502.28ZM723.465 503.288C719.721 503.288 716.361 501.56 716.361 496.424V484.616H713.385C712.953 484.616 712.665 484.328 712.665 483.896V480.2C712.665 479.768 712.953 479.48 713.385 479.48H716.361V473.96C716.361 473.528 716.649 473.24 717.081 473.24H722.313C722.745 473.24 723.033 473.528 723.033 473.96V479.48H726.729C727.161 479.48 727.449 479.768 727.449 480.2V483.896C727.449 484.328 727.161 484.616 726.729 484.616H723.033V495.704C723.033 497.096 723.849 497.768 725.097 497.768C725.529 497.768 726.009 497.768 726.585 497.72C727.113 497.672 727.449 497.912 727.449 498.392V501.896C727.449 503 725.049 503.288 723.465 503.288ZM735.092 475.304C732.98 475.304 731.396 473.672 731.396 471.608C731.396 469.592 732.98 467.96 735.092 467.96C737.204 467.96 738.74 469.592 738.74 471.608C738.74 473.672 737.204 475.304 735.092 475.304ZM731.732 502.28V480.2C731.732 479.768 732.02 479.48 732.452 479.48H737.684C738.116 479.48 738.404 479.768 738.404 480.2V502.28C738.404 502.712 738.116 503 737.684 503H732.452C732.02 503 731.732 502.712 731.732 502.28ZM755.864 503.576C748.136 503.576 742.952 498.248 742.952 491.144C742.952 484.232 747.8 478.904 755.048 478.904C762.2 478.904 766.328 484.184 766.328 490.136C766.328 492.44 765.8 493.736 763.736 493.736H749.432C750.152 496.712 752.6 498.344 756.392 498.344C758.216 498.344 759.944 498.008 761.864 496.904C762.2 496.712 762.44 496.76 762.68 497.096L764.456 499.544C764.696 499.88 764.648 500.216 764.216 500.6C762.2 502.616 759.176 503.576 755.864 503.576ZM749.336 489.08H760.424C760.04 485.96 757.928 484.376 755.096 484.376C752.168 484.376 749.912 485.96 749.336 489.08ZM778.325 503.576C774.389 503.576 771.413 501.896 769.541 499.688C769.253 499.352 769.301 498.824 769.637 498.296L771.317 495.944C771.701 495.368 772.133 495.464 772.517 495.752C774.485 497.24 776.117 498.056 777.941 498.056C779.525 498.056 780.581 497.432 780.581 496.088C780.581 494.936 779.861 494.408 778.133 493.688L775.157 492.488C772.133 491.288 770.021 489.272 770.021 486.008C770.021 481.496 773.861 478.904 778.229 478.904C781.301 478.904 784.133 480.152 786.101 482.504C786.389 482.84 786.293 483.224 786.053 483.512L783.941 486.056C783.605 486.44 783.269 486.392 782.837 486.056C781.301 484.76 779.957 484.088 778.565 484.088C777.029 484.088 776.309 484.952 776.309 485.96C776.309 487.112 777.269 487.736 778.565 488.216L781.877 489.512C784.853 490.712 787.205 492.776 787.157 496.376C787.109 501.128 783.029 503.576 778.325 503.576Z" fill="white"/>
<defs>
<linearGradient id="paint0_linear_1613_2374" x1="348.472" y1="59.5721" x2="389.607" y2="337.562" gradientUnits="userSpaceOnUse">
<stop stop-color="#E4C2FF"/>
<stop offset="1" stop-color="#510091"/>
</linearGradient>
</defs>
</svg>
