<svg width="251" height="49" viewBox="0 0 251 49" fill="none" xmlns="http://www.w3.org/2000/svg">
<rect width="251" height="49" rx="24.5" fill="#2081E2"/>
<g clip-path="url(#clip0_1613_2168)">
<path d="M22.6344 25.0878L22.7099 24.9691L27.2623 17.8475C27.3288 17.7432 27.4852 17.754 27.5355 17.8673C28.2961 19.5717 28.9523 21.6915 28.6449 23.0112C28.5136 23.5541 28.154 24.2895 27.7495 24.9691C27.6974 25.068 27.6398 25.1651 27.5787 25.2586C27.5499 25.3017 27.5014 25.3269 27.4492 25.3269H22.7674C22.6416 25.3269 22.5678 25.1903 22.6344 25.0878Z" fill="white"/>
<path d="M42.9248 26.4111V27.5384C42.9248 27.6031 42.8853 27.6606 42.8278 27.6858C42.4754 27.8368 41.269 28.3906 40.7673 29.0882C39.4872 30.87 38.5091 33.4176 36.3228 33.4176H27.2019C23.9692 33.4176 21.3496 30.7891 21.3496 27.5456V27.4413C21.3496 27.355 21.4197 27.2849 21.506 27.2849H26.5906C26.6913 27.2849 26.765 27.3784 26.756 27.4772C26.72 27.8081 26.7812 28.1461 26.9376 28.4535C27.2396 29.0666 27.8653 29.4496 28.5413 29.4496H31.0585V27.4845H28.5701C28.4425 27.4845 28.367 27.337 28.4407 27.2327C28.4676 27.1914 28.4982 27.1482 28.5306 27.0997C28.7661 26.7653 29.1023 26.2457 29.4367 25.6542C29.6651 25.255 29.8862 24.8289 30.0642 24.401C30.1002 24.3237 30.1289 24.2445 30.1577 24.1672C30.2062 24.0306 30.2566 23.9029 30.2925 23.7753C30.3285 23.6674 30.3573 23.5541 30.386 23.4481C30.4706 23.0849 30.5065 22.7001 30.5065 22.301C30.5065 22.1446 30.4993 21.981 30.4849 21.8245C30.4777 21.6537 30.4562 21.4829 30.4346 21.3121C30.4202 21.1611 30.3932 21.0119 30.3645 20.8554C30.3285 20.6271 30.2782 20.4006 30.2206 20.1722L30.2008 20.0859C30.1577 19.9295 30.1217 19.7803 30.0714 19.6239C29.9294 19.133 29.7658 18.6548 29.5931 18.2071C29.5302 18.0291 29.4583 17.8583 29.3864 17.6875C29.2803 17.4304 29.1724 17.1967 29.0735 16.9755C29.0232 16.8748 28.9801 16.7831 28.9369 16.6896C28.8884 16.5835 28.838 16.4775 28.7877 16.3768C28.7517 16.2995 28.7104 16.2276 28.6816 16.1556L28.3742 15.5875C28.331 15.5102 28.4029 15.4185 28.4874 15.4419L30.4112 15.9632H30.4166C30.4202 15.9632 30.422 15.9651 30.4238 15.9651L30.6773 16.0352L30.956 16.1143L31.0585 16.143V14.9996C31.0585 14.4476 31.5008 13.9999 32.0473 13.9999C32.3206 13.9999 32.5687 14.1114 32.7467 14.293C32.9247 14.4746 33.0362 14.7227 33.0362 14.9996V16.6968L33.2412 16.7543C33.2574 16.7598 33.2735 16.7669 33.2879 16.7777C33.3383 16.8155 33.4102 16.8712 33.5019 16.9396C33.5738 16.9971 33.6511 17.0672 33.7446 17.1391C33.9298 17.2883 34.1509 17.4807 34.3936 17.7019C34.4584 17.7576 34.5213 17.8151 34.5788 17.8727C34.8917 18.1639 35.2423 18.5055 35.5767 18.8831C35.6702 18.9892 35.7619 19.0971 35.8554 19.2103C35.9488 19.3254 36.0478 19.4387 36.134 19.552C36.2473 19.703 36.3696 19.8594 36.4757 20.023C36.526 20.1003 36.5835 20.1794 36.6321 20.2567C36.7687 20.4635 36.8892 20.6775 37.0043 20.8914C37.0528 20.9903 37.1031 21.0982 37.1463 21.2042C37.2739 21.4901 37.3746 21.7814 37.4393 22.0727C37.4591 22.1356 37.4735 22.2039 37.4807 22.265V22.2794C37.5023 22.3657 37.5095 22.4574 37.5167 22.5509C37.5454 22.8494 37.531 23.1478 37.4663 23.4481C37.4393 23.5757 37.4034 23.6962 37.3602 23.8239C37.3171 23.9461 37.2739 24.0737 37.2182 24.1942C37.1103 24.4441 36.9827 24.694 36.8316 24.9278C36.7831 25.0141 36.7256 25.1058 36.668 25.1921C36.6051 25.2838 36.5404 25.3701 36.4828 25.4546C36.4037 25.5625 36.3192 25.6757 36.2329 25.7764C36.1556 25.8825 36.0765 25.9886 35.9902 26.0821C35.8698 26.2241 35.7547 26.3589 35.6342 26.4884C35.5623 26.5729 35.485 26.6592 35.4059 26.7365C35.3286 26.8228 35.2495 26.9001 35.1775 26.972C35.0571 27.0925 34.9564 27.186 34.8719 27.2633L34.6741 27.4449C34.6454 27.4701 34.6076 27.4845 34.5681 27.4845H33.0362V29.4496H34.9636C35.3951 29.4496 35.805 29.2968 36.1359 29.0163C36.2491 28.9174 36.7435 28.4895 37.3279 27.844C37.3476 27.8224 37.3728 27.8063 37.4016 27.7991L42.7253 26.2601C42.8242 26.2313 42.9248 26.3068 42.9248 26.4111Z" fill="white"/>
</g>
<path d="M66.0599 32.312C61.2119 32.312 57.3479 28.592 57.3479 23.672C57.3479 18.752 61.2119 15.008 65.9879 15.008C68.4119 15.008 70.3799 15.896 71.8439 17.384C72.0359 17.576 72.0359 17.768 71.8439 18.008L70.2359 19.712C70.0679 19.904 69.8759 19.904 69.7079 19.76C68.6999 18.92 67.4999 18.368 66.0119 18.368C63.0599 18.368 60.8279 20.624 60.8279 23.672C60.8279 26.72 63.0599 28.952 66.1799 28.952C68.8199 28.952 70.3799 27.392 70.4519 25.496H66.1799C65.9639 25.496 65.8199 25.352 65.8199 25.136V22.808C65.8199 22.592 65.9639 22.448 66.1799 22.448H73.4279C73.6439 22.448 73.7879 22.592 73.7879 22.808V24.368C73.7879 28.76 70.8839 32.312 66.0599 32.312ZM81.7954 32.288C77.9314 32.288 75.3394 29.624 75.3394 26.072C75.3394 22.616 77.7634 19.952 81.3874 19.952C84.9634 19.952 87.0274 22.592 87.0274 25.568C87.0274 26.72 86.7634 27.368 85.7314 27.368H78.5794C78.9394 28.856 80.1634 29.672 82.0594 29.672C82.9714 29.672 83.8354 29.504 84.7954 28.952C84.9634 28.856 85.0834 28.88 85.2034 29.048L86.0914 30.272C86.2114 30.44 86.1874 30.608 85.9714 30.8C84.9634 31.808 83.4514 32.288 81.7954 32.288ZM78.5314 25.04H84.0754C83.8834 23.48 82.8274 22.688 81.4114 22.688C79.9474 22.688 78.8194 23.48 78.5314 25.04ZM93.6976 32.144C91.8256 32.144 90.1456 31.28 90.1456 28.712V22.808H88.6576C88.4416 22.808 88.2976 22.664 88.2976 22.448V20.6C88.2976 20.384 88.4416 20.24 88.6576 20.24H90.1456V17.48C90.1456 17.264 90.2896 17.12 90.5056 17.12H93.1216C93.3376 17.12 93.4816 17.264 93.4816 17.48V20.24H95.3296C95.5456 20.24 95.6896 20.384 95.6896 20.6V22.448C95.6896 22.664 95.5456 22.808 95.3296 22.808H93.4816V28.352C93.4816 29.048 93.8896 29.384 94.5136 29.384C94.7296 29.384 94.9696 29.384 95.2576 29.36C95.5216 29.336 95.6896 29.456 95.6896 29.696V31.448C95.6896 32 94.4896 32.144 93.6976 32.144ZM108.062 32.288C104.51 32.288 101.894 29.6 101.894 26.12C101.894 22.64 104.51 19.952 108.062 19.952C111.59 19.952 114.206 22.64 114.206 26.12C114.206 29.6 111.59 32.288 108.062 32.288ZM105.086 26.12C105.086 28.04 106.382 29.24 108.062 29.24C109.718 29.24 111.014 28.04 111.014 26.12C111.014 24.2 109.718 23 108.062 23C106.382 23 105.086 24.2 105.086 26.12ZM116.799 32C116.583 32 116.439 31.856 116.439 31.64V20.6C116.439 20.384 116.583 20.24 116.799 20.24H119.295C119.511 20.24 119.655 20.336 119.655 20.624L119.751 22.016C120.423 20.816 121.551 19.952 123.303 19.952C125.751 19.952 127.551 21.728 127.551 24.8V31.64C127.551 31.856 127.383 32 127.167 32H124.599C124.383 32 124.239 31.856 124.239 31.64V25.544C124.239 23.888 123.471 23 122.055 23C120.663 23 119.751 23.888 119.751 25.544V31.64C119.751 31.856 119.607 32 119.391 32H116.799ZM143.472 32.312C138.696 32.312 134.832 28.52 134.832 23.672C134.832 18.8 138.696 15.008 143.472 15.008C148.248 15.008 152.112 18.8 152.112 23.672C152.112 28.52 148.248 32.312 143.472 32.312ZM138.312 23.672C138.312 26.672 140.544 28.952 143.472 28.952C146.424 28.952 148.632 26.672 148.632 23.672C148.632 20.648 146.424 18.368 143.472 18.368C140.544 18.368 138.312 20.648 138.312 23.672ZM155.096 36.56C154.88 36.56 154.736 36.416 154.736 36.2V20.6C154.736 20.384 154.88 20.24 155.096 20.24H157.472C157.688 20.24 157.832 20.384 157.832 20.6L157.88 21.896C158.672 20.672 159.92 19.952 161.72 19.952C165.008 19.952 167.288 22.64 167.288 26.12C167.288 29.624 165.008 32.288 161.72 32.288C160.112 32.288 158.888 31.664 158.072 30.608V36.2C158.072 36.416 157.928 36.56 157.712 36.56H155.096ZM158.024 26.12C158.024 28.016 159.248 29.264 161.024 29.264C162.752 29.264 164.048 28.016 164.048 26.12C164.048 24.248 162.752 22.976 161.024 22.976C159.248 22.976 158.024 24.224 158.024 26.12ZM175.405 32.288C171.541 32.288 168.949 29.624 168.949 26.072C168.949 22.616 171.373 19.952 174.997 19.952C178.573 19.952 180.637 22.592 180.637 25.568C180.637 26.72 180.373 27.368 179.341 27.368H172.189C172.549 28.856 173.773 29.672 175.669 29.672C176.581 29.672 177.445 29.504 178.405 28.952C178.573 28.856 178.693 28.88 178.813 29.048L179.701 30.272C179.821 30.44 179.797 30.608 179.581 30.8C178.573 31.808 177.061 32.288 175.405 32.288ZM172.141 25.04H177.685C177.493 23.48 176.437 22.688 175.021 22.688C173.557 22.688 172.429 23.48 172.141 25.04ZM183.221 32C183.005 32 182.861 31.856 182.861 31.64V20.6C182.861 20.384 183.005 20.24 183.221 20.24H185.717C185.933 20.24 186.077 20.336 186.077 20.624L186.173 22.016C186.845 20.816 187.973 19.952 189.725 19.952C192.173 19.952 193.973 21.728 193.973 24.8V31.64C193.973 31.856 193.805 32 193.589 32H191.021C190.805 32 190.661 31.856 190.661 31.64V25.544C190.661 23.888 189.893 23 188.477 23C187.085 23 186.173 23.888 186.173 25.544V31.64C186.173 31.856 186.029 32 185.813 32H183.221ZM202.015 32.288C199.399 32.288 197.551 31.016 196.567 29.672C196.447 29.504 196.447 29.336 196.615 29.144L198.007 27.536C198.175 27.344 198.367 27.32 198.559 27.488C199.615 28.568 200.575 29.144 201.943 29.144C203.359 29.144 204.295 28.544 204.295 27.344C204.295 26.216 203.455 25.808 202.279 25.28L200.239 24.32C198.463 23.504 196.879 22.232 196.879 19.736C196.879 16.688 199.207 15.008 202.063 15.008C204.055 15.008 205.663 15.8 206.983 17.216C207.151 17.384 207.151 17.576 207.007 17.768L205.639 19.424C205.495 19.616 205.303 19.664 205.111 19.52C204.079 18.608 203.239 18.152 202.183 18.152C200.959 18.152 200.191 18.752 200.191 19.76C200.191 20.744 200.863 21.128 202.159 21.728L203.887 22.52C205.711 23.384 207.631 24.512 207.631 27.344C207.631 30.728 204.871 32.288 202.015 32.288ZM215.975 32.288C212.111 32.288 209.519 29.624 209.519 26.072C209.519 22.616 211.943 19.952 215.567 19.952C219.143 19.952 221.207 22.592 221.207 25.568C221.207 26.72 220.943 27.368 219.911 27.368H212.759C213.119 28.856 214.343 29.672 216.239 29.672C217.151 29.672 218.015 29.504 218.975 28.952C219.143 28.856 219.263 28.88 219.383 29.048L220.271 30.272C220.391 30.44 220.367 30.608 220.151 30.8C219.143 31.808 217.631 32.288 215.975 32.288ZM212.711 25.04H218.255C218.063 23.48 217.007 22.688 215.591 22.688C214.127 22.688 212.999 23.48 212.711 25.04ZM228.424 32.288C225.112 32.288 222.832 29.624 222.832 26.12C222.832 22.64 225.112 19.952 228.424 19.952C230.2 19.952 231.472 20.672 232.264 21.896L232.312 20.6C232.312 20.384 232.456 20.24 232.672 20.24H235.024C235.24 20.24 235.384 20.384 235.384 20.6V31.64C235.384 31.856 235.216 32 235 32H232.672C232.456 32 232.312 31.856 232.312 31.64L232.264 30.344C231.448 31.544 230.176 32.288 228.424 32.288ZM226.072 26.12C226.072 28.016 227.368 29.264 229.12 29.264C230.872 29.264 232.096 28.016 232.096 26.12C232.096 24.224 230.872 22.976 229.12 22.976C227.368 22.976 226.072 24.248 226.072 26.12Z" fill="white"/>
<defs>
<clipPath id="clip0_1613_2168">
<rect x="14" y="7" width="35" height="35" rx="17.5" fill="white"/>
</clipPath>
</defs>
</svg>
