<svg width="180" height="59" viewBox="0 0 180 59" fill="none" xmlns="http://www.w3.org/2000/svg">
<rect width="180" height="59" rx="21" fill="white"/>
<path d="M32.2504 37C32.0344 37 31.8904 36.856 31.8904 36.64V20.56C31.8904 20.344 32.0344 20.2 32.2504 20.2H35.3944C35.5864 20.2 35.7304 20.272 35.8024 20.44L40.8184 33.04L45.8344 20.44C45.9064 20.272 46.0504 20.2 46.2424 20.2H49.3864C49.6024 20.2 49.7464 20.344 49.7464 20.56V36.64C49.7464 36.856 49.6024 37 49.3864 37H46.6744C46.4584 37 46.3144 36.856 46.3144 36.64V26.608L42.4504 36.712C42.3784 36.904 42.2104 37 42.0184 37H39.6184C39.4264 37 39.2584 36.904 39.1864 36.712L35.3224 26.608V36.64C35.3224 36.856 35.1784 37 34.9624 37H32.2504ZM58.6704 37.288C54.8064 37.288 52.2144 34.624 52.2144 31.072C52.2144 27.616 54.6384 24.952 58.2624 24.952C61.8384 24.952 63.9024 27.592 63.9024 30.568C63.9024 31.72 63.6384 32.368 62.6064 32.368H55.4544C55.8144 33.856 57.0384 34.672 58.9344 34.672C59.8464 34.672 60.7104 34.504 61.6704 33.952C61.8384 33.856 61.9584 33.88 62.0784 34.048L62.9664 35.272C63.0864 35.44 63.0624 35.608 62.8464 35.8C61.8384 36.808 60.3264 37.288 58.6704 37.288ZM55.4064 30.04H60.9504C60.7584 28.48 59.7024 27.688 58.2864 27.688C56.8224 27.688 55.6944 28.48 55.4064 30.04ZM71.9829 37.288C68.1189 37.288 65.5269 34.624 65.5269 31.072C65.5269 27.616 67.9509 24.952 71.5749 24.952C75.1509 24.952 77.2149 27.592 77.2149 30.568C77.2149 31.72 76.9509 32.368 75.9189 32.368H68.7669C69.1269 33.856 70.3509 34.672 72.2469 34.672C73.1589 34.672 74.0229 34.504 74.9829 33.952C75.1509 33.856 75.2709 33.88 75.3909 34.048L76.2789 35.272C76.3989 35.44 76.3749 35.608 76.1589 35.8C75.1509 36.808 73.6389 37.288 71.9829 37.288ZM68.7189 30.04H74.2629C74.0709 28.48 73.0149 27.688 71.5989 27.688C70.1349 27.688 69.0069 28.48 68.7189 30.04ZM83.8851 37.144C82.0131 37.144 80.3331 36.28 80.3331 33.712V27.808H78.8451C78.6291 27.808 78.4851 27.664 78.4851 27.448V25.6C78.4851 25.384 78.6291 25.24 78.8451 25.24H80.3331V22.48C80.3331 22.264 80.4771 22.12 80.6931 22.12H83.3091C83.5251 22.12 83.6691 22.264 83.6691 22.48V25.24H85.5171C85.7331 25.24 85.8771 25.384 85.8771 25.6V27.448C85.8771 27.664 85.7331 27.808 85.5171 27.808H83.6691V33.352C83.6691 34.048 84.0771 34.384 84.7011 34.384C84.9171 34.384 85.1571 34.384 85.4451 34.36C85.7091 34.336 85.8771 34.456 85.8771 34.696V36.448C85.8771 37 84.6771 37.144 83.8851 37.144ZM93.2816 37C93.0656 37 92.9216 36.856 92.9216 36.64V20.56C92.9216 20.344 93.0656 20.2 93.2816 20.2H95.9936C96.2096 20.2 96.3536 20.344 96.3536 20.56V33.952H101.49C101.706 33.952 101.85 34.096 101.85 34.312V36.64C101.85 36.856 101.706 37 101.49 37H93.2816ZM108.227 37.288C105.755 37.288 103.979 35.512 103.979 32.44V25.6C103.979 25.384 104.123 25.24 104.339 25.24H106.931C107.147 25.24 107.291 25.384 107.291 25.6V31.696C107.291 33.352 108.059 34.24 109.475 34.24C110.867 34.24 111.779 33.352 111.779 31.696V25.6C111.779 25.384 111.923 25.24 112.139 25.24H114.707C114.923 25.24 115.091 25.384 115.091 25.6V36.64C115.091 36.856 114.923 37 114.707 37H112.235C112.019 37 111.899 36.904 111.875 36.616L111.779 35.224C111.107 36.424 109.979 37.288 108.227 37.288ZM118.284 37C118.068 37 117.924 36.856 117.924 36.64V25.6C117.924 25.384 118.068 25.24 118.284 25.24H120.78C120.996 25.24 121.14 25.336 121.14 25.624L121.212 26.872C121.86 25.768 122.916 24.952 124.524 24.952C126.036 24.952 127.212 25.672 127.86 27.04C128.508 25.84 129.66 24.952 131.484 24.952C134.004 24.952 135.54 26.68 135.54 29.752V36.64C135.54 36.856 135.396 37 135.18 37H132.588C132.372 37 132.228 36.856 132.228 36.64V30.472C132.228 28.864 131.652 28 130.356 28C129.108 28 128.388 28.864 128.388 30.472V36.64C128.388 36.856 128.244 37 128.028 37H125.46C125.22 37 125.076 36.856 125.076 36.64V30.472C125.076 28.864 124.476 28 123.204 28C121.956 28 121.236 28.864 121.236 30.472V36.64C121.236 36.856 121.092 37 120.876 37H118.284ZM140.065 23.152C139.009 23.152 138.217 22.336 138.217 21.304C138.217 20.296 139.009 19.48 140.065 19.48C141.121 19.48 141.889 20.296 141.889 21.304C141.889 22.336 141.121 23.152 140.065 23.152ZM138.385 36.64V25.6C138.385 25.384 138.529 25.24 138.745 25.24H141.361C141.577 25.24 141.721 25.384 141.721 25.6V36.64C141.721 36.856 141.577 37 141.361 37H138.745C138.529 37 138.385 36.856 138.385 36.64ZM145.508 31.84C145.292 31.84 145.148 31.696 145.148 31.48L144.788 20.56C144.788 20.344 144.932 20.2 145.148 20.2H147.812C148.028 20.2 148.172 20.344 148.172 20.56L147.788 31.48C147.788 31.696 147.692 31.84 147.428 31.84H145.508ZM144.5 35.344C144.5 34.24 145.364 33.328 146.468 33.328C147.572 33.328 148.46 34.24 148.46 35.344C148.46 36.424 147.572 37.312 146.468 37.312C145.364 37.312 144.5 36.424 144.5 35.344Z" fill="#434343"/>
</svg>
