<svg width="35" height="35" viewBox="0 0 35 35" fill="none" xmlns="http://www.w3.org/2000/svg">
<rect width="35" height="35" rx="17.5" fill="#36086B"/>
<path d="M29 11.1307C28.1906 11.4922 27.3206 11.7364 26.4077 11.8463C27.3395 11.2839 28.0553 10.3934 28.3922 9.33224C27.5201 9.85307 26.5541 10.2312 25.526 10.4349C24.7027 9.55173 23.5297 9 22.2315 9C19.7389 9 17.7178 11.0345 17.7178 13.544C17.7178 13.9001 17.7578 14.247 17.8348 14.5796C14.0835 14.3901 10.7578 12.581 8.53161 9.8317C8.14309 10.5028 7.92044 11.2833 7.92044 12.1162C7.92044 13.6927 8.71729 15.0836 9.92839 15.8984C9.18853 15.8749 8.49256 15.6704 7.88403 15.3301C7.88352 15.349 7.88352 15.3681 7.88352 15.3872C7.88352 17.5889 9.43937 19.4253 11.5042 19.8431C11.1254 19.947 10.7267 20.0024 10.3151 20.0024C10.0242 20.0024 9.74154 19.9739 9.46588 19.9209C10.0403 21.7262 11.7071 23.04 13.6823 23.0765C12.1376 24.2954 10.1914 25.0219 8.07668 25.0219C7.71236 25.0219 7.3531 25.0003 7 24.9583C8.99749 26.2477 11.37 27 13.9189 27C22.2209 27 26.761 20.0759 26.761 14.0708C26.761 13.8738 26.7566 13.6779 26.7479 13.4829C27.6297 12.8423 28.3949 12.0421 29 11.1307Z" fill="white"/>
</svg>
