<svg width="35" height="35" viewBox="0 0 35 35" fill="none" xmlns="http://www.w3.org/2000/svg">
<rect width="35" height="35" rx="17.5" fill="white"/>
<path d="M17.5359 8.84378C20.3016 8.84378 20.6967 8.84378 21.7503 8.84378C22.8039 8.84378 23.3307 9.10718 23.7258 9.23888C24.2525 9.37058 24.5159 9.63398 24.911 10.0291C25.3061 10.4242 25.5695 10.6876 25.7012 11.2144C25.8329 11.6095 25.9646 12.1363 26.0963 13.1898C26.0963 14.2434 26.0963 14.6385 26.0963 17.4042C26.0963 20.1699 26.0963 20.565 26.0963 21.6186C26.0963 22.6722 25.8329 23.199 25.7012 23.5941C25.5695 24.1208 25.3061 24.3842 24.911 24.7793C24.5159 25.1744 24.2525 25.4378 23.7258 25.5695C23.3307 25.7012 22.8039 25.8329 21.7503 25.9646C20.6967 25.9646 20.3016 25.9646 17.5359 25.9646C14.7702 25.9646 14.3751 25.9646 13.3215 25.9646C12.268 25.9646 11.7412 25.7012 11.3461 25.5695C10.8193 25.4378 10.5559 25.1744 10.1608 24.7793C9.76568 24.3842 9.50228 24.1208 9.37058 23.5941C9.23888 23.199 9.10718 22.6722 8.97548 21.6186C8.97548 20.565 8.97548 20.1699 8.97548 17.4042C8.97548 14.6385 8.97548 14.2434 8.97548 13.1898C8.97548 12.1363 9.23888 11.6095 9.37058 11.2144C9.50228 10.6876 9.76568 10.4242 10.1608 10.0291C10.5559 9.63398 10.8193 9.37058 11.3461 9.23888C11.7412 9.10718 12.268 8.97548 13.3215 8.84378C14.3751 8.84378 14.7702 8.84378 17.5359 8.84378ZM17.5359 7C14.6385 7 14.3751 7 13.1898 7C12.0046 7 11.3461 7.2634 10.6876 7.5268C10.0291 7.79019 9.37058 8.18529 8.84378 8.71208C8.18529 9.37058 7.79019 9.89737 7.5268 10.6876C7.2634 11.3461 7.1317 12.1363 7 13.1898C7 14.3751 7 14.6385 7 17.5359C7 20.4333 7 20.6967 7 21.882C7 23.0673 7.2634 23.7258 7.5268 24.3842C7.79019 25.0427 8.18529 25.7012 8.71209 26.228C9.23888 26.7548 9.89737 27.1499 10.5559 27.4133C11.2144 27.6767 12.0046 27.8084 13.0581 27.9401C14.2434 27.9401 14.5068 27.9401 17.4042 27.9401C20.3016 27.9401 20.565 27.9401 21.7503 27.9401C22.9356 27.9401 23.5941 27.6767 24.2525 27.4133C24.911 27.1499 25.5695 26.7548 26.0963 26.228C26.6231 25.7012 27.0182 25.0427 27.2816 24.3842C27.545 23.7258 27.6767 22.9356 27.8084 21.882C27.8084 20.6967 27.8084 20.4333 27.8084 17.5359C27.8084 14.6385 27.8084 14.3751 27.8084 13.1898C27.8084 12.0046 27.545 11.3461 27.2816 10.6876C27.0182 10.0291 26.6231 9.37058 26.0963 8.84378C25.5695 8.31699 24.911 7.92189 24.2525 7.65849C23.5941 7.3951 22.8039 7.2634 21.7503 7.1317C20.6967 7 20.4333 7 17.5359 7Z" fill="#36086B"/>
<path d="M17.5364 12.1363C14.5073 12.1363 12.1367 14.5069 12.1367 17.5359C12.1367 20.565 14.5073 22.9356 17.5364 22.9356C20.5654 22.9356 22.936 20.565 22.936 17.5359C22.936 14.5069 20.5654 12.1363 17.5364 12.1363ZM17.5364 21.0918C15.5609 21.0918 13.9805 19.5114 13.9805 17.5359C13.9805 15.5605 15.5609 13.9801 17.5364 13.9801C19.5119 13.9801 21.0922 15.5605 21.0922 17.5359C21.0922 19.5114 19.5119 21.0918 17.5364 21.0918Z" fill="#36086B"/>
<path d="M24.384 11.8728C24.384 12.5313 23.8572 13.1898 23.067 13.1898C22.2768 13.1898 21.75 12.663 21.75 11.8728C21.75 11.0826 22.2768 10.5558 23.067 10.5558C23.8572 10.5558 24.384 11.2143 24.384 11.8728Z" fill="#36086B"/>
</svg>
