<svg width="1058" height="689" viewBox="0 0 1058 689" fill="none" xmlns="http://www.w3.org/2000/svg">
<path d="M180.346 396.647C126.151 396.647 89.34 368.015 74.0019 342.452C71.9568 337.339 72.9794 333.76 77.5808 330.181L113.881 302.573C118.994 298.994 123.595 300.528 126.663 304.618C137.911 319.956 154.783 331.715 179.323 331.715C217.157 331.715 241.187 304.107 241.187 270.874C241.187 236.108 215.624 211.056 180.857 211.056C162.963 211.056 146.602 218.213 135.354 230.484C132.287 234.063 128.197 236.108 122.573 234.063L84.2273 218.725C79.6259 216.68 78.0921 214.123 79.1146 209.522L117.46 38.7577C118.482 34.6675 121.039 32.1112 125.64 32.1112H279.021C283.622 32.1112 286.69 35.1788 286.69 39.7802V84.2607C286.69 88.8621 283.622 91.9298 279.021 91.9298H169.609L154.271 159.929C164.497 156.35 179.323 151.748 197.729 151.748C262.66 151.748 309.697 203.898 309.697 272.408C309.697 348.076 252.435 396.647 180.346 396.647ZM481.48 396.647C406.323 396.647 337.813 340.918 337.813 212.589C337.813 84.2607 406.323 28.021 481.48 28.021C556.637 28.021 625.147 84.2607 625.147 212.589C625.147 340.918 556.637 396.647 481.48 396.647ZM406.323 212.589C406.323 281.611 428.819 331.204 481.48 331.204C533.629 331.204 556.637 281.611 556.637 212.589C556.637 143.568 533.629 93.4635 481.48 93.4635C428.819 93.4635 406.323 143.568 406.323 212.589ZM731.667 168.62C692.299 168.62 661.623 138.455 661.623 99.0875C661.623 59.7198 692.299 29.5548 731.667 29.5548C771.034 29.5548 801.71 59.7198 801.71 99.0875C801.71 138.455 771.034 168.62 731.667 168.62ZM695.878 357.279L909.077 38.2464C911.633 34.1563 915.212 33.1337 919.303 36.2013L945.889 54.0958C950.49 57.1634 951.001 60.7423 948.445 64.8324L735.245 383.865C732.689 387.955 729.11 388.977 725.02 385.91L698.434 368.015C693.833 364.948 693.321 361.369 695.878 357.279ZM708.148 99.0875C708.148 112.892 718.374 123.117 731.667 123.117C744.96 123.117 755.185 112.892 755.185 99.0875C755.185 85.2832 744.96 75.0578 731.667 75.0578C718.374 75.0578 708.148 85.2832 708.148 99.0875ZM842.612 323.024C842.612 283.656 873.288 253.491 912.656 253.491C952.024 253.491 982.7 283.656 982.7 323.024C982.7 362.391 952.024 392.556 912.656 392.556C873.288 392.556 842.612 362.391 842.612 323.024ZM889.138 323.024C889.138 336.828 899.363 347.053 912.656 347.053C925.949 347.053 936.174 336.828 936.174 323.024C936.174 309.219 925.949 298.994 912.656 298.994C899.363 298.994 889.138 309.219 889.138 323.024Z" fill="url(#paint0_linear_1613_2374)"/>
<path d="M167.741 527.862C157.109 527.862 149.278 519.816 149.278 509.399C149.278 498.983 157.109 490.937 167.741 490.937C178.301 490.937 186.132 498.983 186.132 509.399C186.132 519.816 178.301 527.862 167.741 527.862ZM158.833 509.399C158.833 515.146 162.712 518.738 167.741 518.738C172.698 518.738 176.577 515.146 176.577 509.399C176.577 503.652 172.698 500.06 167.741 500.06C162.712 500.06 158.833 503.652 158.833 509.399ZM196.282 527C195.635 527 195.204 526.569 195.204 525.922V499.485H191.038C190.391 499.485 189.96 499.054 189.96 498.408V492.876C189.96 492.23 190.391 491.799 191.038 491.799H195.204V486.339C195.204 478.149 199.73 474.485 207.273 474.485C209.285 474.485 210.793 474.629 212.661 475.563C213.092 475.778 213.308 476.209 213.308 476.641V483.178C213.308 483.681 212.877 483.753 212.374 483.681C211.225 483.465 210.291 483.322 209.5 483.322C205.98 483.322 205.19 485.118 205.19 487.704V491.799H212.23C212.877 491.799 213.308 492.23 213.308 492.876V498.408C213.308 499.054 212.877 499.485 212.23 499.485H205.19V525.922C205.19 526.569 204.759 527 204.112 527H196.282ZM248.66 527.862C238.746 527.862 231.922 519.888 231.922 509.399C231.922 498.983 238.746 490.937 248.66 490.937C253.976 490.937 257.784 493.092 260.155 496.756L260.298 492.876C260.298 492.23 260.729 491.799 261.376 491.799H268.416C269.063 491.799 269.494 492.23 269.494 492.876V525.922C269.494 526.569 268.991 527 268.344 527H261.376C260.729 527 260.298 526.569 260.298 525.922L260.155 522.043C257.712 525.635 253.904 527.862 248.66 527.862ZM241.62 509.399C241.62 515.075 245.499 518.81 250.744 518.81C255.988 518.81 259.652 515.075 259.652 509.399C259.652 503.724 255.988 499.988 250.744 499.988C245.499 499.988 241.62 503.796 241.62 509.399ZM279.134 527C278.487 527 278.056 526.569 278.056 525.922V476.712C278.056 476.066 278.487 475.635 279.134 475.635H286.964C287.611 475.635 288.042 476.066 288.042 476.712V525.922C288.042 526.569 287.611 527 286.964 527H279.134ZM297.655 527C297.008 527 296.577 526.569 296.577 525.922V476.712C296.577 476.066 297.008 475.635 297.655 475.635H305.485C306.132 475.635 306.563 476.066 306.563 476.712V525.922C306.563 526.569 306.132 527 305.485 527H297.655ZM330.207 540.649C329.56 540.649 329.129 540.218 329.129 539.572V492.876C329.129 492.23 329.56 491.799 330.207 491.799H337.319C337.966 491.799 338.397 492.23 338.397 492.876L338.54 496.756C340.911 493.092 344.647 490.937 350.035 490.937C359.877 490.937 366.701 498.983 366.701 509.399C366.701 519.888 359.877 527.862 350.035 527.862C345.221 527.862 341.558 525.994 339.115 522.833V539.572C339.115 540.218 338.684 540.649 338.037 540.649H330.207ZM338.971 509.399C338.971 515.075 342.635 518.81 347.951 518.81C353.124 518.81 357.003 515.075 357.003 509.399C357.003 503.796 353.124 499.988 347.951 499.988C342.635 499.988 338.971 503.724 338.971 509.399ZM374.545 527C373.899 527 373.468 526.569 373.468 525.922V492.876C373.468 492.23 373.899 491.799 374.545 491.799H382.017C382.663 491.799 383.022 492.086 383.094 492.948L383.382 497.474C384.603 493.738 386.83 490.937 390.997 490.937C392.649 490.937 393.655 491.368 394.229 491.799C394.732 492.158 394.876 492.589 394.876 493.235V499.557C394.876 500.419 394.373 500.635 393.439 500.419C392.649 500.204 391.859 500.06 390.853 500.06C385.968 500.06 383.382 503.293 383.382 508.322V525.922C383.382 526.569 382.951 527 382.304 527H374.545ZM416.934 527.862C406.302 527.862 398.471 519.816 398.471 509.399C398.471 498.983 406.302 490.937 416.934 490.937C427.494 490.937 435.325 498.983 435.325 509.399C435.325 519.816 427.494 527.862 416.934 527.862ZM408.026 509.399C408.026 515.146 411.905 518.738 416.934 518.738C421.891 518.738 425.77 515.146 425.77 509.399C425.77 503.652 421.891 500.06 416.934 500.06C411.905 500.06 408.026 503.652 408.026 509.399ZM445.475 527C444.828 527 444.397 526.569 444.397 525.922V499.485H440.231C439.584 499.485 439.153 499.054 439.153 498.408V492.876C439.153 492.23 439.584 491.799 440.231 491.799H444.397V486.339C444.397 478.149 448.923 474.485 456.466 474.485C458.478 474.485 459.987 474.629 461.854 475.563C462.285 475.778 462.501 476.209 462.501 476.641V483.178C462.501 483.681 462.07 483.753 461.567 483.681C460.418 483.465 459.484 483.322 458.694 483.322C455.173 483.322 454.383 485.118 454.383 487.704V491.799H461.423C462.07 491.799 462.501 492.23 462.501 492.876V498.408C462.501 499.054 462.07 499.485 461.423 499.485H454.383V525.922C454.383 526.569 453.952 527 453.306 527H445.475ZM473.98 485.549C470.819 485.549 468.449 483.106 468.449 480.017C468.449 477 470.819 474.557 473.98 474.557C477.141 474.557 479.44 477 479.44 480.017C479.44 483.106 477.141 485.549 473.98 485.549ZM468.951 525.922V492.876C468.951 492.23 469.382 491.799 470.029 491.799H477.859C478.506 491.799 478.937 492.23 478.937 492.876V525.922C478.937 526.569 478.506 527 477.859 527H470.029C469.382 527 468.951 526.569 468.951 525.922ZM500.848 527.431C495.245 527.431 490.216 524.845 490.216 517.158V499.485H485.762C485.115 499.485 484.684 499.054 484.684 498.408V492.876C484.684 492.23 485.115 491.799 485.762 491.799H490.216V483.537C490.216 482.891 490.647 482.46 491.293 482.46H499.124C499.771 482.46 500.202 482.891 500.202 483.537V491.799H505.733C506.38 491.799 506.811 492.23 506.811 492.876V498.408C506.811 499.054 506.38 499.485 505.733 499.485H500.202V516.08C500.202 518.164 501.423 519.169 503.291 519.169C503.937 519.169 504.656 519.169 505.518 519.098C506.308 519.026 506.811 519.385 506.811 520.103V525.348C506.811 527 503.219 527.431 500.848 527.431ZM525.215 527.862C519.324 527.862 514.87 525.348 512.069 522.043C511.638 521.54 511.709 520.75 512.212 519.96L514.727 516.44C515.301 515.578 515.948 515.721 516.523 516.152C519.468 518.379 521.911 519.601 524.64 519.601C527.011 519.601 528.592 518.667 528.592 516.655C528.592 514.931 527.514 514.141 524.928 513.063L520.474 511.267C515.948 509.471 512.787 506.454 512.787 501.569C512.787 494.816 518.534 490.937 525.072 490.937C529.669 490.937 533.908 492.804 536.853 496.325C537.284 496.827 537.141 497.402 536.781 497.833L533.62 501.641C533.118 502.215 532.615 502.144 531.968 501.641C529.669 499.701 527.658 498.695 525.574 498.695C523.276 498.695 522.198 499.988 522.198 501.497C522.198 503.221 523.635 504.155 525.574 504.873L530.531 506.813C534.985 508.609 538.505 511.698 538.434 517.086C538.362 524.198 532.255 527.862 525.215 527.862ZM576.188 527.862C565.555 527.862 557.725 519.816 557.725 509.399C557.725 498.983 565.555 490.937 576.188 490.937C586.748 490.937 594.578 498.983 594.578 509.399C594.578 519.816 586.748 527.862 576.188 527.862ZM567.279 509.399C567.279 515.146 571.159 518.738 576.188 518.738C581.144 518.738 585.024 515.146 585.024 509.399C585.024 503.652 581.144 500.06 576.188 500.06C571.159 500.06 567.279 503.652 567.279 509.399ZM602.341 527C601.694 527 601.263 526.569 601.263 525.922V492.876C601.263 492.23 601.694 491.799 602.341 491.799H609.812C610.459 491.799 610.89 492.086 610.89 492.948L611.177 497.115C613.189 493.523 616.565 490.937 621.81 490.937C629.137 490.937 634.525 496.253 634.525 505.448V525.922C634.525 526.569 634.022 527 633.376 527H625.689C625.042 527 624.611 526.569 624.611 525.922V507.675C624.611 502.718 622.312 500.06 618.074 500.06C613.907 500.06 611.177 502.718 611.177 507.675V525.922C611.177 526.569 610.746 527 610.1 527H602.341ZM673.704 527.862C663.072 527.862 655.241 519.816 655.241 509.399C655.241 498.983 663.072 490.937 673.704 490.937C684.264 490.937 692.095 498.983 692.095 509.399C692.095 519.816 684.264 527.862 673.704 527.862ZM664.796 509.399C664.796 515.146 668.675 518.738 673.704 518.738C678.661 518.738 682.54 515.146 682.54 509.399C682.54 503.652 678.661 500.06 673.704 500.06C668.675 500.06 664.796 503.652 664.796 509.399ZM711.145 527.862C703.745 527.862 698.429 522.546 698.429 513.351V492.876C698.429 492.23 698.86 491.799 699.507 491.799H707.265C707.912 491.799 708.343 492.23 708.343 492.876V511.123C708.343 516.08 710.642 518.738 714.88 518.738C719.047 518.738 721.777 516.08 721.777 511.123V492.876C721.777 492.23 722.208 491.799 722.854 491.799H730.541C731.188 491.799 731.691 492.23 731.691 492.876V525.922C731.691 526.569 731.188 527 730.541 527H723.142C722.495 527 722.136 526.713 722.064 525.851L721.777 521.684C719.765 525.276 716.389 527.862 711.145 527.862ZM741.249 527C740.603 527 740.172 526.569 740.172 525.922V492.876C740.172 492.23 740.603 491.799 741.249 491.799H748.721C749.367 491.799 749.726 492.086 749.798 492.948L750.086 497.474C751.307 493.738 753.534 490.937 757.701 490.937C759.353 490.937 760.359 491.368 760.933 491.799C761.436 492.158 761.58 492.589 761.58 493.235V499.557C761.58 500.419 761.077 500.635 760.143 500.419C759.353 500.204 758.563 500.06 757.557 500.06C752.672 500.06 750.086 503.293 750.086 508.322V525.922C750.086 526.569 749.655 527 749.008 527H741.249ZM793.28 527.862C787.389 527.862 782.935 525.348 780.134 522.043C779.702 521.54 779.774 520.75 780.277 519.96L782.792 516.44C783.366 515.578 784.013 515.721 784.588 516.152C787.533 518.379 789.976 519.601 792.705 519.601C795.076 519.601 796.657 518.667 796.657 516.655C796.657 514.931 795.579 514.141 792.993 513.063L788.539 511.267C784.013 509.471 780.852 506.454 780.852 501.569C780.852 494.816 786.599 490.937 793.136 490.937C797.734 490.937 801.973 492.804 804.918 496.325C805.349 496.827 805.206 497.402 804.846 497.833L801.685 501.641C801.182 502.215 800.68 502.144 800.033 501.641C797.734 499.701 795.723 498.695 793.639 498.695C791.34 498.695 790.263 499.988 790.263 501.497C790.263 503.221 791.7 504.155 793.639 504.873L798.596 506.813C803.05 508.609 806.57 511.698 806.499 517.086C806.427 524.198 800.32 527.862 793.28 527.862ZM818.655 485.549C815.494 485.549 813.124 483.106 813.124 480.017C813.124 477 815.494 474.557 818.655 474.557C821.816 474.557 824.115 477 824.115 480.017C824.115 483.106 821.816 485.549 818.655 485.549ZM813.627 525.922V492.876C813.627 492.23 814.058 491.799 814.704 491.799H822.535C823.181 491.799 823.612 492.23 823.612 492.876V525.922C823.612 526.569 823.181 527 822.535 527H814.704C814.058 527 813.627 526.569 813.627 525.922ZM847.159 527.862C837.245 527.862 830.42 519.888 830.42 509.399C830.42 498.983 837.245 490.937 847.159 490.937C852.044 490.937 855.636 492.733 858.006 495.894V476.712C858.006 476.066 858.437 475.635 859.084 475.635H866.915C867.561 475.635 867.992 476.066 867.992 476.712V525.922C867.992 526.569 867.489 527 866.843 527H859.874C859.228 527 858.797 526.569 858.797 525.922L858.653 522.043C856.21 525.635 852.403 527.862 847.159 527.862ZM840.118 509.399C840.118 515.075 843.998 518.81 849.242 518.81C854.486 518.81 858.15 515.075 858.15 509.399C858.15 503.724 854.486 499.988 849.242 499.988C843.998 499.988 840.118 503.796 840.118 509.399ZM894.083 527.862C882.517 527.862 874.758 519.888 874.758 509.256C874.758 498.911 882.014 490.937 892.862 490.937C903.566 490.937 909.744 498.839 909.744 507.747C909.744 511.195 908.954 513.135 905.865 513.135H884.457C885.534 517.589 889.198 520.032 894.874 520.032C897.603 520.032 900.19 519.529 903.063 517.876C903.566 517.589 903.925 517.661 904.284 518.164L906.943 521.828C907.302 522.33 907.23 522.833 906.583 523.408C903.566 526.425 899.04 527.862 894.083 527.862ZM884.313 506.167H900.908C900.333 501.497 897.172 499.126 892.934 499.126C888.552 499.126 885.175 501.497 884.313 506.167ZM117.009 598C116.434 598 115.931 597.713 115.716 597.138L104.652 564.02C104.365 563.23 104.724 562.799 105.514 562.799H113.058C113.632 562.799 114.135 563.086 114.351 563.661L121.391 586.506L129.078 563.661C129.293 563.086 129.796 562.799 130.371 562.799H137.914C138.489 562.799 138.992 563.086 139.207 563.661L146.822 586.506L153.862 563.661C154.078 563.086 154.653 562.799 155.227 562.799H162.699C163.489 562.799 163.848 563.23 163.561 564.02L152.569 597.138C152.354 597.713 151.851 598 151.276 598H143.302C142.727 598 142.224 597.713 142.009 597.138L134.107 574.293L126.276 597.138C126.061 597.713 125.558 598 124.983 598H117.009ZM175.117 556.549C171.956 556.549 169.585 554.106 169.585 551.017C169.585 548 171.956 545.557 175.117 545.557C178.278 545.557 180.577 548 180.577 551.017C180.577 554.106 178.278 556.549 175.117 556.549ZM170.088 596.922V563.876C170.088 563.23 170.519 562.799 171.166 562.799H178.996C179.643 562.799 180.074 563.23 180.074 563.876V596.922C180.074 597.569 179.643 598 178.996 598H171.166C170.519 598 170.088 597.569 170.088 596.922ZM189.755 598C189.109 598 188.678 597.569 188.678 596.922V547.712C188.678 547.066 189.109 546.635 189.755 546.635H197.586C198.232 546.635 198.663 547.066 198.663 547.712V596.922C198.663 597.569 198.232 598 197.586 598H189.755ZM208.276 598C207.63 598 207.199 597.569 207.199 596.922V547.712C207.199 547.066 207.63 546.635 208.276 546.635H216.107C216.753 546.635 217.184 547.066 217.184 547.712V596.922C217.184 597.569 216.753 598 216.107 598H208.276ZM260.656 598.862C255.34 598.862 251.604 596.635 249.162 593.043L249.018 596.922C249.018 597.569 248.587 598 247.941 598H240.9C240.254 598 239.751 597.569 239.751 596.922V547.712C239.751 547.066 240.182 546.635 240.829 546.635H248.659C249.306 546.635 249.737 547.066 249.737 547.712V566.894C252.107 563.733 255.771 561.937 260.656 561.937C270.498 561.937 277.323 569.983 277.323 580.399C277.323 590.888 270.498 598.862 260.656 598.862ZM249.593 580.399C249.593 586.075 253.257 589.81 258.573 589.81C263.745 589.81 267.625 586.075 267.625 580.399C267.625 574.796 263.745 570.988 258.573 570.988C253.257 570.988 249.593 574.724 249.593 580.399ZM301.618 598.862C290.052 598.862 282.293 590.888 282.293 580.256C282.293 569.911 289.549 561.937 300.397 561.937C311.101 561.937 317.279 569.839 317.279 578.747C317.279 582.195 316.489 584.135 313.4 584.135H291.992C293.069 588.589 296.733 591.032 302.408 591.032C305.138 591.032 307.725 590.529 310.598 588.876C311.101 588.589 311.46 588.661 311.819 589.164L314.477 592.828C314.837 593.33 314.765 593.833 314.118 594.408C311.101 597.425 306.575 598.862 301.618 598.862ZM291.848 577.167H308.443C307.868 572.497 304.707 570.126 300.469 570.126C296.087 570.126 292.71 572.497 291.848 577.167ZM352.912 598.862C342.998 598.862 336.173 590.888 336.173 580.399C336.173 569.983 342.998 561.937 352.912 561.937C357.797 561.937 361.389 563.733 363.759 566.894V547.712C363.759 547.066 364.19 546.635 364.837 546.635H372.667C373.314 546.635 373.745 547.066 373.745 547.712V596.922C373.745 597.569 373.242 598 372.596 598H365.627C364.981 598 364.55 597.569 364.55 596.922L364.406 593.043C361.963 596.635 358.156 598.862 352.912 598.862ZM345.871 580.399C345.871 586.075 349.751 589.81 354.995 589.81C360.239 589.81 363.903 586.075 363.903 580.399C363.903 574.724 360.239 570.988 354.995 570.988C349.751 570.988 345.871 574.796 345.871 580.399ZM398.974 598.862C388.342 598.862 380.511 590.816 380.511 580.399C380.511 569.983 388.342 561.937 398.974 561.937C409.535 561.937 417.365 569.983 417.365 580.399C417.365 590.816 409.535 598.862 398.974 598.862ZM390.066 580.399C390.066 586.146 393.945 589.738 398.974 589.738C403.931 589.738 407.81 586.146 407.81 580.399C407.81 574.652 403.931 571.06 398.974 571.06C393.945 571.06 390.066 574.652 390.066 580.399ZM425.128 598C424.481 598 424.05 597.569 424.05 596.922V563.876C424.05 563.23 424.481 562.799 425.128 562.799H432.599C433.246 562.799 433.677 563.086 433.677 563.948L433.964 568.115C435.975 564.523 439.352 561.937 444.596 561.937C451.924 561.937 457.312 567.253 457.312 576.448V596.922C457.312 597.569 456.809 598 456.162 598H448.475C447.829 598 447.398 597.569 447.398 596.922V578.675C447.398 573.718 445.099 571.06 440.86 571.06C436.694 571.06 433.964 573.718 433.964 578.675V596.922C433.964 597.569 433.533 598 432.886 598H425.128ZM480.735 598.862C470.821 598.862 463.997 590.888 463.997 580.399C463.997 569.983 470.821 561.937 480.735 561.937C486.051 561.937 489.859 564.092 492.23 567.756L492.373 563.876C492.373 563.23 492.804 562.799 493.451 562.799H500.491C501.138 562.799 501.569 563.23 501.569 563.876V596.922C501.569 597.569 501.066 598 500.419 598H493.451C492.804 598 492.373 597.569 492.373 596.922L492.23 593.043C489.787 596.635 485.98 598.862 480.735 598.862ZM473.695 580.399C473.695 586.075 477.574 589.81 482.819 589.81C488.063 589.81 491.727 586.075 491.727 580.399C491.727 574.724 488.063 570.988 482.819 570.988C477.574 570.988 473.695 574.796 473.695 580.399ZM524.14 598.431C518.536 598.431 513.508 595.845 513.508 588.158V570.485H509.054C508.407 570.485 507.976 570.054 507.976 569.408V563.876C507.976 563.23 508.407 562.799 509.054 562.799H513.508V554.537C513.508 553.891 513.939 553.46 514.585 553.46H522.416C523.062 553.46 523.493 553.891 523.493 554.537V562.799H529.025C529.671 562.799 530.103 563.23 530.103 563.876V569.408C530.103 570.054 529.671 570.485 529.025 570.485H523.493V587.08C523.493 589.164 524.715 590.169 526.582 590.169C527.229 590.169 527.947 590.169 528.809 590.098C529.6 590.026 530.103 590.385 530.103 591.103V596.348C530.103 598 526.511 598.431 524.14 598.431ZM553.618 598.862C542.051 598.862 534.293 590.888 534.293 580.256C534.293 569.911 541.549 561.937 552.396 561.937C563.1 561.937 569.279 569.839 569.279 578.747C569.279 582.195 568.488 584.135 565.399 584.135H543.991C545.069 588.589 548.732 591.032 554.408 591.032C557.138 591.032 559.724 590.529 562.598 588.876C563.1 588.589 563.46 588.661 563.819 589.164L566.477 592.828C566.836 593.33 566.764 593.833 566.118 594.408C563.1 597.425 558.575 598.862 553.618 598.862ZM543.847 577.167H560.442C559.868 572.497 556.707 570.126 552.468 570.126C548.086 570.126 544.709 572.497 543.847 577.167ZM590.88 598.862C580.966 598.862 574.141 590.888 574.141 580.399C574.141 569.983 580.966 561.937 590.88 561.937C595.765 561.937 599.357 563.733 601.728 566.894V547.712C601.728 547.066 602.159 546.635 602.805 546.635H610.636C611.282 546.635 611.713 547.066 611.713 547.712V596.922C611.713 597.569 611.21 598 610.564 598H603.595C602.949 598 602.518 597.569 602.518 596.922L602.374 593.043C599.932 596.635 596.124 598.862 590.88 598.862ZM583.84 580.399C583.84 586.075 587.719 589.81 592.963 589.81C598.207 589.81 601.871 586.075 601.871 580.399C601.871 574.724 598.207 570.988 592.963 570.988C587.719 570.988 583.84 574.796 583.84 580.399ZM648.315 598.431C642.712 598.431 637.683 595.845 637.683 588.158V570.485H633.229C632.583 570.485 632.152 570.054 632.152 569.408V563.876C632.152 563.23 632.583 562.799 633.229 562.799H637.683V554.537C637.683 553.891 638.114 553.46 638.761 553.46H646.591C647.238 553.46 647.669 553.891 647.669 554.537V562.799H653.201C653.847 562.799 654.278 563.23 654.278 563.876V569.408C654.278 570.054 653.847 570.485 653.201 570.485H647.669V587.08C647.669 589.164 648.89 590.169 650.758 590.169C651.405 590.169 652.123 590.169 652.985 590.098C653.775 590.026 654.278 590.385 654.278 591.103V596.348C654.278 598 650.686 598.431 648.315 598.431ZM676.931 598.862C666.299 598.862 658.468 590.816 658.468 580.399C658.468 569.983 666.299 561.937 676.931 561.937C687.492 561.937 695.322 569.983 695.322 580.399C695.322 590.816 687.492 598.862 676.931 598.862ZM668.023 580.399C668.023 586.146 671.902 589.738 676.931 589.738C681.888 589.738 685.767 586.146 685.767 580.399C685.767 574.652 681.888 571.06 676.931 571.06C671.902 571.06 668.023 574.652 668.023 580.399ZM728.395 598C727.82 598 727.317 597.713 727.101 597.138L713.955 564.02C713.668 563.23 714.027 562.799 714.817 562.799H722.719C723.294 562.799 723.797 563.086 724.012 563.661L732.346 586.578L740.607 563.661C740.823 563.086 741.326 562.799 741.9 562.799H749.803C750.593 562.799 750.952 563.23 750.665 564.02L737.518 597.138C737.303 597.713 736.8 598 736.225 598H728.395ZM769.496 598.862C759.582 598.862 752.758 590.888 752.758 580.399C752.758 569.983 759.582 561.937 769.496 561.937C774.812 561.937 778.62 564.092 780.991 567.756L781.134 563.876C781.134 563.23 781.565 562.799 782.212 562.799H789.252C789.899 562.799 790.33 563.23 790.33 563.876V596.922C790.33 597.569 789.827 598 789.18 598H782.212C781.565 598 781.134 597.569 781.134 596.922L780.991 593.043C778.548 596.635 774.741 598.862 769.496 598.862ZM762.456 580.399C762.456 586.075 766.335 589.81 771.58 589.81C776.824 589.81 780.488 586.075 780.488 580.399C780.488 574.724 776.824 570.988 771.58 570.988C766.335 570.988 762.456 574.796 762.456 580.399ZM799.97 598C799.323 598 798.892 597.569 798.892 596.922V563.876C798.892 563.23 799.323 562.799 799.97 562.799H807.441C808.088 562.799 808.447 563.086 808.519 563.948L808.806 568.474C810.027 564.738 812.254 561.937 816.421 561.937C818.073 561.937 819.079 562.368 819.654 562.799C820.157 563.158 820.3 563.589 820.3 564.235V570.557C820.3 571.419 819.797 571.635 818.863 571.419C818.073 571.204 817.283 571.06 816.277 571.06C811.392 571.06 808.806 574.293 808.806 579.322V596.922C808.806 597.569 808.375 598 807.728 598H799.97ZM831.774 556.549C828.613 556.549 826.243 554.106 826.243 551.017C826.243 548 828.613 545.557 831.774 545.557C834.935 545.557 837.234 548 837.234 551.017C837.234 554.106 834.935 556.549 831.774 556.549ZM826.746 596.922V563.876C826.746 563.23 827.177 562.799 827.823 562.799H835.654C836.3 562.799 836.731 563.23 836.731 563.876V596.922C836.731 597.569 836.3 598 835.654 598H827.823C827.177 598 826.746 597.569 826.746 596.922ZM862.002 598.862C851.37 598.862 843.539 590.816 843.539 580.399C843.539 569.983 851.37 561.937 862.002 561.937C872.562 561.937 880.393 569.983 880.393 580.399C880.393 590.816 872.562 598.862 862.002 598.862ZM853.094 580.399C853.094 586.146 856.973 589.738 862.002 589.738C866.959 589.738 870.838 586.146 870.838 580.399C870.838 574.652 866.959 571.06 862.002 571.06C856.973 571.06 853.094 574.652 853.094 580.399ZM899.443 598.862C892.043 598.862 886.727 593.546 886.727 584.351V563.876C886.727 563.23 887.158 562.799 887.805 562.799H895.563C896.21 562.799 896.641 563.23 896.641 563.876V582.123C896.641 587.08 898.94 589.738 903.178 589.738C907.345 589.738 910.075 587.08 910.075 582.123V563.876C910.075 563.23 910.506 562.799 911.152 562.799H918.839C919.486 562.799 919.989 563.23 919.989 563.876V596.922C919.989 597.569 919.486 598 918.839 598H911.44C910.793 598 910.434 597.713 910.362 596.851L910.075 592.684C908.063 596.276 904.687 598.862 899.443 598.862ZM940.467 598.862C934.576 598.862 930.122 596.348 927.32 593.043C926.889 592.54 926.961 591.75 927.464 590.96L929.978 587.44C930.553 586.578 931.2 586.721 931.774 587.152C934.72 589.379 937.162 590.601 939.892 590.601C942.263 590.601 943.843 589.667 943.843 587.655C943.843 585.931 942.766 585.141 940.18 584.063L935.726 582.267C931.2 580.471 928.039 577.454 928.039 572.569C928.039 565.816 933.786 561.937 940.323 561.937C944.921 561.937 949.159 563.804 952.105 567.325C952.536 567.827 952.392 568.402 952.033 568.833L948.872 572.641C948.369 573.215 947.866 573.144 947.22 572.641C944.921 570.701 942.909 569.695 940.826 569.695C938.527 569.695 937.45 570.988 937.45 572.497C937.45 574.221 938.886 575.155 940.826 575.873L945.783 577.813C950.237 579.609 953.757 582.698 953.685 588.086C953.614 595.198 947.507 598.862 940.467 598.862ZM162.078 669.862C150.512 669.862 142.754 661.888 142.754 651.256C142.754 640.911 150.009 632.937 160.857 632.937C171.561 632.937 177.739 640.839 177.739 649.747C177.739 653.195 176.949 655.135 173.86 655.135H152.452C153.53 659.589 157.193 662.032 162.869 662.032C165.599 662.032 168.185 661.529 171.058 659.876C171.561 659.589 171.92 659.661 172.28 660.164L174.938 663.828C175.297 664.33 175.225 664.833 174.579 665.408C171.561 668.425 167.035 669.862 162.078 669.862ZM152.308 648.167H168.903C168.329 643.497 165.168 641.126 160.929 641.126C156.547 641.126 153.17 643.497 152.308 648.167ZM185.476 669C184.829 669 184.398 668.569 184.398 667.922V634.876C184.398 634.23 184.829 633.799 185.476 633.799H192.947C193.594 633.799 194.025 634.086 194.025 634.948L194.312 639.115C196.323 635.523 199.7 632.937 204.944 632.937C212.272 632.937 217.66 638.253 217.66 647.448V667.922C217.66 668.569 217.157 669 216.51 669H208.824C208.177 669 207.746 668.569 207.746 667.922V649.675C207.746 644.718 205.447 642.06 201.209 642.06C197.042 642.06 194.312 644.718 194.312 649.675V667.922C194.312 668.569 193.881 669 193.234 669H185.476ZM235.621 669C235.046 669 234.543 668.713 234.328 668.138L221.181 635.02C220.894 634.23 221.253 633.799 222.043 633.799H229.945C230.52 633.799 231.023 634.086 231.239 634.661L239.572 657.578L247.833 634.661C248.049 634.086 248.552 633.799 249.127 633.799H257.029C257.819 633.799 258.178 634.23 257.891 635.02L244.744 668.138C244.529 668.713 244.026 669 243.451 669H235.621ZM269.406 627.549C266.245 627.549 263.874 625.106 263.874 622.017C263.874 619 266.245 616.557 269.406 616.557C272.567 616.557 274.866 619 274.866 622.017C274.866 625.106 272.567 627.549 269.406 627.549ZM264.377 667.922V634.876C264.377 634.23 264.808 633.799 265.455 633.799H273.285C273.932 633.799 274.363 634.23 274.363 634.876V667.922C274.363 668.569 273.932 669 273.285 669H265.455C264.808 669 264.377 668.569 264.377 667.922ZM284.044 669C283.398 669 282.967 668.569 282.967 667.922V634.876C282.967 634.23 283.398 633.799 284.044 633.799H291.516C292.162 633.799 292.522 634.086 292.593 634.948L292.881 639.474C294.102 635.738 296.329 632.937 300.496 632.937C302.148 632.937 303.154 633.368 303.729 633.799C304.231 634.158 304.375 634.589 304.375 635.235V641.557C304.375 642.419 303.872 642.635 302.938 642.419C302.148 642.204 301.358 642.06 300.352 642.06C295.467 642.06 292.881 645.293 292.881 650.322V667.922C292.881 668.569 292.45 669 291.803 669H284.044ZM326.433 669.862C315.801 669.862 307.97 661.816 307.97 651.399C307.97 640.983 315.801 632.937 326.433 632.937C336.994 632.937 344.824 640.983 344.824 651.399C344.824 661.816 336.994 669.862 326.433 669.862ZM317.525 651.399C317.525 657.146 321.404 660.738 326.433 660.738C331.39 660.738 335.269 657.146 335.269 651.399C335.269 645.652 331.39 642.06 326.433 642.06C321.404 642.06 317.525 645.652 317.525 651.399ZM352.587 669C351.94 669 351.509 668.569 351.509 667.922V634.876C351.509 634.23 351.94 633.799 352.587 633.799H360.058C360.704 633.799 361.136 634.086 361.136 634.948L361.423 639.115C363.434 635.523 366.811 632.937 372.055 632.937C379.383 632.937 384.771 638.253 384.771 647.448V667.922C384.771 668.569 384.268 669 383.621 669H375.934C375.288 669 374.857 668.569 374.857 667.922V649.675C374.857 644.718 372.558 642.06 368.319 642.06C364.153 642.06 361.423 644.718 361.423 649.675V667.922C361.423 668.569 360.992 669 360.345 669H352.587ZM394.329 669C393.683 669 393.252 668.569 393.252 667.922V634.876C393.252 634.23 393.683 633.799 394.329 633.799H401.801C402.447 633.799 402.878 634.086 402.878 634.948L403.094 638.684C405.033 635.379 408.194 632.937 413.008 632.937C417.533 632.937 421.054 635.092 422.993 639.187C424.933 635.595 428.381 632.937 433.841 632.937C441.384 632.937 445.982 638.109 445.982 647.304V667.922C445.982 668.569 445.551 669 444.904 669H437.146C436.499 669 436.068 668.569 436.068 667.922V649.46C436.068 644.646 434.344 642.06 430.465 642.06C426.729 642.06 424.574 644.646 424.574 649.46V667.922C424.574 668.569 424.143 669 423.496 669H415.809C415.091 669 414.66 668.569 414.66 667.922V649.46C414.66 644.646 412.864 642.06 409.056 642.06C405.321 642.06 403.166 644.646 403.166 649.46V667.922C403.166 668.569 402.735 669 402.088 669H394.329ZM471.956 669.862C460.39 669.862 452.632 661.888 452.632 651.256C452.632 640.911 459.887 632.937 470.735 632.937C481.439 632.937 487.617 640.839 487.617 649.747C487.617 653.195 486.827 655.135 483.738 655.135H462.33C463.407 659.589 467.071 662.032 472.747 662.032C475.476 662.032 478.063 661.529 480.936 659.876C481.439 659.589 481.798 659.661 482.158 660.164L484.816 663.828C485.175 664.33 485.103 664.833 484.456 665.408C481.439 668.425 476.913 669.862 471.956 669.862ZM462.186 648.167H478.781C478.206 643.497 475.045 641.126 470.807 641.126C466.425 641.126 463.048 643.497 462.186 648.167ZM495.354 669C494.707 669 494.276 668.569 494.276 667.922V634.876C494.276 634.23 494.707 633.799 495.354 633.799H502.825C503.471 633.799 503.902 634.086 503.902 634.948L504.19 639.115C506.201 635.523 509.578 632.937 514.822 632.937C522.15 632.937 527.538 638.253 527.538 647.448V667.922C527.538 668.569 527.035 669 526.388 669H518.701C518.055 669 517.624 668.569 517.624 667.922V649.675C517.624 644.718 515.325 642.06 511.086 642.06C506.92 642.06 504.19 644.718 504.19 649.675V667.922C504.19 668.569 503.759 669 503.112 669H495.354ZM548.624 669.431C543.021 669.431 537.992 666.845 537.992 659.158V641.485H533.538C532.891 641.485 532.46 641.054 532.46 640.408V634.876C532.46 634.23 532.891 633.799 533.538 633.799H537.992V625.537C537.992 624.891 538.423 624.46 539.07 624.46H546.9C547.547 624.46 547.978 624.891 547.978 625.537V633.799H553.509C554.156 633.799 554.587 634.23 554.587 634.876V640.408C554.587 641.054 554.156 641.485 553.509 641.485H547.978V658.08C547.978 660.164 549.199 661.169 551.067 661.169C551.713 661.169 552.432 661.169 553.294 661.098C554.084 661.026 554.587 661.385 554.587 662.103V667.348C554.587 669 550.995 669.431 548.624 669.431ZM575.516 669.862C565.602 669.862 558.777 661.888 558.777 651.399C558.777 640.983 565.602 632.937 575.516 632.937C580.832 632.937 584.639 635.092 587.01 638.756L587.154 634.876C587.154 634.23 587.585 633.799 588.231 633.799H595.272C595.918 633.799 596.349 634.23 596.349 634.876V667.922C596.349 668.569 595.846 669 595.2 669H588.231C587.585 669 587.154 668.569 587.154 667.922L587.01 664.043C584.568 667.635 580.76 669.862 575.516 669.862ZM568.475 651.399C568.475 657.075 572.355 660.81 577.599 660.81C582.843 660.81 586.507 657.075 586.507 651.399C586.507 645.724 582.843 641.988 577.599 641.988C572.355 641.988 568.475 645.796 568.475 651.399ZM605.989 669C605.343 669 604.912 668.569 604.912 667.922V618.712C604.912 618.066 605.343 617.635 605.989 617.635H613.82C614.466 617.635 614.897 618.066 614.897 618.712V667.922C614.897 668.569 614.466 669 613.82 669H605.989ZM654.274 669.862C643.57 669.862 635.668 661.816 635.668 651.256C635.668 640.839 643.498 632.937 654.059 632.937C659.878 632.937 664.691 635.379 667.708 639.258C668.139 639.761 667.996 640.336 667.564 640.767L663.254 645.006C662.679 645.58 661.889 645.508 661.386 645.006C659.447 643.066 657.363 642.06 654.49 642.06C648.886 642.06 645.222 646.083 645.222 651.256C645.222 656.428 648.886 660.738 654.705 660.738C657.435 660.738 659.518 659.733 661.458 657.793C661.961 657.29 662.751 657.218 663.326 657.793L667.636 662.032C668.067 662.463 668.211 663.037 667.78 663.54C664.763 667.42 659.95 669.862 654.274 669.862ZM675.794 669C675.147 669 674.716 668.569 674.716 667.922V618.712C674.716 618.066 675.147 617.635 675.794 617.635H683.553C684.199 617.635 684.63 618.066 684.63 618.712V639.115C686.642 635.523 690.018 632.937 695.263 632.937C702.59 632.937 707.978 638.253 707.978 647.448V667.922C707.978 668.569 707.475 669 706.829 669H699.142C698.495 669 698.064 668.569 698.064 667.922V649.675C698.064 644.718 695.765 642.06 691.527 642.06C687.36 642.06 684.63 644.718 684.63 649.675V667.922C684.63 668.569 684.199 669 683.553 669H675.794ZM731.402 669.862C721.488 669.862 714.663 661.888 714.663 651.399C714.663 640.983 721.488 632.937 731.402 632.937C736.718 632.937 740.525 635.092 742.896 638.756L743.04 634.876C743.04 634.23 743.471 633.799 744.117 633.799H751.158C751.804 633.799 752.235 634.23 752.235 634.876V667.922C752.235 668.569 751.732 669 751.086 669H744.117C743.471 669 743.04 668.569 743.04 667.922L742.896 664.043C740.453 667.635 736.646 669.862 731.402 669.862ZM724.361 651.399C724.361 657.075 728.241 660.81 733.485 660.81C738.729 660.81 742.393 657.075 742.393 651.399C742.393 645.724 738.729 641.988 733.485 641.988C728.241 641.988 724.361 645.796 724.361 651.399ZM761.875 669C761.229 669 760.797 668.569 760.797 667.922V634.876C760.797 634.23 761.229 633.799 761.875 633.799H769.346C769.993 633.799 770.352 634.086 770.424 634.948L770.711 639.474C771.933 635.738 774.16 632.937 778.326 632.937C779.979 632.937 780.984 633.368 781.559 633.799C782.062 634.158 782.206 634.589 782.206 635.235V641.557C782.206 642.419 781.703 642.635 780.769 642.419C779.979 642.204 779.188 642.06 778.183 642.06C773.298 642.06 770.711 645.293 770.711 650.322V667.922C770.711 668.569 770.28 669 769.634 669H761.875ZM793.68 627.549C790.519 627.549 788.148 625.106 788.148 622.017C788.148 619 790.519 616.557 793.68 616.557C796.841 616.557 799.14 619 799.14 622.017C799.14 625.106 796.841 627.549 793.68 627.549ZM788.651 667.922V634.876C788.651 634.23 789.082 633.799 789.729 633.799H797.559C798.206 633.799 798.637 634.23 798.637 634.876V667.922C798.637 668.569 798.206 669 797.559 669H789.729C789.082 669 788.651 668.569 788.651 667.922ZM820.548 669.431C814.944 669.431 809.916 666.845 809.916 659.158V641.485H805.461C804.815 641.485 804.384 641.054 804.384 640.408V634.876C804.384 634.23 804.815 633.799 805.461 633.799H809.916V625.537C809.916 624.891 810.347 624.46 810.993 624.46H818.824C819.47 624.46 819.901 624.891 819.901 625.537V633.799H825.433C826.079 633.799 826.51 634.23 826.51 634.876V640.408C826.51 641.054 826.079 641.485 825.433 641.485H819.901V658.08C819.901 660.164 821.122 661.169 822.99 661.169C823.637 661.169 824.355 661.169 825.217 661.098C826.008 661.026 826.51 661.385 826.51 662.103V667.348C826.51 669 822.918 669.431 820.548 669.431ZM837.948 627.549C834.787 627.549 832.417 625.106 832.417 622.017C832.417 619 834.787 616.557 837.948 616.557C841.109 616.557 843.408 619 843.408 622.017C843.408 625.106 841.109 627.549 837.948 627.549ZM832.919 667.922V634.876C832.919 634.23 833.35 633.799 833.997 633.799H841.827C842.474 633.799 842.905 634.23 842.905 634.876V667.922C842.905 668.569 842.474 669 841.827 669H833.997C833.35 669 832.919 668.569 832.919 667.922ZM869.038 669.862C857.472 669.862 849.713 661.888 849.713 651.256C849.713 640.911 856.969 632.937 867.816 632.937C878.521 632.937 884.699 640.839 884.699 649.747C884.699 653.195 883.909 655.135 880.819 655.135H859.411C860.489 659.589 864.153 662.032 869.828 662.032C872.558 662.032 875.144 661.529 878.018 659.876C878.521 659.589 878.88 659.661 879.239 660.164L881.897 663.828C882.256 664.33 882.184 664.833 881.538 665.408C878.521 668.425 873.995 669.862 869.038 669.862ZM859.268 648.167H875.862C875.288 643.497 872.127 641.126 867.888 641.126C863.506 641.126 860.13 643.497 859.268 648.167ZM902.653 669.862C896.762 669.862 892.308 667.348 889.506 664.043C889.075 663.54 889.147 662.75 889.65 661.96L892.164 658.44C892.739 657.578 893.386 657.721 893.96 658.152C896.906 660.379 899.348 661.601 902.078 661.601C904.449 661.601 906.029 660.667 906.029 658.655C906.029 656.931 904.952 656.141 902.366 655.063L897.912 653.267C893.386 651.471 890.225 648.454 890.225 643.569C890.225 636.816 895.972 632.937 902.509 632.937C907.107 632.937 911.346 634.804 914.291 638.325C914.722 638.827 914.578 639.402 914.219 639.833L911.058 643.641C910.555 644.215 910.052 644.144 909.406 643.641C907.107 641.701 905.095 640.695 903.012 640.695C900.713 640.695 899.636 641.988 899.636 643.497C899.636 645.221 901.072 646.155 903.012 646.873L907.969 648.813C912.423 650.609 915.943 653.698 915.871 659.086C915.8 666.198 909.693 669.862 902.653 669.862Z" fill="white"/>
<defs>
<linearGradient id="paint0_linear_1613_2374" x1="283.187" y1="4.16129" x2="362.604" y2="453.415" gradientUnits="userSpaceOnUse">
<stop stop-color="#E4C2FF"/>
<stop offset="1" stop-color="#510091"/>
</linearGradient>
</defs>
</svg>
