<svg width="112" height="35" viewBox="0 0 112 35" fill="none" xmlns="http://www.w3.org/2000/svg">
<rect width="112" height="35" rx="17.5" fill="url(#paint0_linear_1613_2222)"/>
<g clip-path="url(#clip0_1613_2222)">
<rect x="10" y="5" width="25" height="25" rx="12.5" fill="white"/>
<path d="M15.5359 30.5275C12.0721 28.4701 12.7458 24.1536 14.0533 20.9753C14.1999 20.7259 13.8211 20.5451 13.6936 20.3605C12.5802 19.3042 10.7265 18.1471 10.7246 16.4837C10.7246 16.0745 11.0577 15.7376 11.4669 15.7414C12.4032 15.7491 13.391 16.4856 14.1903 16.8567C14.8241 17.3649 14.4092 15.1476 14.5177 14.7803C14.5729 12.742 15.5435 10.6808 17.2621 9.51986C18.345 8.76048 19.7001 8.28848 21.0628 8.23138C20.8858 8.04868 20.5337 7.98777 20.5109 7.74987C21.5862 7.69468 21.3597 8.96031 21.4644 7.12372C21.6928 7.38255 21.6338 7.708 21.7213 8.003C22.338 7.18652 22.5987 7.50817 21.866 8.21616C26.6887 7.63949 29.77 12.6811 28.9821 17.047C28.8393 18.4288 30.3486 17.7474 32.0634 18.3241C32.798 18.6419 34.3662 19.1634 34.3758 19.9304C34.4081 20.2102 34.1854 20.4462 34.1854 20.4462C33.3899 21.1675 31.3839 21.019 29.9965 21.3464C29.2067 21.3692 30.4133 23.7711 30.5408 24.4791C32.1509 32.404 20.9943 33.8105 16.0098 30.8244M22.121 31.3611C30.2306 31.4448 31.146 26.4984 28.0133 20.0712C27.5566 18.9141 28.1237 17.8274 28.2208 16.6702C28.2227 14.413 27.2616 11.0348 24.5362 11.0063C22.3266 10.873 21.6091 15.0658 22.9261 16.1316C23.3543 16.4133 22.2676 17.1822 21.9878 17.3611C21.3236 17.7417 19.4432 17.5742 19.1768 16.8129C19.1463 16.7273 19.1577 16.6302 19.2053 16.5522C19.801 15.5854 19.1387 12.5783 18.1966 12.0378C15.928 11.1185 15.1001 14.4872 15.0982 16.1678C14.8584 17.5571 15.6558 18.9731 15.0468 20.2939C11.7295 26.8904 14.7271 31.6522 22.121 31.3611Z" fill="url(#paint1_linear_1613_2222)"/>
<path d="M29.0123 18.5563C29.6727 18.4021 34.7124 19.4774 33.0509 20.2616C31.9223 20.7983 30.3578 20.1569 29.292 20.9619C29.2254 21.0171 29.1588 21.0837 29.1036 20.9391C28.9666 20.3795 28.0683 18.6457 29.0123 18.5563Z" fill="url(#paint2_linear_1613_2222)"/>
<path d="M14.3524 20.1797C13.9451 19.2072 12.8413 18.9522 12.2322 18.1471C12.0134 17.814 11.6194 17.422 11.4405 17.0109C11.3092 16.7102 11.5756 16.3847 11.8973 16.4551C12.7366 16.6379 13.6102 17.2849 14.3448 17.6941C14.8606 18.3317 14.7388 19.4641 14.3524 20.1797Z" fill="url(#paint3_linear_1613_2222)"/>
<path d="M22.1213 31.3611C14.7274 31.6465 11.7298 26.8999 15.0471 20.2977C15.6561 18.9769 14.8587 17.559 15.0985 16.1716C15.0966 14.4891 15.9302 11.1205 18.1969 12.0416C19.1523 12.5593 19.8489 15.8119 19.1466 16.6398C19.1619 17.5457 21.2744 17.776 21.9881 17.3649C22.2755 17.1746 23.3508 16.4266 22.9283 16.1354C21.6132 15.062 22.3231 10.8864 24.5384 11.0101C27.2657 11.0386 28.223 14.4168 28.223 16.6721C28.126 17.8293 27.5607 18.916 28.0175 20.0731C31.1444 26.487 30.2328 31.4505 22.1213 31.3611Z" fill="url(#paint4_linear_1613_2222)"/>
<path d="M20.9127 17.3915C20.3551 17.4201 19.8469 17.2126 19.3635 16.9252C19.2322 16.8472 19.2512 16.7635 19.3768 16.7216C19.7974 16.5808 20.1495 16.3162 20.5283 16.0992C20.9793 15.8404 21.4513 15.9337 21.9119 16.0707C22.1898 16.1525 22.46 16.2591 22.7588 16.2439C22.8445 16.2401 22.9111 16.2915 22.8464 16.3638C22.4714 16.7787 22.1251 17.2393 21.5236 17.3477C21.3295 17.3839 21.1316 17.4029 20.9127 17.3915Z" fill="url(#paint5_linear_1613_2222)"/>
<path d="M25.8286 17.2735C25.5869 17.2888 25.3813 17.2431 25.2138 17.0775C24.9227 16.7882 24.9569 16.3905 25.3071 16.1792C25.6725 15.9565 26.0627 15.9546 26.4471 16.1297C26.6736 16.2325 26.7897 16.4799 26.7592 16.733C26.7326 16.9557 26.5118 17.1651 26.2168 17.2336C26.0855 17.264 25.9523 17.2926 25.8286 17.2735Z" fill="url(#paint6_linear_1613_2222)"/>
<path d="M17.0044 16.6911C17.1262 16.6949 17.3032 16.7083 17.4479 16.8148C17.7543 17.0375 17.7829 17.4144 17.5411 17.7093C17.2728 18.0386 16.6371 18.0348 16.3402 17.8388C16.0243 17.6294 16.0224 17.1765 16.3174 16.9252C16.4677 16.7977 16.7551 16.693 17.0044 16.6911Z" fill="url(#paint7_linear_1613_2222)"/>
<path d="M25.4305 15.3646C25.4286 15.7129 25.1451 15.985 24.7892 15.9812C24.4542 15.9774 24.1973 15.7072 24.1973 15.357C24.1973 14.9288 24.5132 14.7422 24.8634 14.7156C25.1736 14.6909 25.4305 15.0049 25.4305 15.3646ZM24.9015 14.8469C24.8444 14.8488 24.793 14.8907 24.7892 14.9782C24.7854 15.0658 24.8291 15.1191 24.9186 15.1191C25.0042 15.1191 25.0823 15.0981 25.0861 14.9935C25.0918 14.8888 25.0175 14.8602 24.9015 14.8469Z" fill="#05294A"/>
<path d="M24.9018 14.8469C25.016 14.8602 25.0922 14.8888 25.0865 14.9935C25.0807 15.0981 25.0046 15.1191 24.919 15.1191C24.8276 15.1191 24.7838 15.0658 24.7896 14.9782C24.7934 14.8907 24.8467 14.8488 24.9018 14.8469Z" fill="white"/>
<path d="M17.6484 16.5465C17.3286 16.5446 17.1193 16.3219 17.1231 15.987C17.1269 15.633 17.4314 15.338 17.793 15.3361C18.0899 15.3342 18.3221 15.5949 18.3183 15.9299C18.3164 16.2724 18.0138 16.5484 17.6484 16.5465ZM17.8634 15.7548C17.9548 15.7605 18.0176 15.7224 18.01 15.633C17.9986 15.5321 17.9243 15.4655 17.8235 15.4674C17.7473 15.4693 17.6807 15.5226 17.6941 15.6101C17.7055 15.7034 17.7588 15.7681 17.8634 15.7548Z" fill="#05294A"/>
<path d="M17.8644 15.7548C17.7597 15.7681 17.7064 15.7015 17.6931 15.612C17.6798 15.5245 17.7464 15.4693 17.8225 15.4693C17.9234 15.4674 17.9995 15.534 18.009 15.6349C18.0186 15.7224 17.9539 15.7605 17.8644 15.7548Z" fill="white"/>
</g>
<path d="M43.5149 23C43.3529 23 43.2449 22.892 43.2449 22.73V10.67C43.2449 10.508 43.3529 10.4 43.5149 10.4H45.5489C45.7109 10.4 45.8189 10.508 45.8189 10.67V20.714H49.6709C49.8329 20.714 49.9409 20.822 49.9409 20.984V22.73C49.9409 22.892 49.8329 23 49.6709 23H43.5149ZM54.7236 23.216C52.8696 23.216 51.5376 21.884 51.5376 19.58V14.45C51.5376 14.288 51.6456 14.18 51.8076 14.18H53.7516C53.9136 14.18 54.0216 14.288 54.0216 14.45V19.022C54.0216 20.264 54.5976 20.93 55.6596 20.93C56.7036 20.93 57.3876 20.264 57.3876 19.022V14.45C57.3876 14.288 57.4956 14.18 57.6576 14.18H59.5836C59.7456 14.18 59.8716 14.288 59.8716 14.45V22.73C59.8716 22.892 59.7456 23 59.5836 23H57.7296C57.5676 23 57.4776 22.928 57.4596 22.712L57.3876 21.668C56.8836 22.568 56.0376 23.216 54.7236 23.216ZM62.2666 23C62.1046 23 61.9966 22.892 61.9966 22.73V14.45C61.9966 14.288 62.1046 14.18 62.2666 14.18H64.1386C64.3006 14.18 64.4086 14.252 64.4086 14.468L64.4626 15.404C64.9486 14.576 65.7406 13.964 66.9466 13.964C68.0806 13.964 68.9626 14.504 69.4486 15.53C69.9346 14.63 70.7986 13.964 72.1666 13.964C74.0566 13.964 75.2086 15.26 75.2086 17.564V22.73C75.2086 22.892 75.1006 23 74.9386 23H72.9946C72.8326 23 72.7246 22.892 72.7246 22.73V18.104C72.7246 16.898 72.2926 16.25 71.3206 16.25C70.3846 16.25 69.8446 16.898 69.8446 18.104V22.73C69.8446 22.892 69.7366 23 69.5746 23H67.6486C67.4686 23 67.3606 22.892 67.3606 22.73V18.104C67.3606 16.898 66.9106 16.25 65.9566 16.25C65.0206 16.25 64.4806 16.898 64.4806 18.104V22.73C64.4806 22.892 64.3726 23 64.2106 23H62.2666ZM78.6027 12.614C77.8107 12.614 77.2167 12.002 77.2167 11.228C77.2167 10.472 77.8107 9.86 78.6027 9.86C79.3947 9.86 79.9707 10.472 79.9707 11.228C79.9707 12.002 79.3947 12.614 78.6027 12.614ZM77.3427 22.73V14.45C77.3427 14.288 77.4507 14.18 77.6127 14.18H79.5747C79.7367 14.18 79.8447 14.288 79.8447 14.45V22.73C79.8447 22.892 79.7367 23 79.5747 23H77.6127C77.4507 23 77.3427 22.892 77.3427 22.73ZM85.3001 23C85.1021 23 85.0121 22.874 85.0841 22.694L89.2961 10.616C89.3501 10.472 89.4941 10.4 89.6381 10.4H91.8161C91.9601 10.4 92.1041 10.472 92.1581 10.616L96.3701 22.694C96.4421 22.874 96.3341 23 96.1361 23H94.0121C93.8681 23 93.7601 22.946 93.7061 22.784L93.0941 20.93H88.3421L87.7301 22.784C87.6761 22.946 87.5681 23 87.4241 23H85.3001ZM89.0801 18.644H92.3561L90.7181 13.64L89.0801 18.644ZM98.429 23C98.267 23 98.159 22.892 98.159 22.73V10.67C98.159 10.508 98.267 10.4 98.429 10.4H100.463C100.625 10.4 100.733 10.508 100.733 10.67V22.73C100.733 22.892 100.625 23 100.463 23H98.429Z" fill="white"/>
<defs>
<linearGradient id="paint0_linear_1613_2222" x1="11.424" y1="-4.57333" x2="16.2837" y2="31.4495" gradientUnits="userSpaceOnUse">
<stop stop-color="#4B698F"/>
<stop offset="1" stop-color="#2D405F"/>
</linearGradient>
<linearGradient id="paint1_linear_1613_2222" x1="14.3007" y1="7.11611" x2="29.8404" y2="36.0829" gradientUnits="userSpaceOnUse">
<stop stop-color="#05294A"/>
<stop offset="1" stop-color="#506980"/>
</linearGradient>
<linearGradient id="paint2_linear_1613_2222" x1="30.9855" y1="18.5414" x2="30.9855" y2="21.0263" gradientUnits="userSpaceOnUse">
<stop stop-color="#EEF7FF"/>
<stop offset="1" stop-color="white"/>
</linearGradient>
<linearGradient id="paint3_linear_1613_2222" x1="13.0472" y1="16.4454" x2="13.0472" y2="20.1797" gradientUnits="userSpaceOnUse">
<stop stop-color="#EEF7FF"/>
<stop offset="1" stop-color="white"/>
</linearGradient>
<linearGradient id="paint4_linear_1613_2222" x1="13.7016" y1="18.4212" x2="32.6289" y2="23.8643" gradientUnits="userSpaceOnUse">
<stop stop-color="white"/>
<stop offset="1" stop-color="#EAF4FF"/>
</linearGradient>
<linearGradient id="paint5_linear_1613_2222" x1="20.4959" y1="15.338" x2="21.0729" y2="17.3948" gradientUnits="userSpaceOnUse">
<stop stop-color="#FFB400"/>
<stop offset="1" stop-color="#F4895C"/>
</linearGradient>
<linearGradient id="paint6_linear_1613_2222" x1="25.8761" y1="15.4929" x2="26.1019" y2="17.2526" gradientUnits="userSpaceOnUse">
<stop stop-color="#FBCDE3"/>
<stop offset="1" stop-color="#F4B4D3"/>
</linearGradient>
<linearGradient id="paint7_linear_1613_2222" x1="16.8876" y1="16.1763" x2="17.1357" y2="17.9409" gradientUnits="userSpaceOnUse">
<stop stop-color="#FBCDE3"/>
<stop offset="1" stop-color="#F4B4D3"/>
</linearGradient>
<clipPath id="clip0_1613_2222">
<rect x="10" y="5" width="25" height="25" rx="12.5" fill="white"/>
</clipPath>
</defs>
</svg>
