<svg width="231" height="31" viewBox="0 0 231 31" fill="none" xmlns="http://www.w3.org/2000/svg">
<path d="M1.35182 30C0.992699 30 0.753283 29.7606 0.753283 29.4015V2.66668C0.753283 2.30756 0.992699 2.06814 1.35182 2.06814H5.86082C6.21995 2.06814 6.45936 2.30756 6.45936 2.66668V24.9324H14.9985C15.3577 24.9324 15.5971 25.1718 15.5971 25.5309V29.4015C15.5971 29.7606 15.3577 30 14.9985 30H1.35182ZM25.2417 30.4788C21.1317 30.4788 18.1789 27.526 18.1789 22.4185V11.0462C18.1789 10.6871 18.4183 10.4477 18.7774 10.4477H23.0869C23.446 10.4477 23.6855 10.6871 23.6855 11.0462V21.1815C23.6855 23.9348 24.9623 25.4112 27.3166 25.4112C29.631 25.4112 31.1473 23.9348 31.1473 21.1815V11.0462C31.1473 10.6871 31.3867 10.4477 31.7458 10.4477H36.0154C36.3745 10.4477 36.6538 10.6871 36.6538 11.0462V29.4015C36.6538 29.7606 36.3745 30 36.0154 30H31.9054C31.5463 30 31.3468 29.8404 31.3069 29.3616L31.1473 27.0472C30.03 29.0423 28.1546 30.4788 25.2417 30.4788ZM41.0054 30C40.6463 30 40.4069 29.7606 40.4069 29.4015V11.0462C40.4069 10.6871 40.6463 10.4477 41.0054 10.4477H45.1553C45.5144 10.4477 45.7538 10.6073 45.7538 11.0861L45.8735 13.1611C46.9509 11.3256 48.7066 9.96887 51.3801 9.96887C53.8939 9.96887 55.8492 11.1659 56.9266 13.4404C58.0039 11.4453 59.9193 9.96887 62.9519 9.96887C67.1416 9.96887 69.6954 12.8419 69.6954 17.9494V29.4015C69.6954 29.7606 69.456 30 69.0969 30H64.7874C64.4282 30 64.1888 29.7606 64.1888 29.4015V19.1465C64.1888 16.473 63.2312 15.0365 61.0764 15.0365C59.0015 15.0365 57.8044 16.473 57.8044 19.1465V29.4015C57.8044 29.7606 57.565 30 57.2059 30H52.9363C52.5373 30 52.2978 29.7606 52.2978 29.4015V19.1465C52.2978 16.473 51.3003 15.0365 49.1854 15.0365C47.1105 15.0365 45.9134 16.473 45.9134 19.1465V29.4015C45.9134 29.7606 45.674 30 45.3149 30H41.0054ZM76.2619 6.97617C74.5062 6.97617 73.1894 5.61948 73.1894 3.90367C73.1894 2.22775 74.5062 0.871066 76.2619 0.871066C78.0176 0.871066 79.2945 2.22775 79.2945 3.90367C79.2945 5.61948 78.0176 6.97617 76.2619 6.97617ZM73.4687 29.4015V11.0462C73.4687 10.6871 73.7081 10.4477 74.0672 10.4477H78.4166C78.7757 10.4477 79.0152 10.6871 79.0152 11.0462V29.4015C79.0152 29.7606 78.7757 30 78.4166 30H74.0672C73.7081 30 73.4687 29.7606 73.4687 29.4015ZM89.6997 30C89.3805 30 89.1012 29.8404 88.9815 29.5212L81.6793 11.126C81.5197 10.6871 81.7192 10.4477 82.1581 10.4477H86.5474C86.8666 10.4477 87.1459 10.6073 87.2657 10.9265L91.8944 23.6555L96.4832 10.9265C96.6029 10.6073 96.8822 10.4477 97.2014 10.4477H101.591C102.03 10.4477 102.229 10.6871 102.07 11.126L94.7673 29.5212C94.6476 29.8404 94.3683 30 94.0491 30H89.6997ZM113.008 30.4788C106.584 30.4788 102.274 26.0496 102.274 20.144C102.274 14.3981 106.305 9.96887 112.33 9.96887C118.275 9.96887 121.707 14.3582 121.707 19.3061C121.707 21.2214 121.268 22.2988 119.552 22.2988H107.661C108.26 24.7728 110.295 26.1294 113.447 26.1294C114.963 26.1294 116.4 25.8501 117.996 24.9324C118.275 24.7728 118.475 24.8127 118.674 25.092L120.151 27.127C120.35 27.4063 120.31 27.6856 119.951 28.0049C118.275 29.6808 115.761 30.4788 113.008 30.4788ZM107.581 18.4282H116.799C116.48 15.8346 114.724 14.5178 112.37 14.5178C109.936 14.5178 108.06 15.8346 107.581 18.4282ZM125.046 30C124.687 30 124.448 29.7606 124.448 29.4015V11.0462C124.448 10.6871 124.687 10.4477 125.046 10.4477H129.196C129.555 10.4477 129.755 10.6073 129.795 11.0861L129.954 13.6C130.633 11.5251 131.87 9.96887 134.184 9.96887C135.102 9.96887 135.66 10.2083 135.98 10.4477C136.259 10.6472 136.339 10.8866 136.339 11.2458V14.7572C136.339 15.236 136.059 15.3557 135.541 15.236C135.102 15.1163 134.663 15.0365 134.104 15.0365C131.391 15.0365 129.954 16.8321 129.954 19.6253V29.4015C129.954 29.7606 129.715 30 129.356 30H125.046ZM145.195 30.4788C141.923 30.4788 139.449 29.0822 137.893 27.2467C137.654 26.9674 137.694 26.5285 137.973 26.0895L139.369 24.1343C139.689 23.6555 140.048 23.7353 140.367 23.9747C142.003 25.2117 143.36 25.89 144.876 25.89C146.193 25.89 147.071 25.3713 147.071 24.254C147.071 23.2964 146.472 22.8574 145.036 22.2589L142.562 21.2613C140.048 20.2638 138.292 18.5878 138.292 15.8745C138.292 12.1236 141.484 9.96887 145.115 9.96887C147.669 9.96887 150.023 11.0063 151.659 12.9616C151.899 13.2409 151.819 13.5601 151.62 13.7995L149.864 15.9144C149.585 16.2336 149.305 16.1937 148.946 15.9144C147.669 14.837 146.552 14.2784 145.395 14.2784C144.118 14.2784 143.519 14.9966 143.519 15.8346C143.519 16.7922 144.317 17.311 145.395 17.71L148.148 18.7874C150.622 19.7849 152.577 21.5007 152.537 24.4934C152.497 28.4438 149.106 30.4788 145.195 30.4788ZM165.04 30.4788C158.616 30.4788 154.306 26.0496 154.306 20.144C154.306 14.3981 158.337 9.96887 164.362 9.96887C170.307 9.96887 173.739 14.3582 173.739 19.3061C173.739 21.2214 173.3 22.2988 171.584 22.2988H159.693C160.292 24.7728 162.327 26.1294 165.479 26.1294C166.996 26.1294 168.432 25.8501 170.028 24.9324C170.307 24.7728 170.507 24.8127 170.706 25.092L172.183 27.127C172.382 27.4063 172.342 27.6856 171.983 28.0049C170.307 29.6808 167.794 30.4788 165.04 30.4788ZM159.614 18.4282H168.831C168.512 15.8346 166.756 14.5178 164.402 14.5178C161.968 14.5178 160.092 15.8346 159.614 18.4282ZM183.914 30C183.555 30 183.316 29.7606 183.316 29.4015V11.0462C183.316 10.6871 183.555 10.4477 183.914 10.4477H188.064C188.423 10.4477 188.663 10.6073 188.663 11.0861L188.822 13.4005C189.94 11.4054 191.815 9.96887 194.728 9.96887C198.798 9.96887 201.791 12.9217 201.791 18.0292V29.4015C201.791 29.7606 201.511 30 201.152 30H196.883C196.523 30 196.284 29.7606 196.284 29.4015V19.2662C196.284 16.5129 195.007 15.0365 192.653 15.0365C190.339 15.0365 188.822 16.5129 188.822 19.2662V29.4015C188.822 29.7606 188.583 30 188.224 30H183.914ZM207.079 30C206.72 30 206.48 29.7606 206.48 29.4015V14.7173H204.166C203.807 14.7173 203.567 14.4779 203.567 14.1187V11.0462C203.567 10.6871 203.807 10.4477 204.166 10.4477H206.48V7.4151C206.48 2.8662 208.994 0.831163 213.184 0.831163C214.301 0.831163 215.139 0.910968 216.176 1.4297C216.416 1.54941 216.536 1.78883 216.536 2.02824V5.65938C216.536 5.9387 216.296 5.9786 216.017 5.9387C215.378 5.81899 214.86 5.73919 214.421 5.73919C212.466 5.73919 212.027 6.73676 212.027 8.17325V10.4477H215.937C216.296 10.4477 216.536 10.6871 216.536 11.0462V14.1187C216.536 14.4779 216.296 14.7173 215.937 14.7173H212.027V29.4015C212.027 29.7606 211.787 30 211.428 30H207.079ZM226.707 30.2394C223.595 30.2394 220.801 28.8029 220.801 24.5333V14.7173H218.327C217.968 14.7173 217.729 14.4779 217.729 14.1187V11.0462C217.729 10.6871 217.968 10.4477 218.327 10.4477H220.801V5.8589C220.801 5.49977 221.041 5.26036 221.4 5.26036H225.749C226.108 5.26036 226.348 5.49977 226.348 5.8589V10.4477H229.42C229.78 10.4477 230.019 10.6871 230.019 11.0462V14.1187C230.019 14.4779 229.78 14.7173 229.42 14.7173H226.348V23.9348C226.348 25.092 227.026 25.6506 228.064 25.6506C228.423 25.6506 228.822 25.6506 229.301 25.6107C229.74 25.5708 230.019 25.7703 230.019 26.1693V29.0822C230.019 30 228.024 30.2394 226.707 30.2394Z" fill="url(#paint0_linear_1613_2354)"/>
<defs>
<linearGradient id="paint0_linear_1613_2354" x1="78.3983" y1="-13.4516" x2="82.9937" y2="49.6114" gradientUnits="userSpaceOnUse">
<stop stop-color="#E4C2FF"/>
<stop offset="1" stop-color="#510091"/>
</linearGradient>
</defs>
</svg>
