<svg width="660" height="117" viewBox="0 0 660 117" fill="none" xmlns="http://www.w3.org/2000/svg">
<rect width="660" height="117" rx="42" fill="#ECECEC"/>
<path d="M73.4121 73.576C68.1801 73.576 64.4841 71.032 62.5161 68.344C62.2761 68.008 62.2761 67.672 62.6121 67.288L65.3961 64.072C65.7321 63.688 66.1161 63.64 66.5001 63.976C68.6121 66.136 70.5321 67.288 73.2681 67.288C76.1001 67.288 77.9721 66.088 77.9721 63.688C77.9721 61.432 76.2921 60.616 73.9401 59.56L69.8601 57.64C66.3081 56.008 63.1401 53.464 63.1401 48.472C63.1401 42.376 67.7961 39.016 73.5081 39.016C77.4921 39.016 80.7081 40.6 83.3481 43.432C83.6841 43.768 83.6841 44.152 83.3961 44.536L80.6601 47.848C80.3721 48.232 79.9881 48.328 79.6041 48.04C77.5401 46.216 75.8601 45.304 73.7481 45.304C71.3001 45.304 69.7641 46.504 69.7641 48.52C69.7641 50.488 71.1081 51.256 73.7001 52.456L77.1561 54.04C80.8041 55.768 84.6441 58.024 84.6441 63.688C84.6441 70.456 79.1241 73.576 73.4121 73.576ZM97.8827 73.576C92.9387 73.576 89.3867 70.024 89.3867 63.88V50.2C89.3867 49.768 89.6747 49.48 90.1067 49.48H95.2907C95.7227 49.48 96.0107 49.768 96.0107 50.2V62.392C96.0107 65.704 97.5467 67.48 100.379 67.48C103.163 67.48 104.987 65.704 104.987 62.392V50.2C104.987 49.768 105.275 49.48 105.707 49.48H110.843C111.275 49.48 111.611 49.768 111.611 50.2V72.28C111.611 72.712 111.275 73 110.843 73H105.899C105.467 73 105.227 72.808 105.179 72.232L104.987 69.448C103.643 71.848 101.387 73.576 97.8827 73.576ZM117.997 82.12C117.565 82.12 117.277 81.832 117.277 81.4V50.2C117.277 49.768 117.565 49.48 117.997 49.48H122.749C123.181 49.48 123.469 49.768 123.469 50.2L123.565 52.792C125.149 50.344 127.645 48.904 131.245 48.904C137.821 48.904 142.381 54.28 142.381 61.24C142.381 68.248 137.821 73.576 131.245 73.576C128.029 73.576 125.581 72.328 123.949 70.216V81.4C123.949 81.832 123.661 82.12 123.229 82.12H117.997ZM123.853 61.24C123.853 65.032 126.301 67.528 129.853 67.528C133.309 67.528 135.901 65.032 135.901 61.24C135.901 57.496 133.309 54.952 129.853 54.952C126.301 54.952 123.853 57.448 123.853 61.24ZM147.622 82.12C147.19 82.12 146.902 81.832 146.902 81.4V50.2C146.902 49.768 147.19 49.48 147.622 49.48H152.374C152.806 49.48 153.094 49.768 153.094 50.2L153.19 52.792C154.774 50.344 157.27 48.904 160.87 48.904C167.446 48.904 172.006 54.28 172.006 61.24C172.006 68.248 167.446 73.576 160.87 73.576C157.654 73.576 155.206 72.328 153.574 70.216V81.4C153.574 81.832 153.286 82.12 152.854 82.12H147.622ZM153.478 61.24C153.478 65.032 155.926 67.528 159.478 67.528C162.934 67.528 165.526 65.032 165.526 61.24C165.526 57.496 162.934 54.952 159.478 54.952C155.926 54.952 153.478 57.448 153.478 61.24ZM187.663 73.576C180.559 73.576 175.327 68.2 175.327 61.24C175.327 54.28 180.559 48.904 187.663 48.904C194.719 48.904 199.951 54.28 199.951 61.24C199.951 68.2 194.719 73.576 187.663 73.576ZM181.711 61.24C181.711 65.08 184.303 67.48 187.663 67.48C190.975 67.48 193.567 65.08 193.567 61.24C193.567 57.4 190.975 55 187.663 55C184.303 55 181.711 57.4 181.711 61.24ZM205.138 73C204.706 73 204.418 72.712 204.418 72.28V50.2C204.418 49.768 204.706 49.48 205.138 49.48H210.13C210.562 49.48 210.802 49.672 210.85 50.248L211.042 53.272C211.858 50.776 213.346 48.904 216.13 48.904C217.234 48.904 217.906 49.192 218.29 49.48C218.626 49.72 218.722 50.008 218.722 50.44V54.664C218.722 55.24 218.386 55.384 217.762 55.24C217.234 55.096 216.706 55 216.034 55C212.77 55 211.042 57.16 211.042 60.52V72.28C211.042 72.712 210.754 73 210.322 73H205.138ZM232.809 73.288C229.065 73.288 225.705 71.56 225.705 66.424V54.616H222.729C222.297 54.616 222.009 54.328 222.009 53.896V50.2C222.009 49.768 222.297 49.48 222.729 49.48H225.705V43.96C225.705 43.528 225.993 43.24 226.425 43.24H231.657C232.089 43.24 232.377 43.528 232.377 43.96V49.48H236.073C236.505 49.48 236.793 49.768 236.793 50.2V53.896C236.793 54.328 236.505 54.616 236.073 54.616H232.377V65.704C232.377 67.096 233.193 67.768 234.441 67.768C234.873 67.768 235.353 67.768 235.929 67.72C236.457 67.672 236.793 67.912 236.793 68.392V71.896C236.793 73 234.393 73.288 232.809 73.288ZM251.602 73C251.17 73 250.882 72.712 250.882 72.28V40.12C250.882 39.688 251.17 39.4 251.602 39.4H257.026C257.458 39.4 257.746 39.688 257.746 40.12V66.904H268.018C268.45 66.904 268.738 67.192 268.738 67.624V72.28C268.738 72.712 268.45 73 268.018 73H251.602ZM281.492 73.576C276.548 73.576 272.996 70.024 272.996 63.88V50.2C272.996 49.768 273.284 49.48 273.716 49.48H278.9C279.332 49.48 279.62 49.768 279.62 50.2V62.392C279.62 65.704 281.156 67.48 283.988 67.48C286.772 67.48 288.596 65.704 288.596 62.392V50.2C288.596 49.768 288.884 49.48 289.316 49.48H294.452C294.884 49.48 295.22 49.768 295.22 50.2V72.28C295.22 72.712 294.884 73 294.452 73H289.508C289.076 73 288.836 72.808 288.788 72.232L288.596 69.448C287.252 71.848 284.996 73.576 281.492 73.576ZM301.607 73C301.175 73 300.887 72.712 300.887 72.28V50.2C300.887 49.768 301.175 49.48 301.607 49.48H306.599C307.031 49.48 307.319 49.672 307.319 50.248L307.463 52.744C308.759 50.536 310.871 48.904 314.087 48.904C317.111 48.904 319.463 50.344 320.759 53.08C322.055 50.68 324.359 48.904 328.007 48.904C333.047 48.904 336.119 52.36 336.119 58.504V72.28C336.119 72.712 335.831 73 335.399 73H330.215C329.783 73 329.495 72.712 329.495 72.28V59.944C329.495 56.728 328.343 55 325.751 55C323.255 55 321.815 56.728 321.815 59.944V72.28C321.815 72.712 321.527 73 321.095 73H315.959C315.479 73 315.191 72.712 315.191 72.28V59.944C315.191 56.728 313.991 55 311.447 55C308.951 55 307.511 56.728 307.511 59.944V72.28C307.511 72.712 307.223 73 306.791 73H301.607ZM345.17 45.304C343.058 45.304 341.474 43.672 341.474 41.608C341.474 39.592 343.058 37.96 345.17 37.96C347.282 37.96 348.818 39.592 348.818 41.608C348.818 43.672 347.282 45.304 345.17 45.304ZM341.81 72.28V50.2C341.81 49.768 342.098 49.48 342.53 49.48H347.762C348.194 49.48 348.482 49.768 348.482 50.2V72.28C348.482 72.712 348.194 73 347.762 73H342.53C342.098 73 341.81 72.712 341.81 72.28ZM374.741 73.576C367.637 73.576 362.405 68.2 362.405 61.24C362.405 54.28 367.637 48.904 374.741 48.904C381.797 48.904 387.029 54.28 387.029 61.24C387.029 68.2 381.797 73.576 374.741 73.576ZM368.789 61.24C368.789 65.08 371.381 67.48 374.741 67.48C378.053 67.48 380.645 65.08 380.645 61.24C380.645 57.4 378.053 55 374.741 55C371.381 55 368.789 57.4 368.789 61.24ZM392.216 73C391.784 73 391.496 72.712 391.496 72.28V50.2C391.496 49.768 391.784 49.48 392.216 49.48H397.208C397.64 49.48 397.928 49.672 397.928 50.248L398.12 53.032C399.464 50.632 401.72 48.904 405.224 48.904C410.12 48.904 413.72 52.456 413.72 58.6V72.28C413.72 72.712 413.384 73 412.952 73H407.816C407.384 73 407.096 72.712 407.096 72.28V60.088C407.096 56.776 405.56 55 402.728 55C399.944 55 398.12 56.776 398.12 60.088V72.28C398.12 72.712 397.832 73 397.4 73H392.216ZM429.962 73C429.53 73 429.242 72.712 429.242 72.28V40.12C429.242 39.688 429.53 39.4 429.962 39.4H440.09C448.058 39.4 451.898 43.864 451.898 50.296C451.898 56.776 448.058 61.24 440.09 61.24H436.106V72.28C436.106 72.712 435.818 73 435.386 73H429.962ZM436.106 55.144H439.85C442.778 55.144 445.322 54.136 445.322 50.296C445.322 46.504 442.778 45.496 439.85 45.496H436.106V55.144ZM465.136 73.576C458.512 73.576 453.952 68.248 453.952 61.24C453.952 54.28 458.512 48.904 465.136 48.904C468.688 48.904 471.232 50.344 472.816 52.792L472.912 50.2C472.912 49.768 473.2 49.48 473.632 49.48H478.336C478.768 49.48 479.056 49.768 479.056 50.2V72.28C479.056 72.712 478.72 73 478.288 73H473.632C473.2 73 472.912 72.712 472.912 72.28L472.816 69.688C471.184 72.088 468.64 73.576 465.136 73.576ZM460.432 61.24C460.432 65.032 463.024 67.528 466.528 67.528C470.032 67.528 472.48 65.032 472.48 61.24C472.48 57.448 470.032 54.952 466.528 54.952C463.024 54.952 460.432 57.496 460.432 61.24ZM494.137 73.288C490.393 73.288 487.033 71.56 487.033 66.424V54.616H484.057C483.625 54.616 483.337 54.328 483.337 53.896V50.2C483.337 49.768 483.625 49.48 484.057 49.48H487.033V43.96C487.033 43.528 487.321 43.24 487.753 43.24H492.985C493.417 43.24 493.705 43.528 493.705 43.96V49.48H497.401C497.833 49.48 498.121 49.768 498.121 50.2V53.896C498.121 54.328 497.833 54.616 497.401 54.616H493.705V65.704C493.705 67.096 494.521 67.768 495.769 67.768C496.201 67.768 496.681 67.768 497.257 67.72C497.785 67.672 498.121 67.912 498.121 68.392V71.896C498.121 73 495.721 73.288 494.137 73.288ZM503.075 73C502.643 73 502.355 72.712 502.355 72.28V50.2C502.355 49.768 502.643 49.48 503.075 49.48H508.067C508.499 49.48 508.739 49.672 508.787 50.248L508.979 53.272C509.795 50.776 511.283 48.904 514.067 48.904C515.171 48.904 515.843 49.192 516.227 49.48C516.563 49.72 516.659 50.008 516.659 50.44V54.664C516.659 55.24 516.323 55.384 515.699 55.24C515.171 55.096 514.643 55 513.971 55C510.707 55 508.979 57.16 508.979 60.52V72.28C508.979 72.712 508.691 73 508.259 73H503.075ZM531.974 73.576C524.246 73.576 519.062 68.248 519.062 61.144C519.062 54.232 523.91 48.904 531.158 48.904C538.31 48.904 542.438 54.184 542.438 60.136C542.438 62.44 541.91 63.736 539.846 63.736H525.542C526.262 66.712 528.71 68.344 532.502 68.344C534.326 68.344 536.054 68.008 537.974 66.904C538.31 66.712 538.55 66.76 538.79 67.096L540.566 69.544C540.806 69.88 540.758 70.216 540.326 70.6C538.31 72.616 535.286 73.576 531.974 73.576ZM525.446 59.08H536.534C536.15 55.96 534.038 54.376 531.206 54.376C528.278 54.376 526.022 55.96 525.446 59.08ZM558.023 73.576C550.919 73.576 545.687 68.2 545.687 61.24C545.687 54.28 550.919 48.904 558.023 48.904C565.079 48.904 570.311 54.28 570.311 61.24C570.311 68.2 565.079 73.576 558.023 73.576ZM552.071 61.24C552.071 65.08 554.663 67.48 558.023 67.48C561.335 67.48 563.927 65.08 563.927 61.24C563.927 57.4 561.335 55 558.023 55C554.663 55 552.071 57.4 552.071 61.24ZM575.497 73C575.065 73 574.777 72.712 574.777 72.28V50.2C574.777 49.768 575.065 49.48 575.497 49.48H580.489C580.921 49.48 581.209 49.672 581.209 50.248L581.401 53.032C582.745 50.632 585.001 48.904 588.505 48.904C593.401 48.904 597.001 52.456 597.001 58.6V72.28C597.001 72.712 596.665 73 596.233 73H591.097C590.665 73 590.377 72.712 590.377 72.28V60.088C590.377 56.776 588.841 55 586.009 55C583.225 55 581.401 56.776 581.401 60.088V72.28C581.401 72.712 581.113 73 580.681 73H575.497Z" fill="#434343"/>
</svg>
