<svg width="282" height="70" viewBox="0 0 282 70" fill="none" xmlns="http://www.w3.org/2000/svg">
<rect width="282" height="70" rx="35" fill="#FF424D"/>
<rect x="20" y="10" width="50" height="50" rx="25" fill="white"/>
<path d="M36.9367 20V48H32V20H36.9367ZM49.9 20C55.4781 20 60 24.6991 60 30.4956C60 36.2922 55.4781 40.9913 49.9 40.9913C44.3219 40.9913 39.8 36.2922 39.8 30.4956C39.8 24.6991 44.3219 20 49.9 20Z" fill="#FF424D"/>
<path d="M94.1137 45.932C90.1897 45.932 87.4177 44.024 85.9417 42.008C85.7617 41.756 85.7617 41.504 86.0137 41.216L88.1017 38.804C88.3537 38.516 88.6417 38.48 88.9297 38.732C90.5137 40.352 91.9537 41.216 94.0057 41.216C96.1297 41.216 97.5337 40.316 97.5337 38.516C97.5337 36.824 96.2737 36.212 94.5097 35.42L91.4497 33.98C88.7857 32.756 86.4097 30.848 86.4097 27.104C86.4097 22.532 89.9017 20.012 94.1857 20.012C97.1737 20.012 99.5857 21.2 101.566 23.324C101.818 23.576 101.818 23.864 101.602 24.152L99.5497 26.636C99.3337 26.924 99.0457 26.996 98.7577 26.78C97.2097 25.412 95.9497 24.728 94.3657 24.728C92.5297 24.728 91.3777 25.628 91.3777 27.14C91.3777 28.616 92.3857 29.192 94.3297 30.092L96.9217 31.28C99.6577 32.576 102.538 34.268 102.538 38.516C102.538 43.592 98.3977 45.932 94.1137 45.932ZM112.467 45.932C108.759 45.932 106.095 43.268 106.095 38.66V28.4C106.095 28.076 106.311 27.86 106.635 27.86H110.523C110.847 27.86 111.063 28.076 111.063 28.4V37.544C111.063 40.028 112.215 41.36 114.339 41.36C116.427 41.36 117.795 40.028 117.795 37.544V28.4C117.795 28.076 118.011 27.86 118.335 27.86H122.187C122.511 27.86 122.763 28.076 122.763 28.4V44.96C122.763 45.284 122.511 45.5 122.187 45.5H118.479C118.155 45.5 117.975 45.356 117.939 44.924L117.795 42.836C116.787 44.636 115.095 45.932 112.467 45.932ZM127.553 52.34C127.229 52.34 127.013 52.124 127.013 51.8V28.4C127.013 28.076 127.229 27.86 127.553 27.86H131.117C131.441 27.86 131.657 28.076 131.657 28.4L131.729 30.344C132.917 28.508 134.789 27.428 137.489 27.428C142.421 27.428 145.841 31.46 145.841 36.68C145.841 41.936 142.421 45.932 137.489 45.932C135.077 45.932 133.241 44.996 132.017 43.412V51.8C132.017 52.124 131.801 52.34 131.477 52.34H127.553ZM131.945 36.68C131.945 39.524 133.781 41.396 136.445 41.396C139.037 41.396 140.981 39.524 140.981 36.68C140.981 33.872 139.037 31.964 136.445 31.964C133.781 31.964 131.945 33.836 131.945 36.68ZM149.771 52.34C149.447 52.34 149.231 52.124 149.231 51.8V28.4C149.231 28.076 149.447 27.86 149.771 27.86H153.335C153.659 27.86 153.875 28.076 153.875 28.4L153.947 30.344C155.135 28.508 157.007 27.428 159.707 27.428C164.639 27.428 168.059 31.46 168.059 36.68C168.059 41.936 164.639 45.932 159.707 45.932C157.295 45.932 155.459 44.996 154.235 43.412V51.8C154.235 52.124 154.019 52.34 153.695 52.34H149.771ZM154.163 36.68C154.163 39.524 155.999 41.396 158.663 41.396C161.255 41.396 163.199 39.524 163.199 36.68C163.199 33.872 161.255 31.964 158.663 31.964C155.999 31.964 154.163 33.836 154.163 36.68ZM179.802 45.932C174.474 45.932 170.55 41.9 170.55 36.68C170.55 31.46 174.474 27.428 179.802 27.428C185.094 27.428 189.018 31.46 189.018 36.68C189.018 41.9 185.094 45.932 179.802 45.932ZM175.338 36.68C175.338 39.56 177.282 41.36 179.802 41.36C182.286 41.36 184.23 39.56 184.23 36.68C184.23 33.8 182.286 32 179.802 32C177.282 32 175.338 33.8 175.338 36.68ZM192.908 45.5C192.584 45.5 192.368 45.284 192.368 44.96V28.4C192.368 28.076 192.584 27.86 192.908 27.86H196.652C196.976 27.86 197.156 28.004 197.192 28.436L197.336 30.704C197.948 28.832 199.064 27.428 201.152 27.428C201.98 27.428 202.484 27.644 202.772 27.86C203.024 28.04 203.096 28.256 203.096 28.58V31.748C203.096 32.18 202.844 32.288 202.376 32.18C201.98 32.072 201.584 32 201.08 32C198.632 32 197.336 33.62 197.336 36.14V44.96C197.336 45.284 197.12 45.5 196.796 45.5H192.908ZM213.662 45.716C210.854 45.716 208.334 44.42 208.334 40.568V31.712H206.102C205.778 31.712 205.562 31.496 205.562 31.172V28.4C205.562 28.076 205.778 27.86 206.102 27.86H208.334V23.72C208.334 23.396 208.55 23.18 208.874 23.18H212.798C213.122 23.18 213.338 23.396 213.338 23.72V27.86H216.11C216.434 27.86 216.65 28.076 216.65 28.4V31.172C216.65 31.496 216.434 31.712 216.11 31.712H213.338V40.028C213.338 41.072 213.95 41.576 214.886 41.576C215.21 41.576 215.57 41.576 216.002 41.54C216.398 41.504 216.65 41.684 216.65 42.044V44.672C216.65 45.5 214.85 45.716 213.662 45.716ZM233.228 45.932C229.52 45.932 226.856 43.268 226.856 38.66V28.4C226.856 28.076 227.072 27.86 227.396 27.86H231.284C231.608 27.86 231.824 28.076 231.824 28.4V37.544C231.824 40.028 232.976 41.36 235.1 41.36C237.188 41.36 238.556 40.028 238.556 37.544V28.4C238.556 28.076 238.772 27.86 239.096 27.86H242.948C243.272 27.86 243.524 28.076 243.524 28.4V44.96C243.524 45.284 243.272 45.5 242.948 45.5H239.24C238.916 45.5 238.736 45.356 238.7 44.924L238.556 42.836C237.548 44.636 235.856 45.932 233.228 45.932ZM253.786 45.932C250.834 45.932 248.602 44.672 247.198 43.016C246.982 42.764 247.018 42.368 247.27 41.972L248.53 40.208C248.818 39.776 249.142 39.848 249.43 40.064C250.906 41.18 252.13 41.792 253.498 41.792C254.686 41.792 255.478 41.324 255.478 40.316C255.478 39.452 254.938 39.056 253.642 38.516L251.41 37.616C249.142 36.716 247.558 35.204 247.558 32.756C247.558 29.372 250.438 27.428 253.714 27.428C256.018 27.428 258.142 28.364 259.618 30.128C259.834 30.38 259.762 30.668 259.582 30.884L257.998 32.792C257.746 33.08 257.494 33.044 257.17 32.792C256.018 31.82 255.01 31.316 253.966 31.316C252.814 31.316 252.274 31.964 252.274 32.72C252.274 33.584 252.994 34.052 253.966 34.412L256.45 35.384C258.682 36.284 260.446 37.832 260.41 40.532C260.374 44.096 257.314 45.932 253.786 45.932Z" fill="white"/>
</svg>
