<svg width="70" height="70" viewBox="0 0 70 70" fill="none" xmlns="http://www.w3.org/2000/svg">
<rect width="70" height="70" rx="35" fill="#2D405F"/>
<path d="M35.0718 17.6876C40.6032 17.6876 41.3934 17.6876 43.5005 17.6876C45.6077 17.6876 46.6613 18.2144 47.4515 18.4778C48.5051 18.7412 49.0319 19.268 49.8221 20.0581C50.6123 20.8483 51.1391 21.3751 51.4025 22.4287C51.6659 23.2189 51.9293 24.2725 52.1927 26.3797C52.1927 28.4869 52.1927 29.2771 52.1927 34.8084C52.1927 40.3398 52.1927 41.13 52.1927 43.2371C52.1927 45.3443 51.6659 46.3979 51.4025 47.1881C51.1391 48.2417 50.6123 48.7685 49.8221 49.5587C49.0319 50.3489 48.5051 50.8757 47.4515 51.1391C46.6613 51.4025 45.6077 51.6659 43.5005 51.9293C41.3934 51.9293 40.6032 51.9293 35.0718 51.9293C29.5405 51.9293 28.7503 51.9293 26.6431 51.9293C24.5359 51.9293 23.4823 51.4025 22.6921 51.1391C21.6385 50.8757 21.1117 50.3489 20.3215 49.5587C19.5314 48.7685 19.0046 48.2417 18.7412 47.1881C18.4778 46.3979 18.2144 45.3443 17.951 43.2371C17.951 41.13 17.951 40.3398 17.951 34.8084C17.951 29.2771 17.951 28.4869 17.951 26.3797C17.951 24.2725 18.4778 23.2189 18.7412 22.4287C19.0046 21.3751 19.5314 20.8483 20.3215 20.0581C21.1117 19.268 21.6385 18.7412 22.6921 18.4778C23.4823 18.2144 24.5359 17.951 26.6431 17.6876C28.7503 17.6876 29.5405 17.6876 35.0718 17.6876ZM35.0718 14C29.2771 14 28.7503 14 26.3797 14C24.0091 14 22.6921 14.5268 21.3751 15.0536C20.0581 15.5804 18.7412 16.3706 17.6876 17.4242C16.3706 18.7412 15.5804 19.7947 15.0536 21.3751C14.5268 22.6921 14.2634 24.2725 14 26.3797C14 28.7503 14 29.2771 14 35.0718C14 40.8666 14 41.3934 14 43.7639C14 46.1345 14.5268 47.4515 15.0536 48.7685C15.5804 50.0855 16.3706 51.4025 17.4242 52.4561C18.4778 53.5096 19.7947 54.2998 21.1117 54.8266C22.4287 55.3534 24.0091 55.6168 26.1163 55.8802C28.4869 55.8802 29.0137 55.8802 34.8084 55.8802C40.6032 55.8802 41.13 55.8802 43.5005 55.8802C45.8711 55.8802 47.1881 55.3534 48.5051 54.8266C49.8221 54.2998 51.1391 53.5096 52.1927 52.4561C53.2463 51.4025 54.0364 50.0855 54.5632 48.7685C55.09 47.4515 55.3534 45.8711 55.6168 43.7639C55.6168 41.3934 55.6168 40.8666 55.6168 35.0718C55.6168 29.2771 55.6168 28.7503 55.6168 26.3797C55.6168 24.0091 55.09 22.6921 54.5632 21.3751C54.0364 20.0581 53.2463 18.7412 52.1927 17.6876C51.1391 16.634 49.8221 15.8438 48.5051 15.317C47.1881 14.7902 45.6077 14.5268 43.5005 14.2634C41.3934 14 40.8666 14 35.0718 14Z" fill="white"/>
<path d="M35.0727 24.2725C29.0146 24.2725 24.2734 29.0136 24.2734 35.0718C24.2734 41.1299 29.0146 45.8711 35.0727 45.8711C41.1309 45.8711 45.872 41.1299 45.872 35.0718C45.872 29.0136 41.1309 24.2725 35.0727 24.2725ZM35.0727 42.1835C31.1218 42.1835 27.961 39.0227 27.961 35.0718C27.961 31.1208 31.1218 27.96 35.0727 27.96C39.0237 27.96 42.1845 31.1208 42.1845 35.0718C42.1845 39.0227 39.0237 42.1835 35.0727 42.1835Z" fill="white"/>
<path d="M48.768 23.7458C48.768 25.0628 47.7144 26.3798 46.134 26.3798C44.5536 26.3798 43.5 25.3262 43.5 23.7458C43.5 22.1654 44.5536 21.1118 46.134 21.1118C47.7144 21.1118 48.768 22.4288 48.768 23.7458Z" fill="white"/>
</svg>
