<svg width="361" height="360" viewBox="0 0 361 360" fill="none" xmlns="http://www.w3.org/2000/svg">
<path fill-rule="evenodd" clip-rule="evenodd" d="M52.5 122.921C52.5 52.2943 107.828 0 179.22 0C250.612 0 305.94 52.2943 305.94 122.921C305.94 193.548 250.612 245.842 179.22 245.842C166.395 245.842 154.08 244.159 142.53 240.972C140.286 240.36 137.915 240.539 135.773 241.482L110.633 252.573C104.055 255.454 96.6353 250.788 96.4058 243.598L95.7174 221.059C95.6154 218.28 94.366 215.704 92.3008 213.843C67.6452 191.788 52.5 159.866 52.5 122.921ZM140.361 99.8204L103.136 158.871C99.5406 164.532 106.527 170.932 111.856 166.878L151.86 136.511C154.563 134.471 158.286 134.445 161.014 136.485L190.616 158.693C199.489 165.348 212.186 163.002 218.102 153.619L255.302 94.5936C258.897 88.9332 251.911 82.5335 246.582 86.5875L206.602 116.929C203.9 118.969 200.177 118.994 197.449 116.954L167.847 94.7465C158.974 88.0918 146.277 90.4375 140.361 99.8204Z" fill="#428DDF"/>
<path d="M45.4385 345C44.9345 345 44.5985 344.72 44.5985 344.216V306.584C44.5985 306.08 44.9345 305.8 45.4385 305.8H50.0865C50.5345 305.8 50.8145 305.968 50.9825 306.36L64.5905 339.12L78.1985 306.36C78.3665 305.968 78.7025 305.8 79.1505 305.8H83.7985C84.3025 305.8 84.5825 306.08 84.5825 306.584V344.216C84.5825 344.72 84.3025 345 83.7985 345H80.1585C79.6545 345 79.3185 344.72 79.3185 344.216V315.04L67.3345 344.384C67.1665 344.832 66.8305 345 66.3825 345H62.7985C62.3505 345 62.0145 344.832 61.8465 344.384L49.8625 315.04V344.216C49.8625 344.72 49.5825 345 49.0785 345H45.4385ZM106.365 345.672C97.4052 345.672 91.6932 339.232 91.6932 331.168C91.6932 323.104 97.3492 316.888 105.581 316.888C113.757 316.888 118.517 323.104 118.517 329.88C118.517 332.12 118.069 333.128 116.221 333.128H96.6212C97.2372 338.056 100.765 341.528 106.813 341.528C109.837 341.528 112.133 340.688 114.261 339.176C114.597 338.952 114.933 338.952 115.157 339.232L116.389 340.968C116.781 341.416 116.613 341.752 116.165 342.144C113.757 344.496 110.229 345.672 106.365 345.672ZM96.6212 329.376H114.037C113.757 324.448 110.509 321.2 105.581 321.2C100.653 321.2 97.1812 324.28 96.6212 329.376ZM132.995 345.672C128.515 345.672 125.435 343.544 123.699 341.416C123.307 340.968 123.363 340.52 123.699 339.96L124.819 338.392C125.211 337.888 125.715 337.888 126.163 338.336C128.011 340.128 130.027 341.304 132.771 341.304C135.627 341.304 137.587 340.072 137.587 337.552C137.587 335.312 136.131 334.304 133.667 333.296L130.363 331.896C127.003 330.496 124.258 328.368 124.258 324.504C124.258 319.744 128.291 316.888 132.995 316.888C136.243 316.888 139.267 318.232 141.339 320.808C141.675 321.2 141.563 321.648 141.283 321.984L139.939 323.552C139.491 324.112 139.099 324.056 138.595 323.552C136.859 321.816 135.123 321.032 133.219 321.032C130.923 321.032 129.075 322.208 129.075 324.392C129.075 326.688 130.755 327.584 133.219 328.536L136.243 329.768C139.771 331.224 142.627 333.408 142.571 337.664C142.571 342.872 138.091 345.672 132.995 345.672ZM157.932 345.672C153.452 345.672 150.372 343.544 148.636 341.416C148.244 340.968 148.3 340.52 148.636 339.96L149.756 338.392C150.148 337.888 150.652 337.888 151.1 338.336C152.948 340.128 154.964 341.304 157.708 341.304C160.564 341.304 162.524 340.072 162.524 337.552C162.524 335.312 161.068 334.304 158.604 333.296L155.3 331.896C151.94 330.496 149.196 328.368 149.196 324.504C149.196 319.744 153.228 316.888 157.932 316.888C161.18 316.888 164.204 318.232 166.276 320.808C166.612 321.2 166.5 321.648 166.22 321.984L164.876 323.552C164.428 324.112 164.036 324.056 163.532 323.552C161.796 321.816 160.06 321.032 158.156 321.032C155.86 321.032 154.012 322.208 154.012 324.392C154.012 326.688 155.692 327.584 158.156 328.536L161.18 329.768C164.708 331.224 167.564 333.408 167.508 337.664C167.508 342.872 163.028 345.672 157.932 345.672ZM187.412 345.672C178.452 345.672 172.74 339.232 172.74 331.168C172.74 323.104 178.396 316.888 186.628 316.888C194.804 316.888 199.564 323.104 199.564 329.88C199.564 332.12 199.116 333.128 197.268 333.128H177.668C178.284 338.056 181.812 341.528 187.86 341.528C190.884 341.528 193.18 340.688 195.308 339.176C195.644 338.952 195.98 338.952 196.204 339.232L197.436 340.968C197.828 341.416 197.66 341.752 197.212 342.144C194.804 344.496 191.276 345.672 187.412 345.672ZM177.668 329.376H195.084C194.804 324.448 191.556 321.2 186.628 321.2C181.7 321.2 178.228 324.28 177.668 329.376ZM206.916 345C206.412 345 206.132 344.72 206.132 344.216V318.344C206.132 317.84 206.412 317.56 206.916 317.56H210.22C210.78 317.56 211.004 317.784 211.004 318.4L211.172 321.872C212.74 319.072 215.652 316.888 220.076 316.888C225.956 316.888 230.044 320.864 230.044 328.088V344.216C230.044 344.72 229.764 345 229.26 345H225.732C225.228 345 225.004 344.72 225.004 344.216V328.872C225.004 324.28 222.652 321.536 218.452 321.536C214.252 321.536 211.172 324.28 211.172 328.872V344.216C211.172 344.72 210.948 345 210.444 345H206.916ZM250.447 356.48C246.471 356.48 242.887 355.36 240.591 353.736C240.087 353.4 239.975 352.896 240.199 352.448L241.263 350.488C241.487 350.04 241.935 349.928 242.383 350.152C244.735 351.608 247.423 352.28 250.111 352.28C255.039 352.28 259.743 350.096 259.743 343.656V339.456C257.783 342.648 254.479 344.608 249.887 344.608C242.047 344.608 236.615 338.896 236.615 330.72C236.615 322.656 242.047 316.888 249.831 316.888C254.479 316.888 257.839 318.848 259.799 322.152L259.855 318.344C259.855 317.84 260.135 317.56 260.639 317.56H263.887C264.391 317.56 264.615 317.84 264.615 318.344V343.824C264.615 352.952 257.503 356.48 250.447 356.48ZM241.543 330.72C241.543 336.432 245.463 340.016 250.671 340.016C255.935 340.016 259.631 336.488 259.631 330.832C259.631 325.12 255.935 321.48 250.671 321.48C245.463 321.48 241.543 325.12 241.543 330.72ZM285.85 345.672C276.89 345.672 271.178 339.232 271.178 331.168C271.178 323.104 276.834 316.888 285.066 316.888C293.242 316.888 298.002 323.104 298.002 329.88C298.002 332.12 297.554 333.128 295.706 333.128H276.106C276.722 338.056 280.25 341.528 286.298 341.528C289.322 341.528 291.618 340.688 293.746 339.176C294.082 338.952 294.418 338.952 294.642 339.232L295.874 340.968C296.266 341.416 296.098 341.752 295.65 342.144C293.242 344.496 289.714 345.672 285.85 345.672ZM276.106 329.376H293.522C293.242 324.448 289.994 321.2 285.066 321.2C280.138 321.2 276.666 324.28 276.106 329.376ZM305.354 345C304.85 345 304.57 344.72 304.57 344.216V318.344C304.57 317.84 304.85 317.56 305.354 317.56H308.658C309.218 317.56 309.442 317.784 309.442 318.4L309.61 321.648C310.618 318.96 312.466 316.888 315.826 316.888C317.002 316.888 317.842 317.112 318.346 317.448C318.682 317.728 318.794 317.952 318.794 318.456V321.256C318.794 321.872 318.402 321.984 317.786 321.816C317.058 321.648 316.386 321.536 315.77 321.536C311.178 321.536 309.61 325.4 309.61 328.704V344.216C309.61 344.72 309.386 345 308.882 345H305.354Z" fill="#2D405F"/>
</svg>
