<svg width="435" height="117" viewBox="0 0 435 117" fill="none" xmlns="http://www.w3.org/2000/svg">
<rect width="435" height="117" rx="42" fill="#2D405F"/>
<path d="M73.5058 73.576C68.2738 73.576 64.5778 71.032 62.6098 68.344C62.3698 68.008 62.3698 67.672 62.7058 67.288L65.4898 64.072C65.8258 63.688 66.2098 63.64 66.5938 63.976C68.7058 66.136 70.6258 67.288 73.3618 67.288C76.1938 67.288 78.0658 66.088 78.0658 63.688C78.0658 61.432 76.3858 60.616 74.0338 59.56L69.9538 57.64C66.4018 56.008 63.2338 53.464 63.2338 48.472C63.2338 42.376 67.8898 39.016 73.6018 39.016C77.5858 39.016 80.8018 40.6 83.4418 43.432C83.7778 43.768 83.7778 44.152 83.4898 44.536L80.7538 47.848C80.4658 48.232 80.0818 48.328 79.6978 48.04C77.6338 46.216 75.9538 45.304 73.8418 45.304C71.3938 45.304 69.8578 46.504 69.8578 48.52C69.8578 50.488 71.2018 51.256 73.7938 52.456L77.2498 54.04C80.8978 55.768 84.7378 58.024 84.7378 63.688C84.7378 70.456 79.2178 73.576 73.5058 73.576ZM99.6988 73.576C93.0748 73.576 88.5148 68.248 88.5148 61.24C88.5148 54.28 93.0748 48.904 99.6988 48.904C103.251 48.904 105.795 50.344 107.379 52.792L107.475 50.2C107.475 49.768 107.763 49.48 108.195 49.48H112.899C113.331 49.48 113.619 49.768 113.619 50.2V72.28C113.619 72.712 113.283 73 112.851 73H108.195C107.763 73 107.475 72.712 107.475 72.28L107.379 69.688C105.747 72.088 103.203 73.576 99.6988 73.576ZM94.9948 61.24C94.9948 65.032 97.5868 67.528 101.091 67.528C104.595 67.528 107.043 65.032 107.043 61.24C107.043 57.448 104.595 54.952 101.091 54.952C97.5868 54.952 94.9948 57.496 94.9948 61.24ZM124.188 82.12C123.66 82.12 123.372 81.832 123.612 81.304L127.02 73.048L117.948 50.296C117.756 49.768 117.996 49.48 118.524 49.48H123.804C124.188 49.48 124.524 49.672 124.668 50.056L130.284 65.32L135.852 50.056C135.996 49.672 136.332 49.48 136.716 49.48H141.996C142.524 49.48 142.764 49.768 142.572 50.296L130.14 81.544C129.996 81.928 129.66 82.12 129.276 82.12H124.188ZM156.95 73C156.518 73 156.23 72.712 156.23 72.28V39.4C156.23 38.968 156.518 38.68 156.95 38.68H162.134C162.566 38.68 162.854 38.968 162.854 39.4V53.032C164.198 50.632 166.454 48.904 169.958 48.904C174.854 48.904 178.454 52.456 178.454 58.6V72.28C178.454 72.712 178.118 73 177.686 73H172.55C172.118 73 171.83 72.712 171.83 72.28V60.088C171.83 56.776 170.294 55 167.462 55C164.678 55 162.854 56.776 162.854 60.088V72.28C162.854 72.712 162.566 73 162.134 73H156.95ZM187.529 45.304C185.417 45.304 183.833 43.672 183.833 41.608C183.833 39.592 185.417 37.96 187.529 37.96C189.641 37.96 191.177 39.592 191.177 41.608C191.177 43.672 189.641 45.304 187.529 45.304ZM184.169 72.28V50.2C184.169 49.768 184.457 49.48 184.889 49.48H190.121C190.553 49.48 190.841 49.768 190.841 50.2V72.28C190.841 72.712 190.553 73 190.121 73H184.889C184.457 73 184.169 72.712 184.169 72.28ZM215.325 73.288C211.581 73.288 208.221 71.56 208.221 66.424V54.616H205.245C204.813 54.616 204.525 54.328 204.525 53.896V50.2C204.525 49.768 204.813 49.48 205.245 49.48H208.221V43.96C208.221 43.528 208.509 43.24 208.941 43.24H214.173C214.605 43.24 214.893 43.528 214.893 43.96V49.48H218.589C219.021 49.48 219.309 49.768 219.309 50.2V53.896C219.309 54.328 219.021 54.616 218.589 54.616H214.893V65.704C214.893 67.096 215.709 67.768 216.957 67.768C217.389 67.768 217.869 67.768 218.445 67.72C218.973 67.672 219.309 67.912 219.309 68.392V71.896C219.309 73 216.909 73.288 215.325 73.288ZM234.445 73.576C227.341 73.576 222.109 68.2 222.109 61.24C222.109 54.28 227.341 48.904 234.445 48.904C241.501 48.904 246.733 54.28 246.733 61.24C246.733 68.2 241.501 73.576 234.445 73.576ZM228.493 61.24C228.493 65.08 231.085 67.48 234.445 67.48C237.757 67.48 240.349 65.08 240.349 61.24C240.349 57.4 237.757 55 234.445 55C231.085 55 228.493 57.4 228.493 61.24ZM261.774 73C261.342 73 261.054 72.712 261.054 72.28V40.12C261.054 39.688 261.342 39.4 261.774 39.4H267.198C267.63 39.4 267.918 39.688 267.918 40.12V66.904H278.19C278.622 66.904 278.91 67.192 278.91 67.624V72.28C278.91 72.712 278.622 73 278.19 73H261.774ZM291.664 73.576C286.72 73.576 283.168 70.024 283.168 63.88V50.2C283.168 49.768 283.456 49.48 283.888 49.48H289.072C289.504 49.48 289.792 49.768 289.792 50.2V62.392C289.792 65.704 291.328 67.48 294.16 67.48C296.944 67.48 298.768 65.704 298.768 62.392V50.2C298.768 49.768 299.056 49.48 299.488 49.48H304.624C305.056 49.48 305.392 49.768 305.392 50.2V72.28C305.392 72.712 305.056 73 304.624 73H299.68C299.248 73 299.008 72.808 298.96 72.232L298.768 69.448C297.424 71.848 295.168 73.576 291.664 73.576ZM311.779 73C311.347 73 311.059 72.712 311.059 72.28V50.2C311.059 49.768 311.347 49.48 311.779 49.48H316.771C317.203 49.48 317.491 49.672 317.491 50.248L317.635 52.744C318.931 50.536 321.043 48.904 324.259 48.904C327.283 48.904 329.635 50.344 330.931 53.08C332.227 50.68 334.531 48.904 338.179 48.904C343.219 48.904 346.291 52.36 346.291 58.504V72.28C346.291 72.712 346.003 73 345.571 73H340.387C339.955 73 339.667 72.712 339.667 72.28V59.944C339.667 56.728 338.515 55 335.923 55C333.427 55 331.987 56.728 331.987 59.944V72.28C331.987 72.712 331.699 73 331.267 73H326.131C325.651 73 325.363 72.712 325.363 72.28V59.944C325.363 56.728 324.163 55 321.619 55C319.123 55 317.683 56.728 317.683 59.944V72.28C317.683 72.712 317.395 73 316.963 73H311.779ZM355.342 45.304C353.23 45.304 351.646 43.672 351.646 41.608C351.646 39.592 353.23 37.96 355.342 37.96C357.454 37.96 358.99 39.592 358.99 41.608C358.99 43.672 357.454 45.304 355.342 45.304ZM351.982 72.28V50.2C351.982 49.768 352.27 49.48 352.702 49.48H357.934C358.366 49.48 358.654 49.768 358.654 50.2V72.28C358.654 72.712 358.366 73 357.934 73H352.702C352.27 73 351.982 72.712 351.982 72.28ZM366.226 62.68C365.794 62.68 365.506 62.392 365.506 61.96L364.786 40.12C364.786 39.688 365.074 39.4 365.506 39.4H370.834C371.266 39.4 371.554 39.688 371.554 40.12L370.786 61.96C370.786 62.392 370.594 62.68 370.066 62.68H366.226ZM364.21 69.688C364.21 67.48 365.938 65.656 368.146 65.656C370.354 65.656 372.13 67.48 372.13 69.688C372.13 71.848 370.354 73.624 368.146 73.624C365.938 73.624 364.21 71.848 364.21 69.688Z" fill="white"/>
</svg>
