<svg width="325" height="70" viewBox="0 0 325 70" fill="none" xmlns="http://www.w3.org/2000/svg">
<rect width="325" height="70" rx="35" fill="url(#paint0_linear_1582_3897)"/>
<g clip-path="url(#clip0_1582_3897)">
<rect x="20" y="10" width="50" height="50" rx="25" fill="white"/>
<path d="M31.0718 61.055C24.1442 56.9403 25.4916 48.3074 28.1066 41.9506C28.3997 41.452 27.6423 41.0904 27.3872 40.7212C25.1605 38.6086 21.453 36.2943 21.4492 32.9675C21.4492 32.1491 22.1153 31.4754 22.9337 31.483C24.8065 31.4982 26.782 32.9713 28.3807 33.7136C29.6482 34.7299 28.8184 30.2954 29.0354 29.5608C29.1458 25.4841 31.0871 21.3617 34.5242 19.0398C36.6901 17.5211 39.4003 16.5771 42.1257 16.4629C41.7717 16.0975 41.0675 15.9757 41.0218 15.4999C43.1724 15.3895 42.7195 17.9207 42.9288 14.2476C43.3856 14.7652 43.2676 15.4161 43.4427 16.0061C44.676 14.3732 45.1974 15.0165 43.732 16.4324C53.3774 15.2791 59.54 25.3623 57.9642 34.0942C57.6787 36.8577 60.6972 35.495 64.1267 36.6483C65.596 37.284 68.7325 38.3269 68.7515 39.8609C68.8162 40.4205 68.3709 40.8925 68.3709 40.8925C66.7798 42.3351 62.7678 42.0382 59.993 42.6929C58.4133 42.7386 60.8266 47.5423 61.0816 48.9582C64.3018 64.8082 41.9886 67.6211 32.0196 61.6488M44.242 62.7222C60.4612 62.8897 62.292 52.9969 56.0267 40.1426C55.1131 37.8283 56.2475 35.6548 56.4416 33.3405C56.4454 28.8261 54.5232 22.0697 49.0724 22.0126C44.6531 21.7462 43.2181 30.1317 45.8521 32.2633C46.7086 32.8267 44.5351 34.3645 43.9756 34.7223C42.6471 35.4835 38.8864 35.1486 38.3535 33.626C38.2926 33.4547 38.3154 33.2606 38.4106 33.1045C39.602 31.1709 38.2774 25.1567 36.3932 24.0757C31.856 22.2372 30.2002 28.9746 30.1964 32.3356C29.7168 35.1143 31.3116 37.9463 30.0936 40.5879C23.459 53.781 29.4541 63.3046 44.242 62.7222Z" fill="url(#paint1_linear_1582_3897)"/>
<path d="M58.0265 37.1128C59.3473 36.8045 69.4267 38.9551 66.1037 40.5233C63.8465 41.5968 60.7176 40.314 58.586 41.9241C58.4528 42.0345 58.3196 42.1677 58.2092 41.8784C57.9352 40.7593 56.1385 37.2917 58.0265 37.1128Z" fill="url(#paint2_linear_1582_3897)"/>
<path d="M28.7048 40.3592C27.8902 38.4141 25.6825 37.9041 24.4645 36.294C24.0267 35.6278 23.2388 34.8437 22.881 34.0215C22.6184 33.4201 23.1513 32.7692 23.7945 32.9101C25.4732 33.2755 27.2203 34.5696 28.6896 35.388C29.7211 36.6632 29.4775 38.928 28.7048 40.3592Z" fill="url(#paint3_linear_1582_3897)"/>
<path d="M44.2427 62.722C29.4548 63.293 23.4597 53.7998 30.0942 40.5953C31.3123 37.9537 29.7174 35.1179 30.197 32.343C30.1932 28.9782 31.8604 22.2408 36.3939 24.0831C38.3047 25.1185 39.6978 31.6236 38.2933 33.2794C38.3237 35.0913 42.5488 35.5518 43.9762 34.7296C44.551 34.349 46.7016 32.8531 45.8566 32.2707C43.2264 30.1239 44.6462 21.7726 49.0768 22.02C54.5314 22.0771 56.446 28.8335 56.446 33.3441C56.2519 35.6584 55.1214 37.8319 56.035 40.1462C62.2889 52.9738 60.4656 62.9009 44.2427 62.722Z" fill="url(#paint4_linear_1582_3897)"/>
<path d="M41.8254 34.783C40.7102 34.8401 39.6938 34.4252 38.727 33.8505C38.4644 33.6944 38.5024 33.5269 38.7537 33.4432C39.5949 33.1615 40.2991 32.6324 41.0565 32.1985C41.9587 31.6808 42.9027 31.8673 43.8238 32.1414C44.3795 32.3051 44.92 32.5182 45.5177 32.4878C45.6889 32.4802 45.8222 32.5829 45.6928 32.7276C44.9429 33.5574 44.2501 34.4785 43.0473 34.6955C42.659 34.7678 42.2632 34.8059 41.8254 34.783Z" fill="url(#paint5_linear_1582_3897)"/>
<path d="M51.6572 34.547C51.1737 34.5775 50.7626 34.4861 50.4277 34.155C49.8453 33.5764 49.9138 32.7808 50.6142 32.3583C51.345 31.913 52.1253 31.9092 52.8942 32.2594C53.3472 32.4649 53.5794 32.9597 53.5185 33.466C53.4652 33.9114 53.0237 34.3301 52.4337 34.4671C52.171 34.528 51.9046 34.5851 51.6572 34.547Z" fill="url(#paint6_linear_1582_3897)"/>
<path d="M34.0108 33.3823C34.2544 33.3899 34.6084 33.4166 34.8977 33.6297C35.5106 34.0751 35.5677 34.8288 35.0842 35.4188C34.5475 36.0773 33.2762 36.0697 32.6824 35.6776C32.0505 35.2589 32.0467 34.353 32.6367 33.8505C32.9374 33.5955 33.5122 33.3861 34.0108 33.3823Z" fill="url(#paint7_linear_1582_3897)"/>
<path d="M50.8611 30.7294C50.8573 31.426 50.2901 31.9703 49.5783 31.9627C48.9084 31.9551 48.3945 31.4146 48.3945 30.7142C48.3945 29.8578 49.0264 29.4847 49.7268 29.4315C50.3472 29.382 50.8611 30.01 50.8611 30.7294ZM49.8029 29.6941C49.6887 29.6979 49.5859 29.7816 49.5783 29.9567C49.5707 30.1318 49.6583 30.2384 49.8372 30.2384C50.0085 30.2384 50.1645 30.1965 50.1721 29.9872C50.1835 29.7778 50.0351 29.7207 49.8029 29.6941Z" fill="#05294A"/>
<path d="M49.8037 29.6938C50.0321 29.7205 50.1843 29.7776 50.1729 29.9869C50.1615 30.1963 50.0092 30.2382 49.838 30.2382C49.6552 30.2382 49.5677 30.1316 49.5791 29.9565C49.5867 29.7814 49.6933 29.6977 49.8037 29.6938Z" fill="white"/>
<path d="M35.2968 33.0933C34.6573 33.0895 34.2386 32.6441 34.2462 31.9742C34.2538 31.2662 34.8628 30.6762 35.5861 30.6724C36.1799 30.6686 36.6442 31.1901 36.6366 31.86C36.6328 32.5451 36.0276 33.0971 35.2968 33.0933ZM35.7269 31.5098C35.9096 31.5212 36.0352 31.4451 36.02 31.2662C35.9971 31.0644 35.8487 30.9312 35.647 30.935C35.4947 30.9388 35.3615 31.0454 35.3881 31.2205C35.411 31.407 35.5175 31.5364 35.7269 31.5098Z" fill="#05294A"/>
<path d="M35.7269 31.51C35.5175 31.5367 35.4109 31.4034 35.3843 31.2245C35.3576 31.0494 35.4909 30.939 35.6431 30.939C35.8449 30.9352 35.9971 31.0685 36.0161 31.2702C36.0352 31.4453 35.9058 31.5214 35.7269 31.51Z" fill="white"/>
</g>
<path d="M87.151 45.5C86.827 45.5 86.611 45.284 86.611 44.96V20.84C86.611 20.516 86.827 20.3 87.151 20.3H91.219C91.543 20.3 91.759 20.516 91.759 20.84V40.928H99.463C99.787 40.928 100.003 41.144 100.003 41.468V44.96C100.003 45.284 99.787 45.5 99.463 45.5H87.151ZM109.568 45.932C105.86 45.932 103.196 43.268 103.196 38.66V28.4C103.196 28.076 103.412 27.86 103.736 27.86H107.624C107.948 27.86 108.164 28.076 108.164 28.4V37.544C108.164 40.028 109.316 41.36 111.44 41.36C113.528 41.36 114.896 40.028 114.896 37.544V28.4C114.896 28.076 115.112 27.86 115.436 27.86H119.288C119.612 27.86 119.864 28.076 119.864 28.4V44.96C119.864 45.284 119.612 45.5 119.288 45.5H115.58C115.256 45.5 115.076 45.356 115.04 44.924L114.896 42.836C113.888 44.636 112.196 45.932 109.568 45.932ZM124.654 45.5C124.33 45.5 124.114 45.284 124.114 44.96V28.4C124.114 28.076 124.33 27.86 124.654 27.86H128.398C128.722 27.86 128.938 28.004 128.938 28.436L129.046 30.308C130.018 28.652 131.602 27.428 134.014 27.428C136.282 27.428 138.046 28.508 139.018 30.56C139.99 28.76 141.718 27.428 144.454 27.428C148.234 27.428 150.538 30.02 150.538 34.628V44.96C150.538 45.284 150.322 45.5 149.998 45.5H146.11C145.786 45.5 145.57 45.284 145.57 44.96V35.708C145.57 33.296 144.706 32 142.762 32C140.89 32 139.81 33.296 139.81 35.708V44.96C139.81 45.284 139.594 45.5 139.27 45.5H135.418C135.058 45.5 134.842 45.284 134.842 44.96V35.708C134.842 33.296 133.942 32 132.034 32C130.162 32 129.082 33.296 129.082 35.708V44.96C129.082 45.284 128.866 45.5 128.542 45.5H124.654ZM157.326 24.728C155.742 24.728 154.554 23.504 154.554 21.956C154.554 20.444 155.742 19.22 157.326 19.22C158.91 19.22 160.062 20.444 160.062 21.956C160.062 23.504 158.91 24.728 157.326 24.728ZM154.806 44.96V28.4C154.806 28.076 155.022 27.86 155.346 27.86H159.27C159.594 27.86 159.81 28.076 159.81 28.4V44.96C159.81 45.284 159.594 45.5 159.27 45.5H155.346C155.022 45.5 154.806 45.284 154.806 44.96ZM170.314 45.5C170.026 45.5 169.774 45.356 169.666 45.068L163.078 28.472C162.934 28.076 163.114 27.86 163.51 27.86H167.47C167.758 27.86 168.01 28.004 168.118 28.292L172.294 39.776L176.434 28.292C176.542 28.004 176.794 27.86 177.082 27.86H181.042C181.438 27.86 181.618 28.076 181.474 28.472L174.886 45.068C174.778 45.356 174.526 45.5 174.238 45.5H170.314ZM192.207 45.932C186.411 45.932 182.523 41.936 182.523 36.608C182.523 31.424 186.159 27.428 191.595 27.428C196.959 27.428 200.055 31.388 200.055 35.852C200.055 37.58 199.659 38.552 198.111 38.552H187.383C187.923 40.784 189.759 42.008 192.603 42.008C193.971 42.008 195.267 41.756 196.707 40.928C196.959 40.784 197.139 40.82 197.319 41.072L198.651 42.908C198.831 43.16 198.795 43.412 198.471 43.7C196.959 45.212 194.691 45.932 192.207 45.932ZM187.311 35.06H195.627C195.339 32.72 193.755 31.532 191.631 31.532C189.435 31.532 187.743 32.72 187.311 35.06ZM203.932 45.5C203.608 45.5 203.392 45.284 203.392 44.96V28.4C203.392 28.076 203.608 27.86 203.932 27.86H207.676C208 27.86 208.18 28.004 208.216 28.436L208.36 30.704C208.972 28.832 210.088 27.428 212.176 27.428C213.004 27.428 213.508 27.644 213.796 27.86C214.048 28.04 214.12 28.256 214.12 28.58V31.748C214.12 32.18 213.868 32.288 213.4 32.18C213.004 32.072 212.608 32 212.104 32C209.656 32 208.36 33.62 208.36 36.14V44.96C208.36 45.284 208.144 45.5 207.82 45.5H203.932ZM222.974 45.932C220.022 45.932 217.79 44.672 216.386 43.016C216.17 42.764 216.206 42.368 216.458 41.972L217.718 40.208C218.006 39.776 218.33 39.848 218.618 40.064C220.094 41.18 221.318 41.792 222.686 41.792C223.874 41.792 224.666 41.324 224.666 40.316C224.666 39.452 224.126 39.056 222.83 38.516L220.598 37.616C218.33 36.716 216.746 35.204 216.746 32.756C216.746 29.372 219.626 27.428 222.902 27.428C225.206 27.428 227.33 28.364 228.806 30.128C229.022 30.38 228.95 30.668 228.77 30.884L227.186 32.792C226.934 33.08 226.682 33.044 226.358 32.792C225.206 31.82 224.198 31.316 223.154 31.316C222.002 31.316 221.462 31.964 221.462 32.72C221.462 33.584 222.182 34.052 223.154 34.412L225.638 35.384C227.87 36.284 229.634 37.832 229.598 40.532C229.562 44.096 226.502 45.932 222.974 45.932ZM241.742 45.932C235.946 45.932 232.058 41.936 232.058 36.608C232.058 31.424 235.694 27.428 241.13 27.428C246.494 27.428 249.59 31.388 249.59 35.852C249.59 37.58 249.194 38.552 247.646 38.552H236.918C237.458 40.784 239.294 42.008 242.138 42.008C243.506 42.008 244.802 41.756 246.242 40.928C246.494 40.784 246.674 40.82 246.854 41.072L248.186 42.908C248.366 43.16 248.33 43.412 248.006 43.7C246.494 45.212 244.226 45.932 241.742 45.932ZM236.846 35.06H245.162C244.874 32.72 243.29 31.532 241.166 31.532C238.97 31.532 237.278 32.72 236.846 35.06ZM260.498 45.5C260.174 45.5 259.958 45.284 259.958 44.96V28.4C259.958 28.076 260.174 27.86 260.498 27.86H264.242C264.566 27.86 264.782 28.004 264.782 28.436L264.926 30.524C265.934 28.724 267.626 27.428 270.254 27.428C273.926 27.428 276.626 30.092 276.626 34.7V44.96C276.626 45.284 276.374 45.5 276.05 45.5H272.198C271.874 45.5 271.658 45.284 271.658 44.96V35.816C271.658 33.332 270.506 32 268.382 32C266.294 32 264.926 33.332 264.926 35.816V44.96C264.926 45.284 264.71 45.5 264.386 45.5H260.498ZM282.261 45.5C281.937 45.5 281.721 45.284 281.721 44.96V31.712H279.633C279.309 31.712 279.093 31.496 279.093 31.172V28.4C279.093 28.076 279.309 27.86 279.633 27.86H281.721V25.124C281.721 21.02 283.989 19.184 287.769 19.184C288.777 19.184 289.533 19.256 290.469 19.724C290.685 19.832 290.793 20.048 290.793 20.264V23.54C290.793 23.792 290.577 23.828 290.325 23.792C289.749 23.684 289.281 23.612 288.885 23.612C287.121 23.612 286.725 24.512 286.725 25.808V27.86H290.253C290.577 27.86 290.793 28.076 290.793 28.4V31.172C290.793 31.496 290.577 31.712 290.253 31.712H286.725V44.96C286.725 45.284 286.509 45.5 286.185 45.5H282.261ZM300.833 45.716C298.025 45.716 295.505 44.42 295.505 40.568V31.712H293.273C292.949 31.712 292.733 31.496 292.733 31.172V28.4C292.733 28.076 292.949 27.86 293.273 27.86H295.505V23.72C295.505 23.396 295.721 23.18 296.045 23.18H299.969C300.293 23.18 300.509 23.396 300.509 23.72V27.86H303.281C303.605 27.86 303.821 28.076 303.821 28.4V31.172C303.821 31.496 303.605 31.712 303.281 31.712H300.509V40.028C300.509 41.072 301.121 41.576 302.057 41.576C302.381 41.576 302.741 41.576 303.173 41.54C303.569 41.504 303.821 41.684 303.821 42.044V44.672C303.821 45.5 302.021 45.716 300.833 45.716Z" fill="white"/>
<defs>
<linearGradient id="paint0_linear_1582_3897" x1="80.6464" y1="-7.33871" x2="88.9133" y2="77.1962" gradientUnits="userSpaceOnUse">
<stop stop-color="#66A1EA"/>
<stop offset="1" stop-color="#9A3EE3"/>
</linearGradient>
<linearGradient id="paint1_linear_1582_3897" x1="28.6015" y1="14.2323" x2="59.6808" y2="72.166" gradientUnits="userSpaceOnUse">
<stop stop-color="#05294A"/>
<stop offset="1" stop-color="#506980"/>
</linearGradient>
<linearGradient id="paint2_linear_1582_3897" x1="61.973" y1="37.083" x2="61.973" y2="42.0529" gradientUnits="userSpaceOnUse">
<stop stop-color="#EEF7FF"/>
<stop offset="1" stop-color="white"/>
</linearGradient>
<linearGradient id="paint3_linear_1582_3897" x1="26.0945" y1="32.8906" x2="26.0945" y2="40.3592" gradientUnits="userSpaceOnUse">
<stop stop-color="#EEF7FF"/>
<stop offset="1" stop-color="white"/>
</linearGradient>
<linearGradient id="paint4_linear_1582_3897" x1="27.4031" y1="36.8422" x2="65.2579" y2="47.7286" gradientUnits="userSpaceOnUse">
<stop stop-color="white"/>
<stop offset="1" stop-color="#EAF4FF"/>
</linearGradient>
<linearGradient id="paint5_linear_1582_3897" x1="40.9918" y1="30.6759" x2="42.1457" y2="34.7897" gradientUnits="userSpaceOnUse">
<stop stop-color="#FFB400"/>
<stop offset="1" stop-color="#F4895C"/>
</linearGradient>
<linearGradient id="paint6_linear_1582_3897" x1="51.7523" y1="30.9858" x2="52.2037" y2="34.5052" gradientUnits="userSpaceOnUse">
<stop stop-color="#FBCDE3"/>
<stop offset="1" stop-color="#F4B4D3"/>
</linearGradient>
<linearGradient id="paint7_linear_1582_3897" x1="33.7772" y1="32.3526" x2="34.2734" y2="35.8819" gradientUnits="userSpaceOnUse">
<stop stop-color="#FBCDE3"/>
<stop offset="1" stop-color="#F4B4D3"/>
</linearGradient>
<clipPath id="clip0_1582_3897">
<rect x="20" y="10" width="50" height="50" rx="25" fill="white"/>
</clipPath>
</defs>
</svg>
