<svg width="70" height="70" viewBox="0 0 70 70" fill="none" xmlns="http://www.w3.org/2000/svg">
<rect width="70" height="70" rx="35" fill="#428DDF"/>
<path d="M58 22.2615C56.3812 22.9844 54.6413 23.4728 52.8155 23.6925C54.6791 22.5678 56.1106 20.7868 56.7845 18.6645C55.0401 19.7061 53.1083 20.4623 51.0519 20.8699C49.4055 19.1035 47.0594 18 44.4629 18C39.4777 18 35.4357 22.069 35.4357 27.088C35.4357 27.8003 35.5155 28.494 35.6695 29.1592C28.1671 28.7802 21.5156 25.1619 17.0632 19.6634C16.2862 21.0056 15.8409 22.5667 15.8409 24.2323C15.8409 27.3855 17.4346 30.1671 19.8568 31.7969C18.3771 31.7497 16.9851 31.3408 15.7681 30.6602C15.767 30.6981 15.767 30.7362 15.767 30.7745C15.767 35.1777 18.8787 38.8507 23.0084 39.6862C22.2509 39.8939 21.4534 40.0049 20.6301 40.0049C20.0485 40.0049 19.4831 39.9477 18.9318 39.8419C20.0806 43.4524 23.4143 46.0799 27.3646 46.153C24.2751 48.5908 20.3829 50.0437 16.1534 50.0437C15.4247 50.0437 14.7062 50.0005 14 49.9166C17.995 52.4954 22.74 54 27.8378 54C44.4419 54 53.522 40.1517 53.522 28.1416C53.522 27.7476 53.5132 27.3558 53.4958 26.9657C55.2593 25.6846 56.7898 24.0841 58 22.2615Z" fill="white"/>
</svg>
