<svg width="325" height="117" viewBox="0 0 325 117" fill="none" xmlns="http://www.w3.org/2000/svg">
<rect width="325" height="117" rx="42" fill="#78A9E5"/>
<path d="M70.6336 73C70.2016 73 69.9136 72.712 69.9136 72.28V45.496H63.3376C62.9056 45.496 62.6176 45.208 62.6176 44.776V40.12C62.6176 39.688 62.9056 39.4 63.3376 39.4H83.3056C83.7376 39.4 84.0256 39.688 84.0256 40.12V44.776C84.0256 45.208 83.7376 45.496 83.3056 45.496H76.7776V72.28C76.7776 72.712 76.4896 73 76.0576 73H70.6336ZM87.5833 73C87.1513 73 86.8633 72.712 86.8633 72.28V50.2C86.8633 49.768 87.1513 49.48 87.5833 49.48H92.5753C93.0073 49.48 93.2473 49.672 93.2953 50.248L93.4873 53.272C94.3033 50.776 95.7913 48.904 98.5753 48.904C99.6793 48.904 100.351 49.192 100.735 49.48C101.071 49.72 101.167 50.008 101.167 50.44V54.664C101.167 55.24 100.831 55.384 100.207 55.24C99.6793 55.096 99.1513 55 98.4793 55C95.2153 55 93.4873 57.16 93.4873 60.52V72.28C93.4873 72.712 93.1993 73 92.7673 73H87.5833ZM110.274 82.12C109.746 82.12 109.458 81.832 109.698 81.304L113.106 73.048L104.034 50.296C103.842 49.768 104.082 49.48 104.61 49.48H109.89C110.274 49.48 110.61 49.672 110.754 50.056L116.37 65.32L121.938 50.056C122.082 49.672 122.418 49.48 122.802 49.48H128.082C128.61 49.48 128.85 49.768 128.658 50.296L116.226 81.544C116.082 81.928 115.746 82.12 115.362 82.12H110.274ZM145.724 45.304C143.612 45.304 142.028 43.672 142.028 41.608C142.028 39.592 143.612 37.96 145.724 37.96C147.836 37.96 149.372 39.592 149.372 41.608C149.372 43.672 147.836 45.304 145.724 45.304ZM142.364 72.28V50.2C142.364 49.768 142.652 49.48 143.084 49.48H148.316C148.748 49.48 149.036 49.768 149.036 50.2V72.28C149.036 72.712 148.748 73 148.316 73H143.084C142.652 73 142.364 72.712 142.364 72.28ZM163.676 73.288C159.932 73.288 156.572 71.56 156.572 66.424V54.616H153.596C153.164 54.616 152.876 54.328 152.876 53.896V50.2C152.876 49.768 153.164 49.48 153.596 49.48H156.572V43.96C156.572 43.528 156.86 43.24 157.292 43.24H162.524C162.956 43.24 163.244 43.528 163.244 43.96V49.48H166.94C167.372 49.48 167.66 49.768 167.66 50.2V53.896C167.66 54.328 167.372 54.616 166.94 54.616H163.244V65.704C163.244 67.096 164.06 67.768 165.308 67.768C165.74 67.768 166.22 67.768 166.796 67.72C167.324 67.672 167.66 67.912 167.66 68.392V71.896C167.66 73 165.26 73.288 163.676 73.288ZM192.406 73.576C185.302 73.576 180.07 68.2 180.07 61.24C180.07 54.28 185.302 48.904 192.406 48.904C199.462 48.904 204.694 54.28 204.694 61.24C204.694 68.2 199.462 73.576 192.406 73.576ZM186.454 61.24C186.454 65.08 189.046 67.48 192.406 67.48C195.718 67.48 198.31 65.08 198.31 61.24C198.31 57.4 195.718 55 192.406 55C189.046 55 186.454 57.4 186.454 61.24ZM217.422 73.576C212.478 73.576 208.926 70.024 208.926 63.88V50.2C208.926 49.768 209.214 49.48 209.646 49.48H214.83C215.262 49.48 215.55 49.768 215.55 50.2V62.392C215.55 65.704 217.086 67.48 219.918 67.48C222.702 67.48 224.526 65.704 224.526 62.392V50.2C224.526 49.768 224.814 49.48 225.246 49.48H230.382C230.814 49.48 231.15 49.768 231.15 50.2V72.28C231.15 72.712 230.814 73 230.382 73H225.438C225.006 73 224.766 72.808 224.718 72.232L224.526 69.448C223.182 71.848 220.926 73.576 217.422 73.576ZM246.176 73.288C242.432 73.288 239.072 71.56 239.072 66.424V54.616H236.096C235.664 54.616 235.376 54.328 235.376 53.896V50.2C235.376 49.768 235.664 49.48 236.096 49.48H239.072V43.96C239.072 43.528 239.36 43.24 239.792 43.24H245.024C245.456 43.24 245.744 43.528 245.744 43.96V49.48H249.44C249.872 49.48 250.16 49.768 250.16 50.2V53.896C250.16 54.328 249.872 54.616 249.44 54.616H245.744V65.704C245.744 67.096 246.56 67.768 247.808 67.768C248.24 67.768 248.72 67.768 249.296 67.72C249.824 67.672 250.16 67.912 250.16 68.392V71.896C250.16 73 247.76 73.288 246.176 73.288ZM256.219 62.68C255.787 62.68 255.499 62.392 255.499 61.96L254.779 40.12C254.779 39.688 255.067 39.4 255.499 39.4H260.827C261.259 39.4 261.547 39.688 261.547 40.12L260.779 61.96C260.779 62.392 260.587 62.68 260.059 62.68H256.219ZM254.203 69.688C254.203 67.48 255.931 65.656 258.139 65.656C260.347 65.656 262.123 67.48 262.123 69.688C262.123 71.848 260.347 73.624 258.139 73.624C255.931 73.624 254.203 71.848 254.203 69.688Z" fill="white"/>
</svg>
