<svg width="361" height="360" viewBox="0 0 361 360" fill="none" xmlns="http://www.w3.org/2000/svg">
<path fill-rule="evenodd" clip-rule="evenodd" d="M182.095 253.44C252.081 253.44 308.815 196.706 308.815 126.72C308.815 56.7345 252.081 0 182.095 0C112.109 0 55.375 56.7345 55.375 126.72C55.375 196.706 112.109 253.44 182.095 253.44ZM213.15 68.6792H183.425H153.699C146.268 69.5849 142.552 70.4906 139.765 71.3962C136.05 72.3019 134.192 74.1132 131.405 76.8302C128.618 79.5472 126.761 81.3585 125.832 84.9811C125.688 85.4014 125.522 85.8434 125.344 86.3171C124.372 88.9057 123.045 92.4416 123.045 98.566V127.547V156.528C123.974 163.774 124.903 167.396 125.832 170.113C126.761 173.736 128.618 175.547 131.405 178.264C134.192 180.981 136.05 182.792 139.765 183.698C140.196 183.838 140.65 184 141.135 184.173L141.136 184.173C143.791 185.121 147.418 186.415 153.699 186.415H183.425H213.15C220.581 185.509 224.297 184.604 227.084 183.698C230.8 182.792 232.657 180.981 235.444 178.264C238.231 175.547 240.089 173.736 241.018 170.113C241.161 169.693 241.327 169.251 241.505 168.777C242.477 166.189 243.804 162.653 243.804 156.528V127.547V98.566C242.876 91.3208 241.947 87.6981 241.018 84.9811C240.089 81.3585 238.231 79.5472 235.444 76.8302C232.657 74.1132 230.8 72.3019 227.084 71.3962C226.653 71.2562 226.2 71.0945 225.714 70.9212L225.714 70.9209C223.059 69.9735 219.432 68.6792 213.15 68.6792ZM152.77 56H183.425C203.861 56 205.719 56 213.15 56.9057C220.581 57.8113 226.155 58.717 230.8 60.5283C235.444 62.3396 240.089 65.0566 243.804 68.6792C247.52 72.3019 250.307 76.8302 252.165 81.3585C254.023 85.8868 255.88 90.4151 255.88 98.566V128.453V158.34C254.951 165.585 254.023 171.019 252.165 175.547C250.307 180.075 247.52 184.604 243.804 188.226C240.089 191.849 235.444 194.566 230.8 196.377C226.155 198.189 221.51 200 213.15 200H182.496H151.841C144.41 199.094 138.837 198.189 134.192 196.377C129.547 194.566 124.903 191.849 121.187 188.226C117.471 184.604 114.685 180.075 112.827 175.547C110.969 171.019 109.111 166.491 109.111 158.34V128.453V98.566C110.04 91.3208 110.969 85.8868 112.827 81.3585C114.685 75.9245 117.471 72.3019 122.116 67.7736C125.832 64.1509 130.476 61.434 135.121 59.6226C139.765 57.8113 144.41 56 152.77 56ZM145.338 128.452C145.338 107.622 162.058 91.3203 183.423 91.3203C204.789 91.3203 221.509 107.622 221.509 128.452C221.509 149.283 204.789 165.584 183.423 165.584C162.058 165.584 145.338 149.283 145.338 128.452ZM158.343 128.452C158.343 142.037 169.49 152.905 183.423 152.905C197.357 152.905 208.504 142.037 208.504 128.452C208.504 114.867 197.357 104 183.423 104C169.49 104 158.343 114.867 158.343 128.452ZM231.728 89.5093C231.728 94.0376 228.013 98.5659 222.439 98.5659C216.866 98.5659 213.15 94.9432 213.15 89.5093C213.15 84.0753 216.866 80.4527 222.439 80.4527C228.013 80.4527 231.728 84.981 231.728 89.5093Z" fill="#5981B2"/>
<path d="M56.3213 345C55.8173 345 55.4813 344.72 55.4813 344.216V306.584C55.4813 306.08 55.8173 305.8 56.3213 305.8H59.9613C60.4653 305.8 60.7453 306.08 60.7453 306.584V344.216C60.7453 344.72 60.4653 345 59.9613 345H56.3213ZM70.0334 345C69.5294 345 69.2494 344.72 69.2494 344.216V318.344C69.2494 317.84 69.5294 317.56 70.0334 317.56H73.3374C73.8974 317.56 74.1214 317.784 74.1214 318.4L74.2894 321.872C75.8574 319.072 78.7694 316.888 83.1934 316.888C89.0734 316.888 93.1614 320.864 93.1614 328.088V344.216C93.1614 344.72 92.8814 345 92.3774 345H88.8494C88.3454 345 88.1214 344.72 88.1214 344.216V328.872C88.1214 324.28 85.7694 321.536 81.5694 321.536C77.3694 321.536 74.2894 324.28 74.2894 328.872V344.216C74.2894 344.72 74.0654 345 73.5614 345H70.0334ZM109.588 345.672C105.108 345.672 102.028 343.544 100.292 341.416C99.9003 340.968 99.9563 340.52 100.292 339.96L101.412 338.392C101.804 337.888 102.308 337.888 102.756 338.336C104.604 340.128 106.62 341.304 109.364 341.304C112.22 341.304 114.18 340.072 114.18 337.552C114.18 335.312 112.724 334.304 110.26 333.296L106.956 331.896C103.596 330.496 100.852 328.368 100.852 324.504C100.852 319.744 104.884 316.888 109.588 316.888C112.836 316.888 115.86 318.232 117.932 320.808C118.268 321.2 118.156 321.648 117.876 321.984L116.532 323.552C116.084 324.112 115.692 324.056 115.188 323.552C113.452 321.816 111.716 321.032 109.812 321.032C107.516 321.032 105.668 322.208 105.668 324.392C105.668 326.688 107.348 327.584 109.812 328.536L112.836 329.768C116.364 331.224 119.22 333.408 119.164 337.664C119.164 342.872 114.684 345.672 109.588 345.672ZM134.16 345.336C130.24 345.336 127.664 343.376 127.664 338.84V321.648H124.136C123.632 321.648 123.296 321.312 123.296 320.808V318.344C123.296 317.84 123.632 317.56 124.136 317.56H127.664V311.064C127.664 310.56 127.944 310.28 128.448 310.28H131.976C132.48 310.28 132.704 310.56 132.704 311.064V317.56H137.296C137.8 317.56 138.08 317.84 138.08 318.344V320.808C138.08 321.312 137.8 321.648 137.296 321.648H132.704V338.168C132.704 340.184 133.6 340.968 135.224 340.968C135.672 340.968 136.4 340.912 136.96 340.856C137.744 340.8 138.024 341.08 138.024 341.64V343.992C138.024 345.056 135.728 345.336 134.16 345.336ZM156.046 345.672C148.15 345.672 142.662 339.512 142.662 331.28C142.662 323.104 148.15 316.888 156.046 316.888C160.75 316.888 164.222 319.072 166.182 322.544L166.294 318.344C166.294 317.84 166.518 317.56 167.022 317.56H170.27C170.774 317.56 171.054 317.84 171.054 318.344V344.216C171.054 344.72 170.774 345 170.27 345H167.022C166.518 345 166.294 344.72 166.294 344.216L166.182 340.128C164.166 343.544 160.75 345.672 156.046 345.672ZM147.59 331.28C147.59 337.104 151.51 341.024 156.942 341.024C162.318 341.024 166.07 337.16 166.07 331.336C166.07 325.512 162.318 321.536 156.942 321.536C151.51 321.536 147.59 325.512 147.59 331.28ZM191.439 356.48C187.463 356.48 183.879 355.36 181.583 353.736C181.079 353.4 180.967 352.896 181.191 352.448L182.255 350.488C182.479 350.04 182.927 349.928 183.375 350.152C185.727 351.608 188.415 352.28 191.103 352.28C196.031 352.28 200.735 350.096 200.735 343.656V339.456C198.775 342.648 195.471 344.608 190.879 344.608C183.039 344.608 177.607 338.896 177.607 330.72C177.607 322.656 183.039 316.888 190.823 316.888C195.471 316.888 198.831 318.848 200.791 322.152L200.847 318.344C200.847 317.84 201.127 317.56 201.631 317.56H204.879C205.383 317.56 205.607 317.84 205.607 318.344V343.824C205.607 352.952 198.495 356.48 191.439 356.48ZM182.535 330.72C182.535 336.432 186.455 340.016 191.663 340.016C196.927 340.016 200.623 336.488 200.623 330.832C200.623 325.12 196.927 321.48 191.663 321.48C186.455 321.48 182.535 325.12 182.535 330.72ZM214.354 345C213.85 345 213.57 344.72 213.57 344.216V318.344C213.57 317.84 213.85 317.56 214.354 317.56H217.658C218.218 317.56 218.442 317.784 218.442 318.4L218.61 321.648C219.618 318.96 221.466 316.888 224.826 316.888C226.002 316.888 226.842 317.112 227.346 317.448C227.682 317.728 227.794 317.952 227.794 318.456V321.256C227.794 321.872 227.402 321.984 226.786 321.816C226.058 321.648 225.386 321.536 224.77 321.536C220.178 321.536 218.61 325.4 218.61 328.704V344.216C218.61 344.72 218.386 345 217.882 345H214.354ZM244.585 345.672C236.689 345.672 231.201 339.512 231.201 331.28C231.201 323.104 236.689 316.888 244.585 316.888C249.289 316.888 252.761 319.072 254.721 322.544L254.833 318.344C254.833 317.84 255.057 317.56 255.561 317.56H258.809C259.313 317.56 259.593 317.84 259.593 318.344V344.216C259.593 344.72 259.313 345 258.809 345H255.561C255.057 345 254.833 344.72 254.833 344.216L254.721 340.128C252.705 343.544 249.289 345.672 244.585 345.672ZM236.129 331.28C236.129 337.104 240.049 341.024 245.481 341.024C250.857 341.024 254.609 337.16 254.609 331.336C254.609 325.512 250.857 321.536 245.481 321.536C240.049 321.536 236.129 325.512 236.129 331.28ZM268.33 345C267.826 345 267.546 344.72 267.546 344.216V318.344C267.546 317.84 267.826 317.56 268.33 317.56H271.634C272.194 317.56 272.418 317.784 272.418 318.4L272.53 321.48C273.93 318.904 276.338 316.888 280.314 316.888C284.066 316.888 286.866 318.624 288.322 322.152C289.722 319.184 292.354 316.888 296.89 316.888C302.602 316.888 306.074 320.64 306.074 327.864V344.216C306.074 344.72 305.794 345 305.29 345H301.762C301.258 345 301.034 344.72 301.034 344.216V328.648C301.034 324.112 299.242 321.536 295.49 321.536C291.794 321.536 289.33 324.168 289.33 328.648V344.216C289.33 344.72 289.106 345 288.602 345H285.074C284.57 345 284.29 344.72 284.29 344.216V328.648C284.29 324.112 282.274 321.536 278.578 321.536C274.826 321.536 272.586 324.168 272.586 328.648V344.216C272.586 344.72 272.362 345 271.858 345H268.33Z" fill="#2D405F"/>
</svg>
