<svg width="361" height="360" viewBox="0 0 361 360" fill="none" xmlns="http://www.w3.org/2000/svg">
<path fill-rule="evenodd" clip-rule="evenodd" d="M307.378 126.72C307.378 196.706 250.643 253.44 180.658 253.44C110.672 253.44 53.9375 196.706 53.9375 126.72C53.9375 56.7345 110.672 0 180.658 0C250.643 0 307.378 56.7345 307.378 126.72ZM97.0651 130.691L130.93 141.712C131.501 141.811 132.087 141.776 132.641 141.608L132.664 141.594C140.48 136.664 210.149 92.7191 214.171 91.2409C214.805 91.0492 215.277 91.2652 215.152 91.7029C213.539 97.3533 152.916 151.178 152.916 151.178C152.916 151.178 152.326 151.849 152.434 152.39C152.458 152.599 152.527 152.799 152.636 152.978C152.745 153.158 152.891 153.312 153.065 153.43C160.758 158.57 195.574 181.94 205.647 190.595C206.552 191.473 207.626 192.16 208.803 192.615C209.98 193.07 211.237 193.283 212.498 193.242C217.631 193.05 219.064 187.418 219.064 187.418C219.064 187.418 243.01 91.1716 243.81 78.2757C243.841 77.7869 243.875 77.3667 243.907 76.9848C243.957 76.3804 243.999 75.8719 244.005 75.3397C244.047 74.3356 243.948 73.3307 243.712 72.3539C243.591 71.8009 243.326 71.2897 242.943 70.8727C242.56 70.4556 242.073 70.1477 241.532 69.9803C239.344 69.1499 235.634 70.3985 235.634 70.3985C235.634 70.3985 104.253 117.566 96.7494 122.79C95.1305 123.912 94.5893 124.565 94.321 125.331C93.0178 129.051 97.0651 130.691 97.0651 130.691Z" fill="#5981B2"/>
<path d="M75.4269 345C74.9229 345 74.6429 344.72 74.6429 344.216V310.448H66.4669C65.9629 310.448 65.6269 310.168 65.6269 309.664V306.584C65.6269 306.08 65.9629 305.8 66.4669 305.8H88.0269C88.5309 305.8 88.8109 306.08 88.8109 306.584V309.664C88.8109 310.168 88.5309 310.448 88.0269 310.448H79.8509V344.216C79.8509 344.72 79.5709 345 79.0669 345H75.4269ZM103.959 345.672C94.9989 345.672 89.2869 339.232 89.2869 331.168C89.2869 323.104 94.9429 316.888 103.175 316.888C111.351 316.888 116.111 323.104 116.111 329.88C116.111 332.12 115.663 333.128 113.815 333.128H94.2149C94.8309 338.056 98.3589 341.528 104.407 341.528C107.431 341.528 109.727 340.688 111.855 339.176C112.191 338.952 112.527 338.952 112.751 339.232L113.983 340.968C114.375 341.416 114.207 341.752 113.759 342.144C111.351 344.496 107.823 345.672 103.959 345.672ZM94.2149 329.376H111.631C111.351 324.448 108.103 321.2 103.175 321.2C98.2469 321.2 94.7749 324.28 94.2149 329.376ZM123.463 345C122.959 345 122.679 344.72 122.679 344.216V305.744C122.679 305.24 122.959 304.96 123.463 304.96H126.991C127.495 304.96 127.775 305.24 127.775 305.744V344.216C127.775 344.72 127.495 345 126.991 345H123.463ZM149.021 345.672C140.061 345.672 134.349 339.232 134.349 331.168C134.349 323.104 140.005 316.888 148.237 316.888C156.413 316.888 161.173 323.104 161.173 329.88C161.173 332.12 160.725 333.128 158.877 333.128H139.277C139.893 338.056 143.421 341.528 149.469 341.528C152.493 341.528 154.789 340.688 156.917 339.176C157.253 338.952 157.589 338.952 157.813 339.232L159.045 340.968C159.437 341.416 159.269 341.752 158.821 342.144C156.413 344.496 152.885 345.672 149.021 345.672ZM139.277 329.376H156.693C156.413 324.448 153.165 321.2 148.237 321.2C143.309 321.2 139.837 324.28 139.277 329.376ZM180.174 356.48C176.198 356.48 172.614 355.36 170.318 353.736C169.814 353.4 169.702 352.896 169.926 352.448L170.99 350.488C171.214 350.04 171.662 349.928 172.11 350.152C174.462 351.608 177.15 352.28 179.838 352.28C184.766 352.28 189.47 350.096 189.47 343.656V339.456C187.51 342.648 184.206 344.608 179.614 344.608C171.774 344.608 166.342 338.896 166.342 330.72C166.342 322.656 171.774 316.888 179.558 316.888C184.206 316.888 187.566 318.848 189.526 322.152L189.582 318.344C189.582 317.84 189.862 317.56 190.366 317.56H193.614C194.118 317.56 194.342 317.84 194.342 318.344V343.824C194.342 352.952 187.23 356.48 180.174 356.48ZM171.27 330.72C171.27 336.432 175.19 340.016 180.398 340.016C185.662 340.016 189.358 336.488 189.358 330.832C189.358 325.12 185.662 321.48 180.398 321.48C175.19 321.48 171.27 325.12 171.27 330.72ZM203.088 345C202.584 345 202.304 344.72 202.304 344.216V318.344C202.304 317.84 202.584 317.56 203.088 317.56H206.392C206.952 317.56 207.176 317.784 207.176 318.4L207.344 321.648C208.352 318.96 210.2 316.888 213.56 316.888C214.736 316.888 215.576 317.112 216.08 317.448C216.416 317.728 216.528 317.952 216.528 318.456V321.256C216.528 321.872 216.136 321.984 215.52 321.816C214.792 321.648 214.12 321.536 213.504 321.536C208.912 321.536 207.344 325.4 207.344 328.704V344.216C207.344 344.72 207.12 345 206.616 345H203.088ZM233.319 345.672C225.423 345.672 219.935 339.512 219.935 331.28C219.935 323.104 225.423 316.888 233.319 316.888C238.023 316.888 241.495 319.072 243.455 322.544L243.567 318.344C243.567 317.84 243.791 317.56 244.295 317.56H247.543C248.047 317.56 248.327 317.84 248.327 318.344V344.216C248.327 344.72 248.047 345 247.543 345H244.295C243.791 345 243.567 344.72 243.567 344.216L243.455 340.128C241.439 343.544 238.023 345.672 233.319 345.672ZM224.863 331.28C224.863 337.104 228.783 341.024 234.215 341.024C239.591 341.024 243.343 337.16 243.343 331.336C243.343 325.512 239.591 321.536 234.215 321.536C228.783 321.536 224.863 325.512 224.863 331.28ZM257.065 345C256.561 345 256.281 344.72 256.281 344.216V318.344C256.281 317.84 256.561 317.56 257.065 317.56H260.369C260.929 317.56 261.153 317.784 261.153 318.4L261.265 321.48C262.665 318.904 265.073 316.888 269.049 316.888C272.801 316.888 275.601 318.624 277.057 322.152C278.457 319.184 281.089 316.888 285.625 316.888C291.337 316.888 294.809 320.64 294.809 327.864V344.216C294.809 344.72 294.529 345 294.025 345H290.497C289.993 345 289.769 344.72 289.769 344.216V328.648C289.769 324.112 287.977 321.536 284.225 321.536C280.529 321.536 278.065 324.168 278.065 328.648V344.216C278.065 344.72 277.841 345 277.337 345H273.809C273.305 345 273.025 344.72 273.025 344.216V328.648C273.025 324.112 271.009 321.536 267.313 321.536C263.561 321.536 261.321 324.168 261.321 328.648V344.216C261.321 344.72 261.097 345 260.593 345H257.065Z" fill="#2D405F"/>
</svg>
