<svg width="312" height="59" viewBox="0 0 312 59" fill="none" xmlns="http://www.w3.org/2000/svg">
<rect width="312" height="59" rx="21" fill="url(#paint0_linear_1585_1595)"/>
<path d="M36.6016 37C36.3856 37 36.2416 36.856 36.2416 36.64V29.2L31.3216 20.632C31.1776 20.368 31.2736 20.2 31.5616 20.2H34.3936C34.5856 20.2 34.7296 20.272 34.8256 20.44L37.9696 26.08L41.0896 20.44C41.1856 20.272 41.3296 20.2 41.5216 20.2H44.3536C44.6416 20.2 44.7376 20.368 44.5936 20.632L39.6736 29.248V36.64C39.6736 36.856 39.5296 37 39.3136 37H36.6016ZM50.104 37.288C46.24 37.288 43.648 34.624 43.648 31.072C43.648 27.616 46.072 24.952 49.696 24.952C53.272 24.952 55.336 27.592 55.336 30.568C55.336 31.72 55.072 32.368 54.04 32.368H46.888C47.248 33.856 48.472 34.672 50.368 34.672C51.28 34.672 52.144 34.504 53.104 33.952C53.272 33.856 53.392 33.88 53.512 34.048L54.4 35.272C54.52 35.44 54.496 35.608 54.28 35.8C53.272 36.808 51.76 37.288 50.104 37.288ZM46.84 30.04H52.384C52.192 28.48 51.136 27.688 49.72 27.688C48.256 27.688 47.128 28.48 46.84 30.04ZM63.4165 37.288C59.5525 37.288 56.9605 34.624 56.9605 31.072C56.9605 27.616 59.3845 24.952 63.0085 24.952C66.5845 24.952 68.6485 27.592 68.6485 30.568C68.6485 31.72 68.3845 32.368 67.3525 32.368H60.2005C60.5605 33.856 61.7845 34.672 63.6805 34.672C64.5925 34.672 65.4565 34.504 66.4165 33.952C66.5845 33.856 66.7045 33.88 66.8245 34.048L67.7125 35.272C67.8325 35.44 67.8085 35.608 67.5925 35.8C66.5845 36.808 65.0725 37.288 63.4165 37.288ZM60.1525 30.04H65.6965C65.5045 28.48 64.4485 27.688 63.0325 27.688C61.5685 27.688 60.4405 28.48 60.1525 30.04ZM75.3187 37.144C73.4467 37.144 71.7667 36.28 71.7667 33.712V27.808H70.2787C70.0627 27.808 69.9187 27.664 69.9187 27.448V25.6C69.9187 25.384 70.0627 25.24 70.2787 25.24H71.7667V22.48C71.7667 22.264 71.9107 22.12 72.1267 22.12H74.7427C74.9587 22.12 75.1027 22.264 75.1027 22.48V25.24H76.9507C77.1667 25.24 77.3107 25.384 77.3107 25.6V27.448C77.3107 27.664 77.1667 27.808 76.9507 27.808H75.1027V33.352C75.1027 34.048 75.5107 34.384 76.1347 34.384C76.3507 34.384 76.5907 34.384 76.8787 34.36C77.1427 34.336 77.3107 34.456 77.3107 34.696V36.448C77.3107 37 76.1107 37.144 75.3187 37.144ZM85.8192 23.152C84.7632 23.152 83.9712 22.336 83.9712 21.304C83.9712 20.296 84.7632 19.48 85.8192 19.48C86.8752 19.48 87.6432 20.296 87.6432 21.304C87.6432 22.336 86.8752 23.152 85.8192 23.152ZM84.1392 36.64V25.6C84.1392 25.384 84.2832 25.24 84.4992 25.24H87.1152C87.3312 25.24 87.4752 25.384 87.4752 25.6V36.64C87.4752 36.856 87.3312 37 87.1152 37H84.4992C84.2832 37 84.1392 36.856 84.1392 36.64ZM90.7096 37C90.4936 37 90.3496 36.856 90.3496 36.64V25.6C90.3496 25.384 90.4936 25.24 90.7096 25.24H93.2056C93.4216 25.24 93.5656 25.336 93.5656 25.624L93.6616 27.016C94.3336 25.816 95.4616 24.952 97.2136 24.952C99.6616 24.952 101.462 26.728 101.462 29.8V36.64C101.462 36.856 101.294 37 101.078 37H98.5096C98.2936 37 98.1496 36.856 98.1496 36.64V30.544C98.1496 28.888 97.3816 28 95.9656 28C94.5736 28 93.6616 28.888 93.6616 30.544V36.64C93.6616 36.856 93.5176 37 93.3016 37H90.7096ZM108.506 37.144C106.634 37.144 104.954 36.28 104.954 33.712V27.808H103.466C103.25 27.808 103.106 27.664 103.106 27.448V25.6C103.106 25.384 103.25 25.24 103.466 25.24H104.954V22.48C104.954 22.264 105.098 22.12 105.314 22.12H107.93C108.146 22.12 108.29 22.264 108.29 22.48V25.24H110.138C110.354 25.24 110.498 25.384 110.498 25.6V27.448C110.498 27.664 110.354 27.808 110.138 27.808H108.29V33.352C108.29 34.048 108.698 34.384 109.322 34.384C109.538 34.384 109.778 34.384 110.066 34.36C110.33 34.336 110.498 34.456 110.498 34.696V36.448C110.498 37 109.298 37.144 108.506 37.144ZM118.066 37.288C114.514 37.288 111.898 34.6 111.898 31.12C111.898 27.64 114.514 24.952 118.066 24.952C121.594 24.952 124.21 27.64 124.21 31.12C124.21 34.6 121.594 37.288 118.066 37.288ZM115.09 31.12C115.09 33.04 116.386 34.24 118.066 34.24C119.722 34.24 121.018 33.04 121.018 31.12C121.018 29.2 119.722 28 118.066 28C116.386 28 115.09 29.2 115.09 31.12ZM135.811 37.144C133.939 37.144 132.259 36.28 132.259 33.712V27.808H130.771C130.555 27.808 130.411 27.664 130.411 27.448V25.6C130.411 25.384 130.555 25.24 130.771 25.24H132.259V22.48C132.259 22.264 132.403 22.12 132.619 22.12H135.235C135.451 22.12 135.595 22.264 135.595 22.48V25.24H137.443C137.659 25.24 137.803 25.384 137.803 25.6V27.448C137.803 27.664 137.659 27.808 137.443 27.808H135.595V33.352C135.595 34.048 136.003 34.384 136.627 34.384C136.843 34.384 137.083 34.384 137.371 34.36C137.635 34.336 137.803 34.456 137.803 34.696V36.448C137.803 37 136.603 37.144 135.811 37.144ZM140.28 37C140.064 37 139.92 36.856 139.92 36.64V20.2C139.92 19.984 140.064 19.84 140.28 19.84H142.872C143.088 19.84 143.232 19.984 143.232 20.2V27.016C143.904 25.816 145.032 24.952 146.784 24.952C149.232 24.952 151.032 26.728 151.032 29.8V36.64C151.032 36.856 150.864 37 150.648 37H148.08C147.864 37 147.72 36.856 147.72 36.64V30.544C147.72 28.888 146.952 28 145.536 28C144.144 28 143.232 28.888 143.232 30.544V36.64C143.232 36.856 143.088 37 142.872 37H140.28ZM159.721 37.288C155.857 37.288 153.265 34.624 153.265 31.072C153.265 27.616 155.689 24.952 159.313 24.952C162.889 24.952 164.953 27.592 164.953 30.568C164.953 31.72 164.689 32.368 163.657 32.368H156.505C156.865 33.856 158.089 34.672 159.985 34.672C160.897 34.672 161.761 34.504 162.721 33.952C162.889 33.856 163.009 33.88 163.129 34.048L164.017 35.272C164.137 35.44 164.113 35.608 163.897 35.8C162.889 36.808 161.377 37.288 159.721 37.288ZM156.457 30.04H162.001C161.809 28.48 160.753 27.688 159.337 27.688C157.873 27.688 156.745 28.48 156.457 30.04ZM172.465 37C172.249 37 172.105 36.856 172.105 36.64V20.56C172.105 20.344 172.249 20.2 172.465 20.2H175.177C175.393 20.2 175.537 20.344 175.537 20.56V33.952H180.673C180.889 33.952 181.033 34.096 181.033 34.312V36.64C181.033 36.856 180.889 37 180.673 37H172.465ZM187.41 37.288C184.938 37.288 183.162 35.512 183.162 32.44V25.6C183.162 25.384 183.306 25.24 183.522 25.24H186.114C186.33 25.24 186.474 25.384 186.474 25.6V31.696C186.474 33.352 187.242 34.24 188.658 34.24C190.05 34.24 190.962 33.352 190.962 31.696V25.6C190.962 25.384 191.106 25.24 191.322 25.24H193.89C194.106 25.24 194.274 25.384 194.274 25.6V36.64C194.274 36.856 194.106 37 193.89 37H191.418C191.202 37 191.082 36.904 191.058 36.616L190.962 35.224C190.29 36.424 189.162 37.288 187.41 37.288ZM197.467 37C197.251 37 197.107 36.856 197.107 36.64V25.6C197.107 25.384 197.251 25.24 197.467 25.24H199.963C200.179 25.24 200.323 25.336 200.323 25.624L200.395 26.872C201.043 25.768 202.099 24.952 203.707 24.952C205.219 24.952 206.395 25.672 207.043 27.04C207.691 25.84 208.843 24.952 210.667 24.952C213.187 24.952 214.723 26.68 214.723 29.752V36.64C214.723 36.856 214.579 37 214.363 37H211.771C211.555 37 211.411 36.856 211.411 36.64V30.472C211.411 28.864 210.835 28 209.539 28C208.291 28 207.571 28.864 207.571 30.472V36.64C207.571 36.856 207.427 37 207.211 37H204.643C204.403 37 204.259 36.856 204.259 36.64V30.472C204.259 28.864 203.659 28 202.387 28C201.139 28 200.419 28.864 200.419 30.472V36.64C200.419 36.856 200.275 37 200.059 37H197.467ZM219.249 23.152C218.193 23.152 217.401 22.336 217.401 21.304C217.401 20.296 218.193 19.48 219.249 19.48C220.305 19.48 221.073 20.296 221.073 21.304C221.073 22.336 220.305 23.152 219.249 23.152ZM217.569 36.64V25.6C217.569 25.384 217.713 25.24 217.929 25.24H220.545C220.761 25.24 220.905 25.384 220.905 25.6V36.64C220.905 36.856 220.761 37 220.545 37H217.929C217.713 37 217.569 36.856 217.569 36.64ZM227.907 37C227.715 37 227.547 36.904 227.475 36.712L223.083 25.648C222.987 25.384 223.107 25.24 223.371 25.24H226.011C226.203 25.24 226.371 25.336 226.443 25.528L229.227 33.184L231.987 25.528C232.059 25.336 232.227 25.24 232.419 25.24H235.059C235.323 25.24 235.443 25.384 235.347 25.648L230.955 36.712C230.883 36.904 230.715 37 230.523 37H227.907ZM242.502 37.288C238.638 37.288 236.046 34.624 236.046 31.072C236.046 27.616 238.47 24.952 242.094 24.952C245.67 24.952 247.734 27.592 247.734 30.568C247.734 31.72 247.47 32.368 246.438 32.368H239.286C239.646 33.856 240.87 34.672 242.766 34.672C243.678 34.672 244.542 34.504 245.502 33.952C245.67 33.856 245.79 33.88 245.91 34.048L246.798 35.272C246.918 35.44 246.894 35.608 246.678 35.8C245.67 36.808 244.158 37.288 242.502 37.288ZM239.238 30.04H244.782C244.59 28.48 243.534 27.688 242.118 27.688C240.654 27.688 239.526 28.48 239.238 30.04ZM250.319 37C250.103 37 249.959 36.856 249.959 36.64V25.6C249.959 25.384 250.103 25.24 250.319 25.24H252.815C253.031 25.24 253.151 25.336 253.175 25.624L253.271 27.136C253.679 25.888 254.423 24.952 255.815 24.952C256.367 24.952 256.703 25.096 256.895 25.24C257.063 25.36 257.111 25.504 257.111 25.72V27.832C257.111 28.12 256.943 28.192 256.631 28.12C256.367 28.048 256.103 28 255.767 28C254.135 28 253.271 29.08 253.271 30.76V36.64C253.271 36.856 253.127 37 252.911 37H250.319ZM263.014 37.288C261.046 37.288 259.558 36.448 258.622 35.344C258.478 35.176 258.502 34.912 258.67 34.648L259.51 33.472C259.702 33.184 259.918 33.232 260.11 33.376C261.094 34.12 261.91 34.528 262.822 34.528C263.614 34.528 264.142 34.216 264.142 33.544C264.142 32.968 263.782 32.704 262.918 32.344L261.43 31.744C259.918 31.144 258.862 30.136 258.862 28.504C258.862 26.248 260.782 24.952 262.966 24.952C264.502 24.952 265.918 25.576 266.902 26.752C267.046 26.92 266.998 27.112 266.878 27.256L265.822 28.528C265.654 28.72 265.486 28.696 265.27 28.528C264.502 27.88 263.83 27.544 263.134 27.544C262.366 27.544 262.006 27.976 262.006 28.48C262.006 29.056 262.486 29.368 263.134 29.608L264.79 30.256C266.278 30.856 267.454 31.888 267.43 33.688C267.406 36.064 265.366 37.288 263.014 37.288ZM275.526 37.288C271.662 37.288 269.07 34.624 269.07 31.072C269.07 27.616 271.494 24.952 275.118 24.952C278.694 24.952 280.758 27.592 280.758 30.568C280.758 31.72 280.494 32.368 279.462 32.368H272.31C272.67 33.856 273.894 34.672 275.79 34.672C276.702 34.672 277.566 34.504 278.526 33.952C278.694 33.856 278.814 33.88 278.934 34.048L279.822 35.272C279.942 35.44 279.918 35.608 279.702 35.8C278.694 36.808 277.182 37.288 275.526 37.288ZM272.262 30.04H277.806C277.614 28.48 276.558 27.688 275.142 27.688C273.678 27.688 272.55 28.48 272.262 30.04Z" fill="#300A62"/>
<defs>
<linearGradient id="paint0_linear_1585_1595" x1="77.4206" y1="-6.18548" x2="83.5514" y2="65.2204" gradientUnits="userSpaceOnUse">
<stop stop-color="white"/>
<stop offset="1" stop-color="white"/>
</linearGradient>
</defs>
</svg>
