<svg width="623" height="117" viewBox="0 0 623 117" fill="none" xmlns="http://www.w3.org/2000/svg">
<rect width="623" height="117" rx="42" fill="url(#paint0_linear_1582_3588)"/>
<path d="M72.7032 73C72.2712 73 71.9832 72.712 71.9832 72.28V57.4L62.1432 40.264C61.8552 39.736 62.0472 39.4 62.6232 39.4H68.2872C68.6712 39.4 68.9592 39.544 69.1512 39.88L75.4392 51.16L81.6792 39.88C81.8712 39.544 82.1592 39.4 82.5432 39.4H88.2072C88.7832 39.4 88.9752 39.736 88.6872 40.264L78.8472 57.496V72.28C78.8472 72.712 78.5592 73 78.1272 73H72.7032ZM99.7081 73.576C91.9801 73.576 86.7961 68.248 86.7961 61.144C86.7961 54.232 91.6441 48.904 98.8921 48.904C106.044 48.904 110.172 54.184 110.172 60.136C110.172 62.44 109.644 63.736 107.58 63.736H93.2761C93.9961 66.712 96.4441 68.344 100.236 68.344C102.06 68.344 103.788 68.008 105.708 66.904C106.044 66.712 106.284 66.76 106.524 67.096L108.3 69.544C108.54 69.88 108.492 70.216 108.06 70.6C106.044 72.616 103.02 73.576 99.7081 73.576ZM93.1801 59.08H104.268C103.884 55.96 101.772 54.376 98.9401 54.376C96.0121 54.376 93.7561 55.96 93.1801 59.08ZM126.333 73.576C118.605 73.576 113.421 68.248 113.421 61.144C113.421 54.232 118.269 48.904 125.517 48.904C132.669 48.904 136.797 54.184 136.797 60.136C136.797 62.44 136.269 63.736 134.205 63.736H119.901C120.621 66.712 123.069 68.344 126.861 68.344C128.685 68.344 130.413 68.008 132.333 66.904C132.669 66.712 132.909 66.76 133.149 67.096L134.925 69.544C135.165 69.88 135.117 70.216 134.685 70.6C132.669 72.616 129.645 73.576 126.333 73.576ZM119.805 59.08H130.893C130.509 55.96 128.397 54.376 125.565 54.376C122.637 54.376 120.381 55.96 119.805 59.08ZM150.137 73.288C146.393 73.288 143.033 71.56 143.033 66.424V54.616H140.057C139.625 54.616 139.337 54.328 139.337 53.896V50.2C139.337 49.768 139.625 49.48 140.057 49.48H143.033V43.96C143.033 43.528 143.321 43.24 143.753 43.24H148.985C149.417 43.24 149.705 43.528 149.705 43.96V49.48H153.401C153.833 49.48 154.121 49.768 154.121 50.2V53.896C154.121 54.328 153.833 54.616 153.401 54.616H149.705V65.704C149.705 67.096 150.521 67.768 151.769 67.768C152.201 67.768 152.681 67.768 153.257 67.72C153.785 67.672 154.121 67.912 154.121 68.392V71.896C154.121 73 151.721 73.288 150.137 73.288ZM171.138 45.304C169.026 45.304 167.442 43.672 167.442 41.608C167.442 39.592 169.026 37.96 171.138 37.96C173.25 37.96 174.786 39.592 174.786 41.608C174.786 43.672 173.25 45.304 171.138 45.304ZM167.778 72.28V50.2C167.778 49.768 168.066 49.48 168.498 49.48H173.73C174.162 49.48 174.45 49.768 174.45 50.2V72.28C174.45 72.712 174.162 73 173.73 73H168.498C168.066 73 167.778 72.712 167.778 72.28ZM180.919 73C180.487 73 180.199 72.712 180.199 72.28V50.2C180.199 49.768 180.487 49.48 180.919 49.48H185.911C186.343 49.48 186.631 49.672 186.631 50.248L186.823 53.032C188.167 50.632 190.423 48.904 193.927 48.904C198.823 48.904 202.423 52.456 202.423 58.6V72.28C202.423 72.712 202.087 73 201.655 73H196.519C196.087 73 195.799 72.712 195.799 72.28V60.088C195.799 56.776 194.263 55 191.431 55C188.647 55 186.823 56.776 186.823 60.088V72.28C186.823 72.712 186.535 73 186.103 73H180.919ZM216.512 73.288C212.768 73.288 209.408 71.56 209.408 66.424V54.616H206.432C206 54.616 205.712 54.328 205.712 53.896V50.2C205.712 49.768 206 49.48 206.432 49.48H209.408V43.96C209.408 43.528 209.696 43.24 210.128 43.24H215.36C215.792 43.24 216.08 43.528 216.08 43.96V49.48H219.776C220.208 49.48 220.496 49.768 220.496 50.2V53.896C220.496 54.328 220.208 54.616 219.776 54.616H216.08V65.704C216.08 67.096 216.896 67.768 218.144 67.768C218.576 67.768 219.056 67.768 219.632 67.72C220.16 67.672 220.496 67.912 220.496 68.392V71.896C220.496 73 218.096 73.288 216.512 73.288ZM235.632 73.576C228.528 73.576 223.296 68.2 223.296 61.24C223.296 54.28 228.528 48.904 235.632 48.904C242.688 48.904 247.92 54.28 247.92 61.24C247.92 68.2 242.688 73.576 235.632 73.576ZM229.68 61.24C229.68 65.08 232.272 67.48 235.632 67.48C238.944 67.48 241.536 65.08 241.536 61.24C241.536 57.4 238.944 55 235.632 55C232.272 55 229.68 57.4 229.68 61.24ZM271.122 73.288C267.378 73.288 264.018 71.56 264.018 66.424V54.616H261.042C260.61 54.616 260.322 54.328 260.322 53.896V50.2C260.322 49.768 260.61 49.48 261.042 49.48H264.018V43.96C264.018 43.528 264.306 43.24 264.738 43.24H269.97C270.402 43.24 270.69 43.528 270.69 43.96V49.48H274.386C274.818 49.48 275.106 49.768 275.106 50.2V53.896C275.106 54.328 274.818 54.616 274.386 54.616H270.69V65.704C270.69 67.096 271.506 67.768 272.754 67.768C273.186 67.768 273.666 67.768 274.242 67.72C274.77 67.672 275.106 67.912 275.106 68.392V71.896C275.106 73 272.706 73.288 271.122 73.288ZM280.06 73C279.628 73 279.34 72.712 279.34 72.28V39.4C279.34 38.968 279.628 38.68 280.06 38.68H285.244C285.676 38.68 285.964 38.968 285.964 39.4V53.032C287.308 50.632 289.564 48.904 293.068 48.904C297.964 48.904 301.564 52.456 301.564 58.6V72.28C301.564 72.712 301.228 73 300.796 73H295.66C295.228 73 294.94 72.712 294.94 72.28V60.088C294.94 56.776 293.404 55 290.572 55C287.788 55 285.964 56.776 285.964 60.088V72.28C285.964 72.712 285.676 73 285.244 73H280.06ZM318.942 73.576C311.214 73.576 306.03 68.248 306.03 61.144C306.03 54.232 310.878 48.904 318.126 48.904C325.278 48.904 329.406 54.184 329.406 60.136C329.406 62.44 328.878 63.736 326.814 63.736H312.51C313.23 66.712 315.678 68.344 319.47 68.344C321.294 68.344 323.022 68.008 324.942 66.904C325.278 66.712 325.518 66.76 325.758 67.096L327.534 69.544C327.774 69.88 327.726 70.216 327.294 70.6C325.278 72.616 322.254 73.576 318.942 73.576ZM312.414 59.08H323.502C323.118 55.96 321.006 54.376 318.174 54.376C315.246 54.376 312.99 55.96 312.414 59.08ZM344.43 73C343.998 73 343.71 72.712 343.71 72.28V40.12C343.71 39.688 343.998 39.4 344.43 39.4H349.854C350.286 39.4 350.574 39.688 350.574 40.12V66.904H360.846C361.278 66.904 361.566 67.192 361.566 67.624V72.28C361.566 72.712 361.278 73 360.846 73H344.43ZM374.32 73.576C369.376 73.576 365.824 70.024 365.824 63.88V50.2C365.824 49.768 366.112 49.48 366.544 49.48H371.728C372.16 49.48 372.448 49.768 372.448 50.2V62.392C372.448 65.704 373.984 67.48 376.816 67.48C379.6 67.48 381.424 65.704 381.424 62.392V50.2C381.424 49.768 381.712 49.48 382.144 49.48H387.28C387.712 49.48 388.048 49.768 388.048 50.2V72.28C388.048 72.712 387.712 73 387.28 73H382.336C381.904 73 381.664 72.808 381.616 72.232L381.424 69.448C380.08 71.848 377.824 73.576 374.32 73.576ZM394.435 73C394.003 73 393.715 72.712 393.715 72.28V50.2C393.715 49.768 394.003 49.48 394.435 49.48H399.427C399.859 49.48 400.147 49.672 400.147 50.248L400.291 52.744C401.587 50.536 403.699 48.904 406.915 48.904C409.939 48.904 412.291 50.344 413.587 53.08C414.883 50.68 417.187 48.904 420.835 48.904C425.875 48.904 428.947 52.36 428.947 58.504V72.28C428.947 72.712 428.659 73 428.227 73H423.043C422.611 73 422.323 72.712 422.323 72.28V59.944C422.323 56.728 421.171 55 418.579 55C416.083 55 414.643 56.728 414.643 59.944V72.28C414.643 72.712 414.355 73 413.923 73H408.787C408.307 73 408.019 72.712 408.019 72.28V59.944C408.019 56.728 406.819 55 404.275 55C401.779 55 400.339 56.728 400.339 59.944V72.28C400.339 72.712 400.051 73 399.619 73H394.435ZM437.998 45.304C435.886 45.304 434.302 43.672 434.302 41.608C434.302 39.592 435.886 37.96 437.998 37.96C440.11 37.96 441.646 39.592 441.646 41.608C441.646 43.672 440.11 45.304 437.998 45.304ZM434.638 72.28V50.2C434.638 49.768 434.926 49.48 435.358 49.48H440.59C441.022 49.48 441.31 49.768 441.31 50.2V72.28C441.31 72.712 441.022 73 440.59 73H435.358C434.926 73 434.638 72.712 434.638 72.28ZM455.315 73C454.931 73 454.595 72.808 454.451 72.424L445.667 50.296C445.475 49.768 445.715 49.48 446.243 49.48H451.523C451.907 49.48 452.243 49.672 452.387 50.056L457.955 65.368L463.475 50.056C463.619 49.672 463.955 49.48 464.339 49.48H469.619C470.147 49.48 470.387 49.768 470.195 50.296L461.411 72.424C461.267 72.808 460.931 73 460.547 73H455.315ZM484.505 73.576C476.777 73.576 471.593 68.248 471.593 61.144C471.593 54.232 476.441 48.904 483.689 48.904C490.841 48.904 494.969 54.184 494.969 60.136C494.969 62.44 494.441 63.736 492.377 63.736H478.073C478.793 66.712 481.241 68.344 485.033 68.344C486.857 68.344 488.585 68.008 490.505 66.904C490.841 66.712 491.081 66.76 491.321 67.096L493.097 69.544C493.337 69.88 493.289 70.216 492.857 70.6C490.841 72.616 487.817 73.576 484.505 73.576ZM477.977 59.08H489.065C488.681 55.96 486.569 54.376 483.737 54.376C480.809 54.376 478.553 55.96 477.977 59.08ZM500.138 73C499.706 73 499.418 72.712 499.418 72.28V50.2C499.418 49.768 499.706 49.48 500.138 49.48H505.13C505.562 49.48 505.802 49.672 505.85 50.248L506.042 53.272C506.858 50.776 508.346 48.904 511.13 48.904C512.234 48.904 512.906 49.192 513.29 49.48C513.626 49.72 513.722 50.008 513.722 50.44V54.664C513.722 55.24 513.386 55.384 512.762 55.24C512.234 55.096 511.706 55 511.034 55C507.77 55 506.042 57.16 506.042 60.52V72.28C506.042 72.712 505.754 73 505.322 73H500.138ZM525.528 73.576C521.592 73.576 518.616 71.896 516.744 69.688C516.456 69.352 516.504 68.824 516.84 68.296L518.52 65.944C518.904 65.368 519.336 65.464 519.72 65.752C521.688 67.24 523.32 68.056 525.144 68.056C526.728 68.056 527.784 67.432 527.784 66.088C527.784 64.936 527.064 64.408 525.336 63.688L522.36 62.488C519.336 61.288 517.224 59.272 517.224 56.008C517.224 51.496 521.064 48.904 525.432 48.904C528.504 48.904 531.336 50.152 533.304 52.504C533.592 52.84 533.496 53.224 533.256 53.512L531.144 56.056C530.808 56.44 530.472 56.392 530.04 56.056C528.504 54.76 527.16 54.088 525.768 54.088C524.232 54.088 523.512 54.952 523.512 55.96C523.512 57.112 524.472 57.736 525.768 58.216L529.08 59.512C532.056 60.712 534.408 62.776 534.36 66.376C534.312 71.128 530.232 73.576 525.528 73.576ZM550.552 73.576C542.824 73.576 537.64 68.248 537.64 61.144C537.64 54.232 542.488 48.904 549.736 48.904C556.888 48.904 561.016 54.184 561.016 60.136C561.016 62.44 560.488 63.736 558.424 63.736H544.12C544.84 66.712 547.288 68.344 551.08 68.344C552.904 68.344 554.632 68.008 556.552 66.904C556.888 66.712 557.128 66.76 557.368 67.096L559.144 69.544C559.384 69.88 559.336 70.216 558.904 70.6C556.888 72.616 553.864 73.576 550.552 73.576ZM544.024 59.08H555.112C554.728 55.96 552.616 54.376 549.784 54.376C546.856 54.376 544.6 55.96 544.024 59.08Z" fill="white"/>
<defs>
<linearGradient id="paint0_linear_1582_3588" x1="154.593" y1="-12.2661" x2="166.668" y2="129.35" gradientUnits="userSpaceOnUse">
<stop stop-color="#66A1EA"/>
<stop offset="1" stop-color="#9A3EE3"/>
</linearGradient>
</defs>
</svg>
