<svg width="158" height="60" viewBox="0 0 158 60" fill="none" xmlns="http://www.w3.org/2000/svg">
<path d="M1.70365 59C0.985398 59 0.506566 58.5212 0.506566 57.8029V4.33337C0.506566 3.61512 0.985398 3.13629 1.70365 3.13629H10.7216C11.4399 3.13629 11.9187 3.61512 11.9187 4.33337V48.8647H28.9971C29.7153 48.8647 30.1941 49.3436 30.1941 50.0618V57.8029C30.1941 58.5212 29.7153 59 28.9971 59H1.70365ZM49.4833 59.9577C41.2634 59.9577 35.3578 54.0521 35.3578 43.837V21.0925C35.3578 20.3742 35.8366 19.8954 36.5549 19.8954H45.1738C45.8921 19.8954 46.3709 20.3742 46.3709 21.0925V41.363C46.3709 46.8696 48.9247 49.8224 53.6332 49.8224C58.2619 49.8224 61.2945 46.8696 61.2945 41.363V21.0925C61.2945 20.3742 61.7733 19.8954 62.4916 19.8954H71.0308C71.749 19.8954 72.3076 20.3742 72.3076 21.0925V57.8029C72.3076 58.5212 71.749 59 71.0308 59H62.8108C62.0926 59 61.6935 58.6808 61.6137 57.7231L61.2945 53.0944C59.06 57.0847 55.3091 59.9577 49.4833 59.9577ZM81.0108 59C80.2925 59 79.8137 58.5212 79.8137 57.8029V21.0925C79.8137 20.3742 80.2925 19.8954 81.0108 19.8954H89.3105C90.0288 19.8954 90.5076 20.2146 90.5076 21.1723L90.747 25.3222C92.9018 21.6511 96.4132 18.9377 101.76 18.9377C106.788 18.9377 110.698 21.3319 112.853 25.8808C115.008 21.8905 118.839 18.9377 124.904 18.9377C133.283 18.9377 138.391 24.6837 138.391 34.8988V57.8029C138.391 58.5212 137.912 59 137.194 59H128.575C127.856 59 127.378 58.5212 127.378 57.8029V37.293C127.378 31.946 125.462 29.073 121.153 29.073C117.003 29.073 114.609 31.946 114.609 37.293V57.8029C114.609 58.5212 114.13 59 113.412 59H104.873C104.075 59 103.596 58.5212 103.596 57.8029V37.293C103.596 31.946 101.601 29.073 97.3709 29.073C93.221 29.073 90.8268 31.946 90.8268 37.293V57.8029C90.8268 58.5212 90.348 59 89.6298 59H81.0108ZM151.524 12.9523C148.012 12.9523 145.379 10.239 145.379 6.80733C145.379 3.45551 148.012 0.742131 151.524 0.742131C155.035 0.742131 157.589 3.45551 157.589 6.80733C157.589 10.239 155.035 12.9523 151.524 12.9523ZM145.937 57.8029V21.0925C145.937 20.3742 146.416 19.8954 147.134 19.8954H155.833C156.551 19.8954 157.03 20.3742 157.03 21.0925V57.8029C157.03 58.5212 156.551 59 155.833 59H147.134C146.416 59 145.937 58.5212 145.937 57.8029Z" fill="#2D405F"/>
</svg>
